<?xml version="1.0" encoding="UTF-8" standalone="no"?>
<!DOCTYPE svg PUBLIC "-//W3C//DTD SVG 1.1//EN"
 "http://www.w3.org/Graphics/SVG/1.1/DTD/svg11.dtd">
<!-- Generated by graphviz version 2.50.0 (20211209.0339)
 -->
<!-- Title: snakemake_dag Pages: 1 -->
<svg width="1742pt" height="548pt"
 viewBox="0.00 0.00 1742.00 548.00" xmlns="http://www.w3.org/2000/svg" xmlns:xlink="http://www.w3.org/1999/xlink">
<g id="graph0" class="graph" transform="scale(1 1) rotate(0) translate(4 544)">
<title>snakemake_dag</title>
<polygon fill="white" stroke="transparent" points="-4,4 -4,-544 1738,-544 1738,4 -4,4"/>
<!-- 0 -->
<g id="node1" class="node">
<title>0</title>
<path fill="none" stroke="#569ad8" stroke-width="2" d="M781,-36C781,-36 710,-36 710,-36 704,-36 698,-30 698,-24 698,-24 698,-12 698,-12 698,-6 704,0 710,0 710,0 781,0 781,0 787,0 793,-6 793,-12 793,-12 793,-24 793,-24 793,-30 787,-36 781,-36"/>
<text text-anchor="middle" x="745.5" y="-15.5" font-family="sans" font-size="10.00">make_summary</text>
</g>
<!-- 1 -->
<g id="node2" class="node">
<title>1</title>
<path fill="none" stroke="#56c1d8" stroke-width="2" d="M309,-108C309,-108 266,-108 266,-108 260,-108 254,-102 254,-96 254,-96 254,-84 254,-84 254,-78 260,-72 266,-72 266,-72 309,-72 309,-72 315,-72 321,-78 321,-84 321,-84 321,-96 321,-96 321,-102 315,-108 309,-108"/>
<text text-anchor="middle" x="287.5" y="-87.5" font-family="sans" font-size="10.00">make_dag</text>
</g>
<!-- 1&#45;&gt;0 -->
<g id="edge1" class="edge">
<title>1&#45;&gt;0</title>
<path fill="none" stroke="grey" stroke-width="2" d="M321.04,-74.82C324.2,-73.76 327.39,-72.8 330.5,-72 455.47,-39.86 606.84,-26.8 687.8,-21.82"/>
<polygon fill="grey" stroke="grey" stroke-width="2" points="688.01,-25.32 697.79,-21.23 687.6,-18.33 688.01,-25.32"/>
</g>
<!-- 2 -->
<g id="node3" class="node">
<title>2</title>
<path fill="none" stroke="#56d8d0" stroke-width="2" d="M437.5,-108C437.5,-108 351.5,-108 351.5,-108 345.5,-108 339.5,-102 339.5,-96 339.5,-96 339.5,-84 339.5,-84 339.5,-78 345.5,-72 351.5,-72 351.5,-72 437.5,-72 437.5,-72 443.5,-72 449.5,-78 449.5,-84 449.5,-84 449.5,-96 449.5,-96 449.5,-102 443.5,-108 437.5,-108"/>
<text text-anchor="middle" x="394.5" y="-87.5" font-family="sans" font-size="10.00">get_mut_bind_expr</text>
</g>
<!-- 2&#45;&gt;0 -->
<g id="edge2" class="edge">
<title>2&#45;&gt;0</title>
<path fill="none" stroke="grey" stroke-width="2" d="M449.8,-75.09C454.43,-74.01 459.04,-72.97 463.5,-72 540.88,-55.21 630.89,-38.84 688.01,-28.84"/>
<polygon fill="grey" stroke="grey" stroke-width="2" points="688.69,-32.27 697.94,-27.1 687.48,-25.38 688.69,-32.27"/>
</g>
<!-- 3 -->
<g id="node4" class="node">
<title>3</title>
<path fill="none" stroke="#ced856" stroke-width="2" d="M895,-252C895,-252 774,-252 774,-252 768,-252 762,-246 762,-240 762,-240 762,-228 762,-228 762,-222 768,-216 774,-216 774,-216 895,-216 895,-216 901,-216 907,-222 907,-228 907,-228 907,-240 907,-240 907,-246 901,-252 895,-252"/>
<text text-anchor="middle" x="834.5" y="-231.5" font-family="sans" font-size="10.00">get_mut_antibody_escape</text>
</g>
<!-- 3&#45;&gt;0 -->
<g id="edge3" class="edge">
<title>3&#45;&gt;0</title>
<path fill="none" stroke="grey" stroke-width="2" d="M853.97,-215.92C863.32,-206.4 873.55,-193.72 878.5,-180 883.93,-164.95 883.14,-159.31 878.5,-144 867.36,-107.19 858.11,-98.78 830.5,-72 818.3,-60.17 803.03,-49.65 788.81,-41.16"/>
<polygon fill="grey" stroke="grey" stroke-width="2" points="790.54,-38.12 780.13,-36.14 787.04,-44.18 790.54,-38.12"/>
</g>
<!-- 19 -->
<g id="node20" class="node">
<title>19</title>
<path fill="none" stroke="#d85656" stroke-width="2" d="M857.5,-180C857.5,-180 791.5,-180 791.5,-180 785.5,-180 779.5,-174 779.5,-168 779.5,-168 779.5,-156 779.5,-156 779.5,-150 785.5,-144 791.5,-144 791.5,-144 857.5,-144 857.5,-144 863.5,-144 869.5,-150 869.5,-156 869.5,-156 869.5,-168 869.5,-168 869.5,-174 863.5,-180 857.5,-180"/>
<text text-anchor="middle" x="824.5" y="-159.5" font-family="sans" font-size="10.00">epistatic_shifts</text>
</g>
<!-- 3&#45;&gt;19 -->
<g id="edge52" class="edge">
<title>3&#45;&gt;19</title>
<path fill="none" stroke="grey" stroke-width="2" d="M832.03,-215.7C830.93,-207.98 829.6,-198.71 828.37,-190.11"/>
<polygon fill="grey" stroke="grey" stroke-width="2" points="831.82,-189.51 826.94,-180.1 824.89,-190.5 831.82,-189.51"/>
</g>
<!-- 4 -->
<g id="node5" class="node">
<title>4</title>
<path fill="none" stroke="#88d856" stroke-width="2" d="M753.5,-468C753.5,-468 633.5,-468 633.5,-468 627.5,-468 621.5,-462 621.5,-456 621.5,-456 621.5,-444 621.5,-444 621.5,-438 627.5,-432 633.5,-432 633.5,-432 753.5,-432 753.5,-432 759.5,-432 765.5,-438 765.5,-444 765.5,-444 765.5,-456 765.5,-456 765.5,-462 759.5,-468 753.5,-468"/>
<text text-anchor="middle" x="693.5" y="-447.5" font-family="sans" font-size="10.00">process_ccs_Wuhan_Hu_1</text>
</g>
<!-- 4&#45;&gt;0 -->
<g id="edge4" class="edge">
<title>4&#45;&gt;0</title>
<path fill="none" stroke="grey" stroke-width="2" d="M621.27,-433.24C558.48,-414.78 477.5,-377.35 477.5,-307 477.5,-307 477.5,-307 477.5,-161 477.5,-66.64 608.83,-34.8 687.62,-24.19"/>
<polygon fill="grey" stroke="grey" stroke-width="2" points="688.42,-27.62 697.9,-22.89 687.53,-20.68 688.42,-27.62"/>
</g>
<!-- 15 -->
<g id="node16" class="node">
<title>15</title>
<path fill="none" stroke="#56d88a" stroke-width="2" d="M851,-396C851,-396 786,-396 786,-396 780,-396 774,-390 774,-384 774,-384 774,-372 774,-372 774,-366 780,-360 786,-360 786,-360 851,-360 851,-360 857,-360 863,-366 863,-372 863,-372 863,-384 863,-384 863,-390 857,-396 851,-396"/>
<text text-anchor="middle" x="818.5" y="-375.5" font-family="sans" font-size="10.00">count_variants</text>
</g>
<!-- 4&#45;&gt;15 -->
<g id="edge38" class="edge">
<title>4&#45;&gt;15</title>
<path fill="none" stroke="grey" stroke-width="2" d="M724.08,-431.88C740.57,-422.64 761.12,-411.13 778.84,-401.21"/>
<polygon fill="grey" stroke="grey" stroke-width="2" points="780.79,-404.13 787.8,-396.19 777.37,-398.02 780.79,-404.13"/>
</g>
<!-- 16 -->
<g id="node17" class="node">
<title>16</title>
<path fill="none" stroke="#56d8a9" stroke-width="2" d="M727.5,-324C727.5,-324 675.5,-324 675.5,-324 669.5,-324 663.5,-318 663.5,-312 663.5,-312 663.5,-300 663.5,-300 663.5,-294 669.5,-288 675.5,-288 675.5,-288 727.5,-288 727.5,-288 733.5,-288 739.5,-294 739.5,-300 739.5,-300 739.5,-312 739.5,-312 739.5,-318 733.5,-324 727.5,-324"/>
<text text-anchor="middle" x="701.5" y="-303.5" font-family="sans" font-size="10.00">fit_titrations</text>
</g>
<!-- 4&#45;&gt;16 -->
<g id="edge41" class="edge">
<title>4&#45;&gt;16</title>
<path fill="none" stroke="grey" stroke-width="2" d="M692.74,-431.91C692.12,-413.97 691.63,-384.96 693.5,-360 694.14,-351.52 695.34,-342.34 696.62,-334.04"/>
<polygon fill="grey" stroke="grey" stroke-width="2" points="700.08,-334.55 698.25,-324.11 693.18,-333.41 700.08,-334.55"/>
</g>
<!-- 17 -->
<g id="node18" class="node">
<title>17</title>
<path fill="none" stroke="#d89c56" stroke-width="2" d="M971,-324C971,-324 876,-324 876,-324 870,-324 864,-318 864,-312 864,-312 864,-300 864,-300 864,-294 870,-288 876,-288 876,-288 971,-288 971,-288 977,-288 983,-294 983,-300 983,-300 983,-312 983,-312 983,-318 977,-324 971,-324"/>
<text text-anchor="middle" x="923.5" y="-303.5" font-family="sans" font-size="10.00">calculate_expression</text>
</g>
<!-- 4&#45;&gt;17 -->
<g id="edge45" class="edge">
<title>4&#45;&gt;17</title>
<path fill="none" stroke="grey" stroke-width="2" d="M703.24,-431.79C715.37,-411.81 737.91,-379.16 765.5,-360 791.87,-341.69 825.06,-329.29 854.21,-321.12"/>
<polygon fill="grey" stroke="grey" stroke-width="2" points="855.17,-324.49 863.92,-318.51 853.35,-317.73 855.17,-324.49"/>
</g>
<!-- 5 -->
<g id="node6" class="node">
<title>5</title>
<path fill="none" stroke="#567bd8" stroke-width="2" d="M1240,-540C1240,-540 1041,-540 1041,-540 1035,-540 1029,-534 1029,-528 1029,-528 1029,-516 1029,-516 1029,-510 1035,-504 1041,-504 1041,-504 1240,-504 1240,-504 1246,-504 1252,-510 1252,-516 1252,-516 1252,-528 1252,-528 1252,-534 1246,-540 1240,-540"/>
<text text-anchor="middle" x="1140.5" y="-525" font-family="sans" font-size="10.00">get_ccs</text>
<text text-anchor="middle" x="1140.5" y="-514" font-family="sans" font-size="10.00">pacbioRun: pool1_Wuhan_Hu_1_210701_A</text>
</g>
<!-- 5&#45;&gt;4 -->
<g id="edge14" class="edge">
<title>5&#45;&gt;4</title>
<path fill="none" stroke="grey" stroke-width="2" d="M1028.58,-504.97C936.1,-491.7 814.86,-474.23 775.81,-468.06"/>
<polygon fill="grey" stroke="grey" stroke-width="2" points="776.32,-464.6 765.88,-466.43 775.18,-471.51 776.32,-464.6"/>
</g>
<!-- 13 -->
<g id="node14" class="node">
<title>13</title>
<path fill="none" stroke="#d87556" stroke-width="2" d="M871.5,-468C871.5,-468 795.5,-468 795.5,-468 789.5,-468 783.5,-462 783.5,-456 783.5,-456 783.5,-444 783.5,-444 783.5,-438 789.5,-432 795.5,-432 795.5,-432 871.5,-432 871.5,-432 877.5,-432 883.5,-438 883.5,-444 883.5,-444 883.5,-456 883.5,-456 883.5,-462 877.5,-468 871.5,-468"/>
<text text-anchor="middle" x="833.5" y="-447.5" font-family="sans" font-size="10.00">process_ccs_BA1</text>
</g>
<!-- 5&#45;&gt;13 -->
<g id="edge22" class="edge">
<title>5&#45;&gt;13</title>
<path fill="none" stroke="grey" stroke-width="2" d="M1053.5,-503.96C1008.3,-494.74 951.98,-482.68 893.44,-468.16"/>
<polygon fill="grey" stroke="grey" stroke-width="2" points="894.2,-464.74 883.65,-465.71 892.5,-471.53 894.2,-464.74"/>
</g>
<!-- 14 -->
<g id="node15" class="node">
<title>14</title>
<path fill="none" stroke="#d8bc56" stroke-width="2" d="M989.5,-468C989.5,-468 913.5,-468 913.5,-468 907.5,-468 901.5,-462 901.5,-456 901.5,-456 901.5,-444 901.5,-444 901.5,-438 907.5,-432 913.5,-432 913.5,-432 989.5,-432 989.5,-432 995.5,-432 1001.5,-438 1001.5,-444 1001.5,-444 1001.5,-456 1001.5,-456 1001.5,-462 995.5,-468 989.5,-468"/>
<text text-anchor="middle" x="951.5" y="-447.5" font-family="sans" font-size="10.00">process_ccs_BA2</text>
</g>
<!-- 5&#45;&gt;14 -->
<g id="edge30" class="edge">
<title>5&#45;&gt;14</title>
<path fill="none" stroke="grey" stroke-width="2" d="M1094.27,-503.88C1067.97,-494.14 1034.86,-481.87 1007.14,-471.61"/>
<polygon fill="grey" stroke="grey" stroke-width="2" points="1008.18,-468.26 997.58,-468.07 1005.75,-474.82 1008.18,-468.26"/>
</g>
<!-- 6 -->
<g id="node7" class="node">
<title>6</title>
<path fill="none" stroke="#567bd8" stroke-width="2" d="M1481,-540C1481,-540 1282,-540 1282,-540 1276,-540 1270,-534 1270,-528 1270,-528 1270,-516 1270,-516 1270,-510 1276,-504 1282,-504 1282,-504 1481,-504 1481,-504 1487,-504 1493,-510 1493,-516 1493,-516 1493,-528 1493,-528 1493,-534 1487,-540 1481,-540"/>
<text text-anchor="middle" x="1381.5" y="-525" font-family="sans" font-size="10.00">get_ccs</text>
<text text-anchor="middle" x="1381.5" y="-514" font-family="sans" font-size="10.00">pacbioRun: pool2_Wuhan_Hu_1_210701_A</text>
</g>
<!-- 6&#45;&gt;4 -->
<g id="edge15" class="edge">
<title>6&#45;&gt;4</title>
<path fill="none" stroke="grey" stroke-width="2" d="M1269.75,-504.92C1266.97,-504.6 1264.22,-504.29 1261.5,-504 1048.98,-481.12 991.14,-497.83 775.88,-468.09"/>
<polygon fill="grey" stroke="grey" stroke-width="2" points="776.23,-464.6 765.84,-466.68 775.26,-471.53 776.23,-464.6"/>
</g>
<!-- 6&#45;&gt;13 -->
<g id="edge23" class="edge">
<title>6&#45;&gt;13</title>
<path fill="none" stroke="grey" stroke-width="2" d="M1269.74,-505C1266.97,-504.66 1264.22,-504.32 1261.5,-504 1101.08,-484.82 1056.09,-498.39 893.42,-467.97"/>
<polygon fill="grey" stroke="grey" stroke-width="2" points="894.04,-464.53 883.56,-466.1 892.73,-471.4 894.04,-464.53"/>
</g>
<!-- 6&#45;&gt;14 -->
<g id="edge31" class="edge">
<title>6&#45;&gt;14</title>
<path fill="none" stroke="grey" stroke-width="2" d="M1276.86,-503.97C1193.75,-490.44 1080.44,-471.99 1011.82,-460.82"/>
<polygon fill="grey" stroke="grey" stroke-width="2" points="1012.04,-457.31 1001.61,-459.16 1010.92,-464.22 1012.04,-457.31"/>
</g>
<!-- 7 -->
<g id="node8" class="node">
<title>7</title>
<path fill="none" stroke="#567bd8" stroke-width="2" d="M1722,-540C1722,-540 1523,-540 1523,-540 1517,-540 1511,-534 1511,-528 1511,-528 1511,-516 1511,-516 1511,-510 1517,-504 1523,-504 1523,-504 1722,-504 1722,-504 1728,-504 1734,-510 1734,-516 1734,-516 1734,-528 1734,-528 1734,-534 1728,-540 1722,-540"/>
<text text-anchor="middle" x="1622.5" y="-525" font-family="sans" font-size="10.00">get_ccs</text>
<text text-anchor="middle" x="1622.5" y="-514" font-family="sans" font-size="10.00">pacbioRun: pool1_Wuhan_Hu_1_211118_A</text>
</g>
<!-- 7&#45;&gt;4 -->
<g id="edge16" class="edge">
<title>7&#45;&gt;4</title>
<path fill="none" stroke="grey" stroke-width="2" d="M1510.76,-504.83C1507.98,-504.54 1505.22,-504.26 1502.5,-504 1183.32,-473.56 1097.55,-508.66 775.9,-468.06"/>
<polygon fill="grey" stroke="grey" stroke-width="2" points="776.19,-464.56 765.83,-466.77 775.3,-471.51 776.19,-464.56"/>
</g>
<!-- 7&#45;&gt;13 -->
<g id="edge24" class="edge">
<title>7&#45;&gt;13</title>
<path fill="none" stroke="grey" stroke-width="2" d="M1510.75,-504.86C1507.98,-504.56 1505.22,-504.27 1502.5,-504 1235.57,-477.26 1161.97,-512.99 893.58,-467.94"/>
<polygon fill="grey" stroke="grey" stroke-width="2" points="893.98,-464.46 883.54,-466.23 892.81,-471.36 893.98,-464.46"/>
</g>
<!-- 7&#45;&gt;14 -->
<g id="edge32" class="edge">
<title>7&#45;&gt;14</title>
<path fill="none" stroke="grey" stroke-width="2" d="M1510.74,-505C1507.97,-504.66 1505.22,-504.32 1502.5,-504 1324.44,-482.83 1113.22,-464.37 1011.78,-455.91"/>
<polygon fill="grey" stroke="grey" stroke-width="2" points="1011.98,-452.41 1001.72,-455.07 1011.4,-459.39 1011.98,-452.41"/>
</g>
<!-- 8 -->
<g id="node9" class="node">
<title>8</title>
<path fill="none" stroke="#567bd8" stroke-width="2" d="M211,-540C211,-540 12,-540 12,-540 6,-540 0,-534 0,-528 0,-528 0,-516 0,-516 0,-510 6,-504 12,-504 12,-504 211,-504 211,-504 217,-504 223,-510 223,-516 223,-516 223,-528 223,-528 223,-534 217,-540 211,-540"/>
<text text-anchor="middle" x="111.5" y="-525" font-family="sans" font-size="10.00">get_ccs</text>
<text text-anchor="middle" x="111.5" y="-514" font-family="sans" font-size="10.00">pacbioRun: pool1_Wuhan_Hu_1_211118_B</text>
</g>
<!-- 8&#45;&gt;4 -->
<g id="edge17" class="edge">
<title>8&#45;&gt;4</title>
<path fill="none" stroke="grey" stroke-width="2" d="M223.27,-505.07C226.04,-504.7 228.79,-504.35 231.5,-504 364.26,-486.98 518.82,-469.78 611.28,-459.77"/>
<polygon fill="grey" stroke="grey" stroke-width="2" points="611.84,-463.23 621.41,-458.67 611.09,-456.27 611.84,-463.23"/>
</g>
<!-- 8&#45;&gt;13 -->
<g id="edge25" class="edge">
<title>8&#45;&gt;13</title>
<path fill="none" stroke="grey" stroke-width="2" d="M223.25,-504.89C226.03,-504.58 228.78,-504.28 231.5,-504 468.78,-479.36 534.47,-508.89 773.42,-467.95"/>
<polygon fill="grey" stroke="grey" stroke-width="2" points="774.21,-471.37 783.46,-466.21 773.01,-464.47 774.21,-471.37"/>
</g>
<!-- 8&#45;&gt;14 -->
<g id="edge33" class="edge">
<title>8&#45;&gt;14</title>
<path fill="none" stroke="grey" stroke-width="2" d="M223.24,-504.85C226.02,-504.55 228.78,-504.27 231.5,-504 521.03,-475.66 600.62,-516.11 891.47,-467.93"/>
<polygon fill="grey" stroke="grey" stroke-width="2" points="892.18,-471.36 901.47,-466.25 891.02,-464.45 892.18,-471.36"/>
</g>
<!-- 9 -->
<g id="node10" class="node">
<title>9</title>
<path fill="none" stroke="#567bd8" stroke-width="2" d="M408,-540C408,-540 253,-540 253,-540 247,-540 241,-534 241,-528 241,-528 241,-516 241,-516 241,-510 247,-504 253,-504 253,-504 408,-504 408,-504 414,-504 420,-510 420,-516 420,-516 420,-528 420,-528 420,-534 414,-540 408,-540"/>
<text text-anchor="middle" x="330.5" y="-525" font-family="sans" font-size="10.00">get_ccs</text>
<text text-anchor="middle" x="330.5" y="-514" font-family="sans" font-size="10.00">pacbioRun: pool1_BA1_220524_A</text>
</g>
<!-- 9&#45;&gt;4 -->
<g id="edge18" class="edge">
<title>9&#45;&gt;4</title>
<path fill="none" stroke="grey" stroke-width="2" d="M418.84,-503.97C477.44,-492.67 553.81,-477.94 611.15,-466.88"/>
<polygon fill="grey" stroke="grey" stroke-width="2" points="612.1,-470.26 621.26,-464.93 610.78,-463.39 612.1,-470.26"/>
</g>
<!-- 9&#45;&gt;13 -->
<g id="edge26" class="edge">
<title>9&#45;&gt;13</title>
<path fill="none" stroke="grey" stroke-width="2" d="M420.18,-505.19C422.99,-504.78 425.76,-504.38 428.5,-504 578.35,-483.23 620.92,-496.9 773.24,-468.04"/>
<polygon fill="grey" stroke="grey" stroke-width="2" points="774.28,-471.41 783.43,-466.08 772.95,-464.53 774.28,-471.41"/>
</g>
<!-- 9&#45;&gt;14 -->
<g id="edge34" class="edge">
<title>9&#45;&gt;14</title>
<path fill="none" stroke="grey" stroke-width="2" d="M420.17,-505.1C422.98,-504.71 425.76,-504.34 428.5,-504 630.53,-478.7 687.2,-504.01 891.61,-467.93"/>
<polygon fill="grey" stroke="grey" stroke-width="2" points="892.23,-471.38 901.45,-466.17 890.99,-464.49 892.23,-471.38"/>
</g>
<!-- 10 -->
<g id="node11" class="node">
<title>10</title>
<path fill="none" stroke="#567bd8" stroke-width="2" d="M605,-540C605,-540 450,-540 450,-540 444,-540 438,-534 438,-528 438,-528 438,-516 438,-516 438,-510 444,-504 450,-504 450,-504 605,-504 605,-504 611,-504 617,-510 617,-516 617,-516 617,-528 617,-528 617,-534 611,-540 605,-540"/>
<text text-anchor="middle" x="527.5" y="-525" font-family="sans" font-size="10.00">get_ccs</text>
<text text-anchor="middle" x="527.5" y="-514" font-family="sans" font-size="10.00">pacbioRun: pool2_BA1_220524_A</text>
</g>
<!-- 10&#45;&gt;4 -->
<g id="edge19" class="edge">
<title>10&#45;&gt;4</title>
<path fill="none" stroke="grey" stroke-width="2" d="M568.11,-503.88C590.9,-494.26 619.53,-482.19 643.67,-472.01"/>
<polygon fill="grey" stroke="grey" stroke-width="2" points="645.17,-475.18 653.02,-468.07 642.45,-468.73 645.17,-475.18"/>
</g>
<!-- 10&#45;&gt;13 -->
<g id="edge27" class="edge">
<title>10&#45;&gt;13</title>
<path fill="none" stroke="grey" stroke-width="2" d="M613.86,-504C658.92,-494.76 715.14,-482.68 773.57,-468.15"/>
<polygon fill="grey" stroke="grey" stroke-width="2" points="774.5,-471.53 783.35,-465.71 772.8,-464.74 774.5,-471.53"/>
</g>
<!-- 10&#45;&gt;14 -->
<g id="edge35" class="edge">
<title>10&#45;&gt;14</title>
<path fill="none" stroke="grey" stroke-width="2" d="M617.2,-505.3C620,-504.86 622.77,-504.42 625.5,-504 740.61,-486.26 773.54,-492.29 891.28,-468.09"/>
<polygon fill="grey" stroke="grey" stroke-width="2" points="892.34,-471.44 901.41,-465.97 890.91,-464.59 892.34,-471.44"/>
</g>
<!-- 11 -->
<g id="node12" class="node">
<title>11</title>
<path fill="none" stroke="#567bd8" stroke-width="2" d="M802,-540C802,-540 647,-540 647,-540 641,-540 635,-534 635,-528 635,-528 635,-516 635,-516 635,-510 641,-504 647,-504 647,-504 802,-504 802,-504 808,-504 814,-510 814,-516 814,-516 814,-528 814,-528 814,-534 808,-540 802,-540"/>
<text text-anchor="middle" x="724.5" y="-525" font-family="sans" font-size="10.00">get_ccs</text>
<text text-anchor="middle" x="724.5" y="-514" font-family="sans" font-size="10.00">pacbioRun: pool1_BA2_220524_B</text>
</g>
<!-- 11&#45;&gt;4 -->
<g id="edge20" class="edge">
<title>11&#45;&gt;4</title>
<path fill="none" stroke="grey" stroke-width="2" d="M716.84,-503.7C713.31,-495.73 709.04,-486.1 705.13,-477.26"/>
<polygon fill="grey" stroke="grey" stroke-width="2" points="708.32,-475.83 701.07,-468.1 701.92,-478.67 708.32,-475.83"/>
</g>
<!-- 11&#45;&gt;13 -->
<g id="edge28" class="edge">
<title>11&#45;&gt;13</title>
<path fill="none" stroke="grey" stroke-width="2" d="M751.16,-503.88C765.28,-494.81 782.81,-483.55 798.06,-473.76"/>
<polygon fill="grey" stroke="grey" stroke-width="2" points="800.21,-476.54 806.73,-468.19 796.43,-470.65 800.21,-476.54"/>
</g>
<!-- 11&#45;&gt;14 -->
<g id="edge36" class="edge">
<title>11&#45;&gt;14</title>
<path fill="none" stroke="grey" stroke-width="2" d="M779.74,-503.97C813.54,-493.54 856.8,-480.2 891.45,-469.52"/>
<polygon fill="grey" stroke="grey" stroke-width="2" points="892.92,-472.73 901.45,-466.44 890.86,-466.04 892.92,-472.73"/>
</g>
<!-- 12 -->
<g id="node13" class="node">
<title>12</title>
<path fill="none" stroke="#567bd8" stroke-width="2" d="M999,-540C999,-540 844,-540 844,-540 838,-540 832,-534 832,-528 832,-528 832,-516 832,-516 832,-510 838,-504 844,-504 844,-504 999,-504 999,-504 1005,-504 1011,-510 1011,-516 1011,-516 1011,-528 1011,-528 1011,-534 1005,-540 999,-540"/>
<text text-anchor="middle" x="921.5" y="-525" font-family="sans" font-size="10.00">get_ccs</text>
<text text-anchor="middle" x="921.5" y="-514" font-family="sans" font-size="10.00">pacbioRun: pool2_BA2_220524_B</text>
</g>
<!-- 12&#45;&gt;4 -->
<g id="edge21" class="edge">
<title>12&#45;&gt;4</title>
<path fill="none" stroke="grey" stroke-width="2" d="M866.02,-503.97C833.74,-494.06 792.89,-481.51 759.04,-471.12"/>
<polygon fill="grey" stroke="grey" stroke-width="2" points="759.82,-467.7 749.23,-468.11 757.76,-474.39 759.82,-467.7"/>
</g>
<!-- 12&#45;&gt;13 -->
<g id="edge29" class="edge">
<title>12&#45;&gt;13</title>
<path fill="none" stroke="grey" stroke-width="2" d="M899.75,-503.7C888.66,-494.88 875.03,-484.03 863.01,-474.47"/>
<polygon fill="grey" stroke="grey" stroke-width="2" points="865.01,-471.59 855,-468.1 860.65,-477.07 865.01,-471.59"/>
</g>
<!-- 12&#45;&gt;14 -->
<g id="edge37" class="edge">
<title>12&#45;&gt;14</title>
<path fill="none" stroke="grey" stroke-width="2" d="M928.92,-503.7C932.29,-495.81 936.37,-486.3 940.12,-477.55"/>
<polygon fill="grey" stroke="grey" stroke-width="2" points="943.45,-478.67 944.17,-468.1 937.01,-475.92 943.45,-478.67"/>
</g>
<!-- 13&#45;&gt;0 -->
<g id="edge5" class="edge">
<title>13&#45;&gt;0</title>
<path fill="none" stroke="grey" stroke-width="2" d="M883.56,-433.2C936.2,-413.09 1011.5,-372.82 1011.5,-307 1011.5,-307 1011.5,-307 1011.5,-161 1011.5,-117.99 1006.46,-99.64 973.5,-72 948,-50.62 861.81,-34.9 803.02,-26.35"/>
<polygon fill="grey" stroke="grey" stroke-width="2" points="803.51,-22.89 793.11,-24.94 802.52,-29.82 803.51,-22.89"/>
</g>
<!-- 13&#45;&gt;15 -->
<g id="edge39" class="edge">
<title>13&#45;&gt;15</title>
<path fill="none" stroke="grey" stroke-width="2" d="M829.79,-431.7C828.14,-423.98 826.15,-414.71 824.31,-406.11"/>
<polygon fill="grey" stroke="grey" stroke-width="2" points="827.68,-405.15 822.17,-396.1 820.84,-406.62 827.68,-405.15"/>
</g>
<!-- 13&#45;&gt;16 -->
<g id="edge42" class="edge">
<title>13&#45;&gt;16</title>
<path fill="none" stroke="grey" stroke-width="2" d="M808.17,-431.93C794.72,-422.23 778.37,-409.38 765.5,-396 746.79,-376.55 729.17,-351.34 717.18,-332.72"/>
<polygon fill="grey" stroke="grey" stroke-width="2" points="720.06,-330.74 711.76,-324.16 714.15,-334.49 720.06,-330.74"/>
</g>
<!-- 13&#45;&gt;17 -->
<g id="edge46" class="edge">
<title>13&#45;&gt;17</title>
<path fill="none" stroke="grey" stroke-width="2" d="M847.01,-431.69C854.77,-421.5 864.52,-408.25 872.5,-396 885.87,-375.48 899.59,-351.32 909.43,-333.35"/>
<polygon fill="grey" stroke="grey" stroke-width="2" points="912.78,-334.53 914.47,-324.07 906.62,-331.19 912.78,-334.53"/>
</g>
<!-- 14&#45;&gt;0 -->
<g id="edge6" class="edge">
<title>14&#45;&gt;0</title>
<path fill="none" stroke="grey" stroke-width="2" d="M973.74,-431.92C1002.65,-407.6 1049.5,-360.02 1049.5,-307 1049.5,-307 1049.5,-307 1049.5,-161 1049.5,-116.06 1037.54,-98.84 1001.5,-72 970.71,-49.06 868.79,-33.29 803.22,-25.24"/>
<polygon fill="grey" stroke="grey" stroke-width="2" points="803.37,-21.73 793.02,-24.01 802.53,-28.68 803.37,-21.73"/>
</g>
<!-- 14&#45;&gt;15 -->
<g id="edge40" class="edge">
<title>14&#45;&gt;15</title>
<path fill="none" stroke="grey" stroke-width="2" d="M918.96,-431.88C901.25,-422.55 879.15,-410.92 860.18,-400.94"/>
<polygon fill="grey" stroke="grey" stroke-width="2" points="861.64,-397.75 851.16,-396.19 858.38,-403.94 861.64,-397.75"/>
</g>
<!-- 14&#45;&gt;16 -->
<g id="edge43" class="edge">
<title>14&#45;&gt;16</title>
<path fill="none" stroke="grey" stroke-width="2" d="M940.5,-431.71C926.87,-411.65 901.84,-378.92 872.5,-360 835.05,-335.86 785.93,-322.13 749.94,-314.73"/>
<polygon fill="grey" stroke="grey" stroke-width="2" points="750.18,-311.21 739.69,-312.72 748.83,-318.08 750.18,-311.21"/>
</g>
<!-- 14&#45;&gt;17 -->
<g id="edge47" class="edge">
<title>14&#45;&gt;17</title>
<path fill="none" stroke="grey" stroke-width="2" d="M951.33,-431.72C950.83,-413.63 949.11,-384.5 943.5,-360 941.5,-351.28 938.4,-342.06 935.22,-333.8"/>
<polygon fill="grey" stroke="grey" stroke-width="2" points="938.38,-332.26 931.39,-324.3 931.89,-334.88 938.38,-332.26"/>
</g>
<!-- 15&#45;&gt;0 -->
<g id="edge7" class="edge">
<title>15&#45;&gt;0</title>
<path fill="none" stroke="grey" stroke-width="2" d="M822.16,-359.85C827,-340.54 837.16,-309.09 855.5,-288 876.16,-264.25 900.89,-279.34 916.5,-252 924.43,-238.11 918.96,-231.81 916.5,-216 905.93,-148.15 909.01,-120.61 860.5,-72 844.55,-56.01 822.88,-44.32 802.65,-36.05"/>
<polygon fill="grey" stroke="grey" stroke-width="2" points="803.77,-32.73 793.18,-32.38 801.24,-39.26 803.77,-32.73"/>
</g>
<!-- 15&#45;&gt;16 -->
<g id="edge44" class="edge">
<title>15&#45;&gt;16</title>
<path fill="none" stroke="grey" stroke-width="2" d="M789.88,-359.88C774.58,-350.72 755.56,-339.34 739.08,-329.48"/>
<polygon fill="grey" stroke="grey" stroke-width="2" points="740.61,-326.32 730.23,-324.19 737.02,-332.33 740.61,-326.32"/>
</g>
<!-- 15&#45;&gt;17 -->
<g id="edge48" class="edge">
<title>15&#45;&gt;17</title>
<path fill="none" stroke="grey" stroke-width="2" d="M844.19,-359.88C857.79,-350.81 874.67,-339.55 889.36,-329.76"/>
<polygon fill="grey" stroke="grey" stroke-width="2" points="891.34,-332.65 897.72,-324.19 887.45,-326.82 891.34,-332.65"/>
</g>
<!-- 16&#45;&gt;0 -->
<g id="edge8" class="edge">
<title>16&#45;&gt;0</title>
<path fill="none" stroke="grey" stroke-width="2" d="M681.56,-288C669.57,-277.69 654.05,-264.21 640.5,-252 605.7,-220.63 582.15,-222.98 563.5,-180 557.13,-165.32 560.36,-159.69 563.5,-144 570.3,-110.01 568.27,-95.78 593.5,-72 619.19,-47.79 656.54,-34.56 687.79,-27.38"/>
<polygon fill="grey" stroke="grey" stroke-width="2" points="688.65,-30.78 697.7,-25.26 687.18,-23.93 688.65,-30.78"/>
</g>
<!-- 18 -->
<g id="node19" class="node">
<title>18</title>
<path fill="none" stroke="#afd856" stroke-width="2" d="M731.5,-252C731.5,-252 661.5,-252 661.5,-252 655.5,-252 649.5,-246 649.5,-240 649.5,-240 649.5,-228 649.5,-228 649.5,-222 655.5,-216 661.5,-216 661.5,-216 731.5,-216 731.5,-216 737.5,-216 743.5,-222 743.5,-228 743.5,-228 743.5,-240 743.5,-240 743.5,-246 737.5,-252 731.5,-252"/>
<text text-anchor="middle" x="696.5" y="-231.5" font-family="sans" font-size="10.00">collapse_scores</text>
</g>
<!-- 16&#45;&gt;18 -->
<g id="edge49" class="edge">
<title>16&#45;&gt;18</title>
<path fill="none" stroke="grey" stroke-width="2" d="M700.26,-287.7C699.71,-279.98 699.05,-270.71 698.44,-262.11"/>
<polygon fill="grey" stroke="grey" stroke-width="2" points="701.93,-261.83 697.72,-252.1 694.94,-262.33 701.93,-261.83"/>
</g>
<!-- 17&#45;&gt;0 -->
<g id="edge9" class="edge">
<title>17&#45;&gt;0</title>
<path fill="none" stroke="grey" stroke-width="2" d="M934.55,-287.61C940.24,-277.62 946.58,-264.58 949.5,-252 967.59,-174.07 998.44,-135.28 949.5,-72 931.68,-48.95 857.1,-34.07 803.26,-26.11"/>
<polygon fill="grey" stroke="grey" stroke-width="2" points="803.53,-22.62 793.13,-24.66 802.54,-29.55 803.53,-22.62"/>
</g>
<!-- 17&#45;&gt;18 -->
<g id="edge50" class="edge">
<title>17&#45;&gt;18</title>
<path fill="none" stroke="grey" stroke-width="2" d="M868.26,-287.97C833.35,-277.2 788.36,-263.33 753.18,-252.48"/>
<polygon fill="grey" stroke="grey" stroke-width="2" points="754.12,-249.11 743.53,-249.5 752.06,-255.79 754.12,-249.11"/>
</g>
<!-- 18&#45;&gt;0 -->
<g id="edge10" class="edge">
<title>18&#45;&gt;0</title>
<path fill="none" stroke="grey" stroke-width="2" d="M649.39,-225.9C621.96,-219.08 589.52,-205.79 572.5,-180 563.69,-166.65 565.69,-158.48 572.5,-144 595.89,-94.28 650.23,-60.22 691.81,-40.36"/>
<polygon fill="grey" stroke="grey" stroke-width="2" points="693.41,-43.48 701.01,-36.1 690.47,-37.13 693.41,-43.48"/>
</g>
<!-- 18&#45;&gt;19 -->
<g id="edge51" class="edge">
<title>18&#45;&gt;19</title>
<path fill="none" stroke="grey" stroke-width="2" d="M727.81,-215.88C744.7,-206.64 765.75,-195.13 783.88,-185.21"/>
<polygon fill="grey" stroke="grey" stroke-width="2" points="785.97,-188.06 793.07,-180.19 782.61,-181.92 785.97,-188.06"/>
</g>
<!-- 20 -->
<g id="node21" class="node">
<title>20</title>
<path fill="none" stroke="#56d86b" stroke-width="2" d="M790,-108C790,-108 701,-108 701,-108 695,-108 689,-102 689,-96 689,-96 689,-84 689,-84 689,-78 695,-72 701,-72 701,-72 790,-72 790,-72 796,-72 802,-78 802,-84 802,-84 802,-96 802,-96 802,-102 796,-108 790,-108"/>
<text text-anchor="middle" x="745.5" y="-87.5" font-family="sans" font-size="10.00">interactive_jsd_plot</text>
</g>
<!-- 18&#45;&gt;20 -->
<g id="edge53" class="edge">
<title>18&#45;&gt;20</title>
<path fill="none" stroke="grey" stroke-width="2" d="M710.99,-215.98C718.62,-206.11 727.42,-193.06 732.5,-180 740.17,-160.26 743.37,-136.46 744.67,-118.44"/>
<polygon fill="grey" stroke="grey" stroke-width="2" points="748.17,-118.49 745.25,-108.31 741.18,-118.09 748.17,-118.49"/>
</g>
<!-- 21 -->
<g id="node22" class="node">
<title>21</title>
<path fill="none" stroke="#68d856" stroke-width="2" d="M711.5,-180C711.5,-180 593.5,-180 593.5,-180 587.5,-180 581.5,-174 581.5,-168 581.5,-168 581.5,-156 581.5,-156 581.5,-150 587.5,-144 593.5,-144 593.5,-144 711.5,-144 711.5,-144 717.5,-144 723.5,-150 723.5,-156 723.5,-156 723.5,-168 723.5,-168 723.5,-174 717.5,-180 711.5,-180"/>
<text text-anchor="middle" x="652.5" y="-159.5" font-family="sans" font-size="10.00">interactive_heatmap_plot</text>
</g>
<!-- 18&#45;&gt;21 -->
<g id="edge55" class="edge">
<title>18&#45;&gt;21</title>
<path fill="none" stroke="grey" stroke-width="2" d="M685.62,-215.7C680.51,-207.56 674.3,-197.69 668.66,-188.7"/>
<polygon fill="grey" stroke="grey" stroke-width="2" points="671.54,-186.71 663.25,-180.1 665.61,-190.43 671.54,-186.71"/>
</g>
<!-- 19&#45;&gt;0 -->
<g id="edge11" class="edge">
<title>19&#45;&gt;0</title>
<path fill="none" stroke="grey" stroke-width="2" d="M825.59,-143.74C826,-124.87 824.29,-94.36 811.5,-72 804.88,-60.43 794.66,-50.4 784.22,-42.27"/>
<polygon fill="grey" stroke="grey" stroke-width="2" points="786.01,-39.25 775.87,-36.17 781.88,-44.9 786.01,-39.25"/>
</g>
<!-- 19&#45;&gt;20 -->
<g id="edge54" class="edge">
<title>19&#45;&gt;20</title>
<path fill="none" stroke="grey" stroke-width="2" d="M804.97,-143.7C795.12,-134.97 783.01,-124.24 772.3,-114.75"/>
<polygon fill="grey" stroke="grey" stroke-width="2" points="774.61,-112.12 764.8,-108.1 769.97,-117.36 774.61,-112.12"/>
</g>
<!-- 20&#45;&gt;0 -->
<g id="edge12" class="edge">
<title>20&#45;&gt;0</title>
<path fill="none" stroke="grey" stroke-width="2" d="M745.5,-71.7C745.5,-63.98 745.5,-54.71 745.5,-46.11"/>
<polygon fill="grey" stroke="grey" stroke-width="2" points="749,-46.1 745.5,-36.1 742,-46.1 749,-46.1"/>
</g>
<!-- 21&#45;&gt;0 -->
<g id="edge13" class="edge">
<title>21&#45;&gt;0</title>
<path fill="none" stroke="grey" stroke-width="2" d="M654.6,-143.97C657.59,-125.04 664.49,-94.21 679.5,-72 687.24,-60.55 698.2,-50.36 708.96,-42.05"/>
<polygon fill="grey" stroke="grey" stroke-width="2" points="711.12,-44.81 717.11,-36.07 706.97,-39.17 711.12,-44.81"/>
</g>
</g>
</svg>
