<?xml version="1.0" encoding="UTF-8" standalone="no"?>
<!DOCTYPE svg PUBLIC "-//W3C//DTD SVG 1.1//EN"
 "http://www.w3.org/Graphics/SVG/1.1/DTD/svg11.dtd">
<!-- Generated by graphviz version 2.50.0 (20211209.0339)
 -->
<!-- Title: snakemake_dag Pages: 1 -->
<svg width="1779pt" height="548pt"
 viewBox="0.00 0.00 1779.00 548.00" xmlns="http://www.w3.org/2000/svg" xmlns:xlink="http://www.w3.org/1999/xlink">
<g id="graph0" class="graph" transform="scale(1 1) rotate(0) translate(4 544)">
<title>snakemake_dag</title>
<polygon fill="white" stroke="transparent" points="-4,4 -4,-544 1775,-544 1775,4 -4,4"/>
<!-- 0 -->
<g id="node1" class="node">
<title>0</title>
<path fill="none" stroke="#56d0d8" stroke-width="2" d="M725,-36C725,-36 654,-36 654,-36 648,-36 642,-30 642,-24 642,-24 642,-12 642,-12 642,-6 648,0 654,0 654,0 725,0 725,0 731,0 737,-6 737,-12 737,-12 737,-24 737,-24 737,-30 731,-36 725,-36"/>
<text text-anchor="middle" x="689.5" y="-15.5" font-family="sans" font-size="10.00">make_summary</text>
</g>
<!-- 1 -->
<g id="node2" class="node">
<title>1</title>
<path fill="none" stroke="#5673d8" stroke-width="2" d="M55,-108C55,-108 12,-108 12,-108 6,-108 0,-102 0,-96 0,-96 0,-84 0,-84 0,-78 6,-72 12,-72 12,-72 55,-72 55,-72 61,-72 67,-78 67,-84 67,-84 67,-96 67,-96 67,-102 61,-108 55,-108"/>
<text text-anchor="middle" x="33.5" y="-87.5" font-family="sans" font-size="10.00">make_dag</text>
</g>
<!-- 1&#45;&gt;0 -->
<g id="edge1" class="edge">
<title>1&#45;&gt;0</title>
<path fill="none" stroke="grey" stroke-width="2" d="M67,-74.69C70.18,-73.66 73.37,-72.74 76.5,-72 276.44,-24.9 521.89,-18.65 631.66,-18.46"/>
<polygon fill="grey" stroke="grey" stroke-width="2" points="631.85,-21.96 641.85,-18.46 631.85,-14.96 631.85,-21.96"/>
</g>
<!-- 2 -->
<g id="node3" class="node">
<title>2</title>
<path fill="none" stroke="#9fd856" stroke-width="2" d="M183.5,-108C183.5,-108 97.5,-108 97.5,-108 91.5,-108 85.5,-102 85.5,-96 85.5,-96 85.5,-84 85.5,-84 85.5,-78 91.5,-72 97.5,-72 97.5,-72 183.5,-72 183.5,-72 189.5,-72 195.5,-78 195.5,-84 195.5,-84 195.5,-96 195.5,-96 195.5,-102 189.5,-108 183.5,-108"/>
<text text-anchor="middle" x="140.5" y="-87.5" font-family="sans" font-size="10.00">get_mut_bind_expr</text>
</g>
<!-- 2&#45;&gt;0 -->
<g id="edge2" class="edge">
<title>2&#45;&gt;0</title>
<path fill="none" stroke="grey" stroke-width="2" d="M195.54,-73.82C198.56,-73.16 201.56,-72.55 204.5,-72 357.44,-43.5 540.58,-28.61 631.86,-22.48"/>
<polygon fill="grey" stroke="grey" stroke-width="2" points="632.25,-25.96 641.99,-21.81 631.78,-18.97 632.25,-25.96"/>
</g>
<!-- 3 -->
<g id="node4" class="node">
<title>3</title>
<path fill="none" stroke="#d8b456" stroke-width="2" d="M339,-108C339,-108 226,-108 226,-108 220,-108 214,-102 214,-96 214,-96 214,-84 214,-84 214,-78 220,-72 226,-72 226,-72 339,-72 339,-72 345,-72 351,-78 351,-84 351,-84 351,-96 351,-96 351,-102 345,-108 339,-108"/>
<text text-anchor="middle" x="282.5" y="-87.5" font-family="sans" font-size="10.00">get_VOC_mut_bind_expr</text>
</g>
<!-- 3&#45;&gt;0 -->
<g id="edge3" class="edge">
<title>3&#45;&gt;0</title>
<path fill="none" stroke="grey" stroke-width="2" d="M351.3,-74.69C356.1,-73.76 360.87,-72.85 365.5,-72 458.48,-54.88 567,-37.69 631.88,-27.72"/>
<polygon fill="grey" stroke="grey" stroke-width="2" points="632.55,-31.15 641.91,-26.18 631.49,-24.23 632.55,-31.15"/>
</g>
<!-- 4 -->
<g id="node5" class="node">
<title>4</title>
<path fill="none" stroke="#56d8a2" stroke-width="2" d="M932,-252C932,-252 811,-252 811,-252 805,-252 799,-246 799,-240 799,-240 799,-228 799,-228 799,-222 805,-216 811,-216 811,-216 932,-216 932,-216 938,-216 944,-222 944,-228 944,-228 944,-240 944,-240 944,-246 938,-252 932,-252"/>
<text text-anchor="middle" x="871.5" y="-231.5" font-family="sans" font-size="10.00">get_mut_antibody_escape</text>
</g>
<!-- 4&#45;&gt;0 -->
<g id="edge4" class="edge">
<title>4&#45;&gt;0</title>
<path fill="none" stroke="grey" stroke-width="2" d="M890.97,-215.92C900.32,-206.4 910.55,-193.72 915.5,-180 933.52,-130.07 907.57,-103.03 864.5,-72 829.89,-47.07 783.4,-33.71 747.04,-26.64"/>
<polygon fill="grey" stroke="grey" stroke-width="2" points="747.54,-23.17 737.07,-24.81 746.27,-30.06 747.54,-23.17"/>
</g>
<!-- 21 -->
<g id="node22" class="node">
<title>21</title>
<path fill="none" stroke="#d87556" stroke-width="2" d="M894.5,-180C894.5,-180 828.5,-180 828.5,-180 822.5,-180 816.5,-174 816.5,-168 816.5,-168 816.5,-156 816.5,-156 816.5,-150 822.5,-144 828.5,-144 828.5,-144 894.5,-144 894.5,-144 900.5,-144 906.5,-150 906.5,-156 906.5,-156 906.5,-168 906.5,-168 906.5,-174 900.5,-180 894.5,-180"/>
<text text-anchor="middle" x="861.5" y="-159.5" font-family="sans" font-size="10.00">epistatic_shifts</text>
</g>
<!-- 4&#45;&gt;21 -->
<g id="edge54" class="edge">
<title>4&#45;&gt;21</title>
<path fill="none" stroke="grey" stroke-width="2" d="M869.03,-215.7C867.93,-207.98 866.6,-198.71 865.37,-190.11"/>
<polygon fill="grey" stroke="grey" stroke-width="2" points="868.82,-189.51 863.94,-180.1 861.89,-190.5 868.82,-189.51"/>
</g>
<!-- 5 -->
<g id="node6" class="node">
<title>5</title>
<path fill="none" stroke="#d89556" stroke-width="2" d="M543,-108C543,-108 420,-108 420,-108 414,-108 408,-102 408,-96 408,-96 408,-84 408,-84 408,-78 414,-72 420,-72 420,-72 543,-72 543,-72 549,-72 555,-78 555,-84 555,-84 555,-96 555,-96 555,-102 549,-108 543,-108"/>
<text text-anchor="middle" x="481.5" y="-87.5" font-family="sans" font-size="10.00">get_mut_clade_occurrence</text>
</g>
<!-- 5&#45;&gt;0 -->
<g id="edge5" class="edge">
<title>5&#45;&gt;0</title>
<path fill="none" stroke="grey" stroke-width="2" d="M532.12,-71.97C562.41,-61.77 601,-48.78 632.38,-38.22"/>
<polygon fill="grey" stroke="grey" stroke-width="2" points="633.51,-41.53 641.88,-35.03 631.28,-34.9 633.51,-41.53"/>
</g>
<!-- 6 -->
<g id="node7" class="node">
<title>6</title>
<path fill="none" stroke="#56b1d8" stroke-width="2" d="M790.5,-468C790.5,-468 670.5,-468 670.5,-468 664.5,-468 658.5,-462 658.5,-456 658.5,-456 658.5,-444 658.5,-444 658.5,-438 664.5,-432 670.5,-432 670.5,-432 790.5,-432 790.5,-432 796.5,-432 802.5,-438 802.5,-444 802.5,-444 802.5,-456 802.5,-456 802.5,-462 796.5,-468 790.5,-468"/>
<text text-anchor="middle" x="730.5" y="-447.5" font-family="sans" font-size="10.00">process_ccs_Wuhan_Hu_1</text>
</g>
<!-- 6&#45;&gt;0 -->
<g id="edge6" class="edge">
<title>6&#45;&gt;0</title>
<path fill="none" stroke="grey" stroke-width="2" d="M658.2,-434.99C555.45,-412.97 379.5,-366.57 379.5,-307 379.5,-307 379.5,-307 379.5,-161 379.5,-120.55 369.47,-100.17 398.5,-72 430.93,-40.54 556.27,-27.29 631.47,-22.08"/>
<polygon fill="grey" stroke="grey" stroke-width="2" points="631.99,-25.55 641.74,-21.39 631.53,-18.56 631.99,-25.55"/>
</g>
<!-- 17 -->
<g id="node18" class="node">
<title>17</title>
<path fill="none" stroke="#bed856" stroke-width="2" d="M888,-396C888,-396 823,-396 823,-396 817,-396 811,-390 811,-384 811,-384 811,-372 811,-372 811,-366 817,-360 823,-360 823,-360 888,-360 888,-360 894,-360 900,-366 900,-372 900,-372 900,-384 900,-384 900,-390 894,-396 888,-396"/>
<text text-anchor="middle" x="855.5" y="-375.5" font-family="sans" font-size="10.00">count_variants</text>
</g>
<!-- 6&#45;&gt;17 -->
<g id="edge40" class="edge">
<title>6&#45;&gt;17</title>
<path fill="none" stroke="grey" stroke-width="2" d="M761.08,-431.88C777.57,-422.64 798.12,-411.13 815.84,-401.21"/>
<polygon fill="grey" stroke="grey" stroke-width="2" points="817.79,-404.13 824.8,-396.19 814.37,-398.02 817.79,-404.13"/>
</g>
<!-- 18 -->
<g id="node19" class="node">
<title>18</title>
<path fill="none" stroke="#d8d356" stroke-width="2" d="M764.5,-324C764.5,-324 712.5,-324 712.5,-324 706.5,-324 700.5,-318 700.5,-312 700.5,-312 700.5,-300 700.5,-300 700.5,-294 706.5,-288 712.5,-288 712.5,-288 764.5,-288 764.5,-288 770.5,-288 776.5,-294 776.5,-300 776.5,-300 776.5,-312 776.5,-312 776.5,-318 770.5,-324 764.5,-324"/>
<text text-anchor="middle" x="738.5" y="-303.5" font-family="sans" font-size="10.00">fit_titrations</text>
</g>
<!-- 6&#45;&gt;18 -->
<g id="edge43" class="edge">
<title>6&#45;&gt;18</title>
<path fill="none" stroke="grey" stroke-width="2" d="M729.74,-431.91C729.12,-413.97 728.63,-384.96 730.5,-360 731.14,-351.52 732.34,-342.34 733.62,-334.04"/>
<polygon fill="grey" stroke="grey" stroke-width="2" points="737.08,-334.55 735.25,-324.11 730.18,-333.41 737.08,-334.55"/>
</g>
<!-- 19 -->
<g id="node20" class="node">
<title>19</title>
<path fill="none" stroke="#68d856" stroke-width="2" d="M1008,-324C1008,-324 913,-324 913,-324 907,-324 901,-318 901,-312 901,-312 901,-300 901,-300 901,-294 907,-288 913,-288 913,-288 1008,-288 1008,-288 1014,-288 1020,-294 1020,-300 1020,-300 1020,-312 1020,-312 1020,-318 1014,-324 1008,-324"/>
<text text-anchor="middle" x="960.5" y="-303.5" font-family="sans" font-size="10.00">calculate_expression</text>
</g>
<!-- 6&#45;&gt;19 -->
<g id="edge47" class="edge">
<title>6&#45;&gt;19</title>
<path fill="none" stroke="grey" stroke-width="2" d="M740.04,-431.78C751.94,-411.79 774.11,-379.12 801.5,-360 828.08,-341.44 861.63,-329 891.06,-320.86"/>
<polygon fill="grey" stroke="grey" stroke-width="2" points="892.1,-324.21 900.87,-318.27 890.31,-317.44 892.1,-324.21"/>
</g>
<!-- 7 -->
<g id="node8" class="node">
<title>7</title>
<path fill="none" stroke="#56d8c1" stroke-width="2" d="M1277,-540C1277,-540 1078,-540 1078,-540 1072,-540 1066,-534 1066,-528 1066,-528 1066,-516 1066,-516 1066,-510 1072,-504 1078,-504 1078,-504 1277,-504 1277,-504 1283,-504 1289,-510 1289,-516 1289,-516 1289,-528 1289,-528 1289,-534 1283,-540 1277,-540"/>
<text text-anchor="middle" x="1177.5" y="-525" font-family="sans" font-size="10.00">get_ccs</text>
<text text-anchor="middle" x="1177.5" y="-514" font-family="sans" font-size="10.00">pacbioRun: pool1_Wuhan_Hu_1_210701_A</text>
</g>
<!-- 7&#45;&gt;6 -->
<g id="edge16" class="edge">
<title>7&#45;&gt;6</title>
<path fill="none" stroke="grey" stroke-width="2" d="M1065.82,-505.19C975.57,-492.36 857.55,-475.44 812.99,-468.14"/>
<polygon fill="grey" stroke="grey" stroke-width="2" points="813.32,-464.65 802.88,-466.43 812.15,-471.55 813.32,-464.65"/>
</g>
<!-- 15 -->
<g id="node16" class="node">
<title>15</title>
<path fill="none" stroke="#d85656" stroke-width="2" d="M908.5,-468C908.5,-468 832.5,-468 832.5,-468 826.5,-468 820.5,-462 820.5,-456 820.5,-456 820.5,-444 820.5,-444 820.5,-438 826.5,-432 832.5,-432 832.5,-432 908.5,-432 908.5,-432 914.5,-432 920.5,-438 920.5,-444 920.5,-444 920.5,-456 920.5,-456 920.5,-462 914.5,-468 908.5,-468"/>
<text text-anchor="middle" x="870.5" y="-447.5" font-family="sans" font-size="10.00">process_ccs_BA1</text>
</g>
<!-- 7&#45;&gt;15 -->
<g id="edge24" class="edge">
<title>7&#45;&gt;15</title>
<path fill="none" stroke="grey" stroke-width="2" d="M1090.5,-503.96C1045.3,-494.74 988.98,-482.68 930.44,-468.16"/>
<polygon fill="grey" stroke="grey" stroke-width="2" points="931.2,-464.74 920.65,-465.71 929.5,-471.53 931.2,-464.74"/>
</g>
<!-- 16 -->
<g id="node17" class="node">
<title>16</title>
<path fill="none" stroke="#56d882" stroke-width="2" d="M1026.5,-468C1026.5,-468 950.5,-468 950.5,-468 944.5,-468 938.5,-462 938.5,-456 938.5,-456 938.5,-444 938.5,-444 938.5,-438 944.5,-432 950.5,-432 950.5,-432 1026.5,-432 1026.5,-432 1032.5,-432 1038.5,-438 1038.5,-444 1038.5,-444 1038.5,-456 1038.5,-456 1038.5,-462 1032.5,-468 1026.5,-468"/>
<text text-anchor="middle" x="988.5" y="-447.5" font-family="sans" font-size="10.00">process_ccs_BA2</text>
</g>
<!-- 7&#45;&gt;16 -->
<g id="edge32" class="edge">
<title>7&#45;&gt;16</title>
<path fill="none" stroke="grey" stroke-width="2" d="M1131.27,-503.88C1104.97,-494.14 1071.86,-481.87 1044.14,-471.61"/>
<polygon fill="grey" stroke="grey" stroke-width="2" points="1045.18,-468.26 1034.58,-468.07 1042.75,-474.82 1045.18,-468.26"/>
</g>
<!-- 8 -->
<g id="node9" class="node">
<title>8</title>
<path fill="none" stroke="#56d8c1" stroke-width="2" d="M1518,-540C1518,-540 1319,-540 1319,-540 1313,-540 1307,-534 1307,-528 1307,-528 1307,-516 1307,-516 1307,-510 1313,-504 1319,-504 1319,-504 1518,-504 1518,-504 1524,-504 1530,-510 1530,-516 1530,-516 1530,-528 1530,-528 1530,-534 1524,-540 1518,-540"/>
<text text-anchor="middle" x="1418.5" y="-525" font-family="sans" font-size="10.00">get_ccs</text>
<text text-anchor="middle" x="1418.5" y="-514" font-family="sans" font-size="10.00">pacbioRun: pool2_Wuhan_Hu_1_210701_A</text>
</g>
<!-- 8&#45;&gt;6 -->
<g id="edge17" class="edge">
<title>8&#45;&gt;6</title>
<path fill="none" stroke="grey" stroke-width="2" d="M1306.75,-504.92C1303.97,-504.6 1301.22,-504.29 1298.5,-504 1085.98,-481.12 1028.14,-497.83 812.88,-468.09"/>
<polygon fill="grey" stroke="grey" stroke-width="2" points="813.23,-464.6 802.84,-466.68 812.26,-471.53 813.23,-464.6"/>
</g>
<!-- 8&#45;&gt;15 -->
<g id="edge25" class="edge">
<title>8&#45;&gt;15</title>
<path fill="none" stroke="grey" stroke-width="2" d="M1306.74,-505C1303.97,-504.66 1301.22,-504.32 1298.5,-504 1138.08,-484.82 1093.09,-498.39 930.42,-467.97"/>
<polygon fill="grey" stroke="grey" stroke-width="2" points="931.04,-464.53 920.56,-466.1 929.73,-471.4 931.04,-464.53"/>
</g>
<!-- 8&#45;&gt;16 -->
<g id="edge33" class="edge">
<title>8&#45;&gt;16</title>
<path fill="none" stroke="grey" stroke-width="2" d="M1313.86,-503.97C1230.75,-490.44 1117.44,-471.99 1048.82,-460.82"/>
<polygon fill="grey" stroke="grey" stroke-width="2" points="1049.04,-457.31 1038.61,-459.16 1047.92,-464.22 1049.04,-457.31"/>
</g>
<!-- 9 -->
<g id="node10" class="node">
<title>9</title>
<path fill="none" stroke="#56d8c1" stroke-width="2" d="M1759,-540C1759,-540 1560,-540 1560,-540 1554,-540 1548,-534 1548,-528 1548,-528 1548,-516 1548,-516 1548,-510 1554,-504 1560,-504 1560,-504 1759,-504 1759,-504 1765,-504 1771,-510 1771,-516 1771,-516 1771,-528 1771,-528 1771,-534 1765,-540 1759,-540"/>
<text text-anchor="middle" x="1659.5" y="-525" font-family="sans" font-size="10.00">get_ccs</text>
<text text-anchor="middle" x="1659.5" y="-514" font-family="sans" font-size="10.00">pacbioRun: pool1_Wuhan_Hu_1_211118_A</text>
</g>
<!-- 9&#45;&gt;6 -->
<g id="edge18" class="edge">
<title>9&#45;&gt;6</title>
<path fill="none" stroke="grey" stroke-width="2" d="M1547.76,-504.83C1544.98,-504.54 1542.22,-504.26 1539.5,-504 1220.32,-473.56 1134.55,-508.66 812.9,-468.06"/>
<polygon fill="grey" stroke="grey" stroke-width="2" points="813.19,-464.56 802.83,-466.77 812.3,-471.51 813.19,-464.56"/>
</g>
<!-- 9&#45;&gt;15 -->
<g id="edge26" class="edge">
<title>9&#45;&gt;15</title>
<path fill="none" stroke="grey" stroke-width="2" d="M1547.75,-504.86C1544.98,-504.56 1542.22,-504.27 1539.5,-504 1272.57,-477.26 1198.97,-512.99 930.58,-467.94"/>
<polygon fill="grey" stroke="grey" stroke-width="2" points="930.98,-464.46 920.54,-466.23 929.81,-471.36 930.98,-464.46"/>
</g>
<!-- 9&#45;&gt;16 -->
<g id="edge34" class="edge">
<title>9&#45;&gt;16</title>
<path fill="none" stroke="grey" stroke-width="2" d="M1547.74,-505C1544.97,-504.66 1542.22,-504.32 1539.5,-504 1361.44,-482.83 1150.22,-464.37 1048.78,-455.91"/>
<polygon fill="grey" stroke="grey" stroke-width="2" points="1048.98,-452.41 1038.72,-455.07 1048.4,-459.39 1048.98,-452.41"/>
</g>
<!-- 10 -->
<g id="node11" class="node">
<title>10</title>
<path fill="none" stroke="#56d8c1" stroke-width="2" d="M248,-540C248,-540 49,-540 49,-540 43,-540 37,-534 37,-528 37,-528 37,-516 37,-516 37,-510 43,-504 49,-504 49,-504 248,-504 248,-504 254,-504 260,-510 260,-516 260,-516 260,-528 260,-528 260,-534 254,-540 248,-540"/>
<text text-anchor="middle" x="148.5" y="-525" font-family="sans" font-size="10.00">get_ccs</text>
<text text-anchor="middle" x="148.5" y="-514" font-family="sans" font-size="10.00">pacbioRun: pool1_Wuhan_Hu_1_211118_B</text>
</g>
<!-- 10&#45;&gt;6 -->
<g id="edge19" class="edge">
<title>10&#45;&gt;6</title>
<path fill="none" stroke="grey" stroke-width="2" d="M260.27,-505.07C263.04,-504.7 265.79,-504.35 268.5,-504 401.26,-486.98 555.82,-469.78 648.28,-459.77"/>
<polygon fill="grey" stroke="grey" stroke-width="2" points="648.84,-463.23 658.41,-458.67 648.09,-456.27 648.84,-463.23"/>
</g>
<!-- 10&#45;&gt;15 -->
<g id="edge27" class="edge">
<title>10&#45;&gt;15</title>
<path fill="none" stroke="grey" stroke-width="2" d="M260.25,-504.89C263.03,-504.58 265.78,-504.28 268.5,-504 505.78,-479.36 571.47,-508.89 810.42,-467.95"/>
<polygon fill="grey" stroke="grey" stroke-width="2" points="811.21,-471.37 820.46,-466.21 810.01,-464.47 811.21,-471.37"/>
</g>
<!-- 10&#45;&gt;16 -->
<g id="edge35" class="edge">
<title>10&#45;&gt;16</title>
<path fill="none" stroke="grey" stroke-width="2" d="M260.24,-504.85C263.02,-504.55 265.78,-504.27 268.5,-504 558.03,-475.66 637.62,-516.11 928.47,-467.93"/>
<polygon fill="grey" stroke="grey" stroke-width="2" points="929.18,-471.36 938.47,-466.25 928.02,-464.45 929.18,-471.36"/>
</g>
<!-- 11 -->
<g id="node12" class="node">
<title>11</title>
<path fill="none" stroke="#56d8c1" stroke-width="2" d="M445,-540C445,-540 290,-540 290,-540 284,-540 278,-534 278,-528 278,-528 278,-516 278,-516 278,-510 284,-504 290,-504 290,-504 445,-504 445,-504 451,-504 457,-510 457,-516 457,-516 457,-528 457,-528 457,-534 451,-540 445,-540"/>
<text text-anchor="middle" x="367.5" y="-525" font-family="sans" font-size="10.00">get_ccs</text>
<text text-anchor="middle" x="367.5" y="-514" font-family="sans" font-size="10.00">pacbioRun: pool1_BA1_220524_A</text>
</g>
<!-- 11&#45;&gt;6 -->
<g id="edge20" class="edge">
<title>11&#45;&gt;6</title>
<path fill="none" stroke="grey" stroke-width="2" d="M455.84,-503.97C514.44,-492.67 590.81,-477.94 648.15,-466.88"/>
<polygon fill="grey" stroke="grey" stroke-width="2" points="649.1,-470.26 658.26,-464.93 647.78,-463.39 649.1,-470.26"/>
</g>
<!-- 11&#45;&gt;15 -->
<g id="edge28" class="edge">
<title>11&#45;&gt;15</title>
<path fill="none" stroke="grey" stroke-width="2" d="M457.18,-505.19C459.99,-504.78 462.76,-504.38 465.5,-504 615.35,-483.23 657.92,-496.9 810.24,-468.04"/>
<polygon fill="grey" stroke="grey" stroke-width="2" points="811.28,-471.41 820.43,-466.08 809.95,-464.53 811.28,-471.41"/>
</g>
<!-- 11&#45;&gt;16 -->
<g id="edge36" class="edge">
<title>11&#45;&gt;16</title>
<path fill="none" stroke="grey" stroke-width="2" d="M457.17,-505.1C459.98,-504.71 462.76,-504.34 465.5,-504 667.53,-478.7 724.2,-504.01 928.61,-467.93"/>
<polygon fill="grey" stroke="grey" stroke-width="2" points="929.23,-471.38 938.45,-466.17 927.99,-464.49 929.23,-471.38"/>
</g>
<!-- 12 -->
<g id="node13" class="node">
<title>12</title>
<path fill="none" stroke="#56d8c1" stroke-width="2" d="M642,-540C642,-540 487,-540 487,-540 481,-540 475,-534 475,-528 475,-528 475,-516 475,-516 475,-510 481,-504 487,-504 487,-504 642,-504 642,-504 648,-504 654,-510 654,-516 654,-516 654,-528 654,-528 654,-534 648,-540 642,-540"/>
<text text-anchor="middle" x="564.5" y="-525" font-family="sans" font-size="10.00">get_ccs</text>
<text text-anchor="middle" x="564.5" y="-514" font-family="sans" font-size="10.00">pacbioRun: pool2_BA1_220524_A</text>
</g>
<!-- 12&#45;&gt;6 -->
<g id="edge21" class="edge">
<title>12&#45;&gt;6</title>
<path fill="none" stroke="grey" stroke-width="2" d="M605.11,-503.88C627.9,-494.26 656.53,-482.19 680.67,-472.01"/>
<polygon fill="grey" stroke="grey" stroke-width="2" points="682.17,-475.18 690.02,-468.07 679.45,-468.73 682.17,-475.18"/>
</g>
<!-- 12&#45;&gt;15 -->
<g id="edge29" class="edge">
<title>12&#45;&gt;15</title>
<path fill="none" stroke="grey" stroke-width="2" d="M650.86,-504C695.92,-494.76 752.14,-482.68 810.57,-468.15"/>
<polygon fill="grey" stroke="grey" stroke-width="2" points="811.5,-471.53 820.35,-465.71 809.8,-464.74 811.5,-471.53"/>
</g>
<!-- 12&#45;&gt;16 -->
<g id="edge37" class="edge">
<title>12&#45;&gt;16</title>
<path fill="none" stroke="grey" stroke-width="2" d="M654.2,-505.3C657,-504.86 659.77,-504.42 662.5,-504 777.61,-486.26 810.54,-492.29 928.28,-468.09"/>
<polygon fill="grey" stroke="grey" stroke-width="2" points="929.34,-471.44 938.41,-465.97 927.91,-464.59 929.34,-471.44"/>
</g>
<!-- 13 -->
<g id="node14" class="node">
<title>13</title>
<path fill="none" stroke="#56d8c1" stroke-width="2" d="M839,-540C839,-540 684,-540 684,-540 678,-540 672,-534 672,-528 672,-528 672,-516 672,-516 672,-510 678,-504 684,-504 684,-504 839,-504 839,-504 845,-504 851,-510 851,-516 851,-516 851,-528 851,-528 851,-534 845,-540 839,-540"/>
<text text-anchor="middle" x="761.5" y="-525" font-family="sans" font-size="10.00">get_ccs</text>
<text text-anchor="middle" x="761.5" y="-514" font-family="sans" font-size="10.00">pacbioRun: pool1_BA2_220524_B</text>
</g>
<!-- 13&#45;&gt;6 -->
<g id="edge22" class="edge">
<title>13&#45;&gt;6</title>
<path fill="none" stroke="grey" stroke-width="2" d="M753.84,-503.7C750.31,-495.73 746.04,-486.1 742.13,-477.26"/>
<polygon fill="grey" stroke="grey" stroke-width="2" points="745.32,-475.83 738.07,-468.1 738.92,-478.67 745.32,-475.83"/>
</g>
<!-- 13&#45;&gt;15 -->
<g id="edge30" class="edge">
<title>13&#45;&gt;15</title>
<path fill="none" stroke="grey" stroke-width="2" d="M788.16,-503.88C802.28,-494.81 819.81,-483.55 835.06,-473.76"/>
<polygon fill="grey" stroke="grey" stroke-width="2" points="837.21,-476.54 843.73,-468.19 833.43,-470.65 837.21,-476.54"/>
</g>
<!-- 13&#45;&gt;16 -->
<g id="edge38" class="edge">
<title>13&#45;&gt;16</title>
<path fill="none" stroke="grey" stroke-width="2" d="M816.74,-503.97C850.54,-493.54 893.8,-480.2 928.45,-469.52"/>
<polygon fill="grey" stroke="grey" stroke-width="2" points="929.92,-472.73 938.45,-466.44 927.86,-466.04 929.92,-472.73"/>
</g>
<!-- 14 -->
<g id="node15" class="node">
<title>14</title>
<path fill="none" stroke="#56d8c1" stroke-width="2" d="M1036,-540C1036,-540 881,-540 881,-540 875,-540 869,-534 869,-528 869,-528 869,-516 869,-516 869,-510 875,-504 881,-504 881,-504 1036,-504 1036,-504 1042,-504 1048,-510 1048,-516 1048,-516 1048,-528 1048,-528 1048,-534 1042,-540 1036,-540"/>
<text text-anchor="middle" x="958.5" y="-525" font-family="sans" font-size="10.00">get_ccs</text>
<text text-anchor="middle" x="958.5" y="-514" font-family="sans" font-size="10.00">pacbioRun: pool2_BA2_220524_B</text>
</g>
<!-- 14&#45;&gt;6 -->
<g id="edge23" class="edge">
<title>14&#45;&gt;6</title>
<path fill="none" stroke="grey" stroke-width="2" d="M903.02,-503.97C870.74,-494.06 829.89,-481.51 796.04,-471.12"/>
<polygon fill="grey" stroke="grey" stroke-width="2" points="796.82,-467.7 786.23,-468.11 794.76,-474.39 796.82,-467.7"/>
</g>
<!-- 14&#45;&gt;15 -->
<g id="edge31" class="edge">
<title>14&#45;&gt;15</title>
<path fill="none" stroke="grey" stroke-width="2" d="M936.75,-503.7C925.66,-494.88 912.03,-484.03 900.01,-474.47"/>
<polygon fill="grey" stroke="grey" stroke-width="2" points="902.01,-471.59 892,-468.1 897.65,-477.07 902.01,-471.59"/>
</g>
<!-- 14&#45;&gt;16 -->
<g id="edge39" class="edge">
<title>14&#45;&gt;16</title>
<path fill="none" stroke="grey" stroke-width="2" d="M965.92,-503.7C969.29,-495.81 973.37,-486.3 977.12,-477.55"/>
<polygon fill="grey" stroke="grey" stroke-width="2" points="980.45,-478.67 981.17,-468.1 974.01,-475.92 980.45,-478.67"/>
</g>
<!-- 15&#45;&gt;0 -->
<g id="edge7" class="edge">
<title>15&#45;&gt;0</title>
<path fill="none" stroke="grey" stroke-width="2" d="M920.56,-433.2C973.2,-413.09 1048.5,-372.82 1048.5,-307 1048.5,-307 1048.5,-307 1048.5,-161 1048.5,-117.99 1044.33,-98.55 1010.5,-72 970.55,-40.65 828.36,-27.19 747.26,-21.96"/>
<polygon fill="grey" stroke="grey" stroke-width="2" points="747.4,-18.46 737.2,-21.33 746.96,-25.45 747.4,-18.46"/>
</g>
<!-- 15&#45;&gt;17 -->
<g id="edge41" class="edge">
<title>15&#45;&gt;17</title>
<path fill="none" stroke="grey" stroke-width="2" d="M866.79,-431.7C865.14,-423.98 863.15,-414.71 861.31,-406.11"/>
<polygon fill="grey" stroke="grey" stroke-width="2" points="864.68,-405.15 859.17,-396.1 857.84,-406.62 864.68,-405.15"/>
</g>
<!-- 15&#45;&gt;18 -->
<g id="edge44" class="edge">
<title>15&#45;&gt;18</title>
<path fill="none" stroke="grey" stroke-width="2" d="M844.41,-431.79C830.81,-422.15 814.38,-409.39 801.5,-396 782.89,-376.65 765.57,-351.43 753.82,-332.78"/>
<polygon fill="grey" stroke="grey" stroke-width="2" points="756.75,-330.87 748.51,-324.21 750.8,-334.55 756.75,-330.87"/>
</g>
<!-- 15&#45;&gt;19 -->
<g id="edge48" class="edge">
<title>15&#45;&gt;19</title>
<path fill="none" stroke="grey" stroke-width="2" d="M883.59,-431.62C891.11,-421.41 900.61,-408.16 908.5,-396 922.02,-375.16 936.16,-350.75 946.28,-332.78"/>
<polygon fill="grey" stroke="grey" stroke-width="2" points="949.36,-334.45 951.18,-324.01 943.25,-331.03 949.36,-334.45"/>
</g>
<!-- 16&#45;&gt;0 -->
<g id="edge8" class="edge">
<title>16&#45;&gt;0</title>
<path fill="none" stroke="grey" stroke-width="2" d="M1010.74,-431.92C1039.65,-407.6 1086.5,-360.02 1086.5,-307 1086.5,-307 1086.5,-307 1086.5,-161 1086.5,-116.47 1076.69,-97.94 1040.5,-72 994.6,-39.11 834.57,-26.15 747.32,-21.44"/>
<polygon fill="grey" stroke="grey" stroke-width="2" points="747.47,-17.94 737.3,-20.92 747.11,-24.93 747.47,-17.94"/>
</g>
<!-- 16&#45;&gt;17 -->
<g id="edge42" class="edge">
<title>16&#45;&gt;17</title>
<path fill="none" stroke="grey" stroke-width="2" d="M955.96,-431.88C938.25,-422.55 916.15,-410.92 897.18,-400.94"/>
<polygon fill="grey" stroke="grey" stroke-width="2" points="898.64,-397.75 888.16,-396.19 895.38,-403.94 898.64,-397.75"/>
</g>
<!-- 16&#45;&gt;18 -->
<g id="edge45" class="edge">
<title>16&#45;&gt;18</title>
<path fill="none" stroke="grey" stroke-width="2" d="M977.3,-431.72C963.45,-411.67 938.05,-378.96 908.5,-360 871.32,-336.15 822.68,-322.41 786.96,-314.93"/>
<polygon fill="grey" stroke="grey" stroke-width="2" points="787.27,-311.42 776.78,-312.89 785.9,-318.28 787.27,-311.42"/>
</g>
<!-- 16&#45;&gt;19 -->
<g id="edge49" class="edge">
<title>16&#45;&gt;19</title>
<path fill="none" stroke="grey" stroke-width="2" d="M988.33,-431.72C987.83,-413.63 986.11,-384.5 980.5,-360 978.5,-351.28 975.4,-342.06 972.22,-333.8"/>
<polygon fill="grey" stroke="grey" stroke-width="2" points="975.38,-332.26 968.39,-324.3 968.89,-334.88 975.38,-332.26"/>
</g>
<!-- 17&#45;&gt;0 -->
<g id="edge9" class="edge">
<title>17&#45;&gt;0</title>
<path fill="none" stroke="grey" stroke-width="2" d="M858.94,-359.86C863.55,-340.54 873.34,-309.09 891.5,-288 912.04,-264.15 936.89,-279.34 952.5,-252 993.85,-179.58 963.6,-125.35 899.5,-72 856.78,-36.44 793.38,-24.28 747.42,-20.35"/>
<polygon fill="grey" stroke="grey" stroke-width="2" points="747.54,-16.85 737.31,-19.59 747.02,-23.83 747.54,-16.85"/>
</g>
<!-- 17&#45;&gt;18 -->
<g id="edge46" class="edge">
<title>17&#45;&gt;18</title>
<path fill="none" stroke="grey" stroke-width="2" d="M826.88,-359.88C811.58,-350.72 792.56,-339.34 776.08,-329.48"/>
<polygon fill="grey" stroke="grey" stroke-width="2" points="777.61,-326.32 767.23,-324.19 774.02,-332.33 777.61,-326.32"/>
</g>
<!-- 17&#45;&gt;19 -->
<g id="edge50" class="edge">
<title>17&#45;&gt;19</title>
<path fill="none" stroke="grey" stroke-width="2" d="M881.19,-359.88C894.79,-350.81 911.67,-339.55 926.36,-329.76"/>
<polygon fill="grey" stroke="grey" stroke-width="2" points="928.34,-332.65 934.72,-324.19 924.45,-326.82 928.34,-332.65"/>
</g>
<!-- 18&#45;&gt;0 -->
<g id="edge10" class="edge">
<title>18&#45;&gt;0</title>
<path fill="none" stroke="grey" stroke-width="2" d="M706.47,-287.96C671.91,-267.53 618.83,-229.74 596.5,-180 586.02,-156.67 605.88,-76.01 608.5,-72 616.63,-59.54 628.84,-49.35 641.31,-41.36"/>
<polygon fill="grey" stroke="grey" stroke-width="2" points="643.18,-44.33 649.95,-36.18 639.58,-38.33 643.18,-44.33"/>
</g>
<!-- 20 -->
<g id="node21" class="node">
<title>20</title>
<path fill="none" stroke="#56d863" stroke-width="2" d="M768.5,-252C768.5,-252 698.5,-252 698.5,-252 692.5,-252 686.5,-246 686.5,-240 686.5,-240 686.5,-228 686.5,-228 686.5,-222 692.5,-216 698.5,-216 698.5,-216 768.5,-216 768.5,-216 774.5,-216 780.5,-222 780.5,-228 780.5,-228 780.5,-240 780.5,-240 780.5,-246 774.5,-252 768.5,-252"/>
<text text-anchor="middle" x="733.5" y="-231.5" font-family="sans" font-size="10.00">collapse_scores</text>
</g>
<!-- 18&#45;&gt;20 -->
<g id="edge51" class="edge">
<title>18&#45;&gt;20</title>
<path fill="none" stroke="grey" stroke-width="2" d="M737.26,-287.7C736.71,-279.98 736.05,-270.71 735.44,-262.11"/>
<polygon fill="grey" stroke="grey" stroke-width="2" points="738.93,-261.83 734.72,-252.1 731.94,-262.33 738.93,-261.83"/>
</g>
<!-- 19&#45;&gt;0 -->
<g id="edge11" class="edge">
<title>19&#45;&gt;0</title>
<path fill="none" stroke="grey" stroke-width="2" d="M969.88,-287.94C991.65,-245.82 1039.81,-135.66 986.5,-72 956.61,-36.31 825.02,-24.63 747.38,-20.82"/>
<polygon fill="grey" stroke="grey" stroke-width="2" points="747.42,-17.32 737.27,-20.36 747.09,-24.31 747.42,-17.32"/>
</g>
<!-- 19&#45;&gt;20 -->
<g id="edge52" class="edge">
<title>19&#45;&gt;20</title>
<path fill="none" stroke="grey" stroke-width="2" d="M905.26,-287.97C870.35,-277.2 825.36,-263.33 790.18,-252.48"/>
<polygon fill="grey" stroke="grey" stroke-width="2" points="791.12,-249.11 780.53,-249.5 789.06,-255.79 791.12,-249.11"/>
</g>
<!-- 20&#45;&gt;0 -->
<g id="edge12" class="edge">
<title>20&#45;&gt;0</title>
<path fill="none" stroke="grey" stroke-width="2" d="M686.39,-225.9C658.96,-219.08 626.52,-205.79 609.5,-180 579.29,-134.23 628.24,-75.44 661.91,-43.07"/>
<polygon fill="grey" stroke="grey" stroke-width="2" points="664.35,-45.59 669.25,-36.19 659.56,-40.48 664.35,-45.59"/>
</g>
<!-- 20&#45;&gt;21 -->
<g id="edge53" class="edge">
<title>20&#45;&gt;21</title>
<path fill="none" stroke="grey" stroke-width="2" d="M764.81,-215.88C781.7,-206.64 802.75,-195.13 820.88,-185.21"/>
<polygon fill="grey" stroke="grey" stroke-width="2" points="822.97,-188.06 830.07,-180.19 819.61,-181.92 822.97,-188.06"/>
</g>
<!-- 22 -->
<g id="node23" class="node">
<title>22</title>
<path fill="none" stroke="#5692d8" stroke-width="2" d="M821,-108C821,-108 732,-108 732,-108 726,-108 720,-102 720,-96 720,-96 720,-84 720,-84 720,-78 726,-72 732,-72 732,-72 821,-72 821,-72 827,-72 833,-78 833,-84 833,-84 833,-96 833,-96 833,-102 827,-108 821,-108"/>
<text text-anchor="middle" x="776.5" y="-87.5" font-family="sans" font-size="10.00">interactive_jsd_plot</text>
</g>
<!-- 20&#45;&gt;22 -->
<g id="edge55" class="edge">
<title>20&#45;&gt;22</title>
<path fill="none" stroke="grey" stroke-width="2" d="M748.7,-215.64C756.34,-205.86 764.93,-193.01 769.5,-180 776.46,-160.17 778.01,-136.37 777.93,-118.37"/>
<polygon fill="grey" stroke="grey" stroke-width="2" points="781.43,-118.19 777.71,-108.27 774.43,-118.34 781.43,-118.19"/>
</g>
<!-- 23 -->
<g id="node24" class="node">
<title>23</title>
<path fill="none" stroke="#88d856" stroke-width="2" d="M748.5,-180C748.5,-180 630.5,-180 630.5,-180 624.5,-180 618.5,-174 618.5,-168 618.5,-168 618.5,-156 618.5,-156 618.5,-150 624.5,-144 630.5,-144 630.5,-144 748.5,-144 748.5,-144 754.5,-144 760.5,-150 760.5,-156 760.5,-156 760.5,-168 760.5,-168 760.5,-174 754.5,-180 748.5,-180"/>
<text text-anchor="middle" x="689.5" y="-159.5" font-family="sans" font-size="10.00">interactive_heatmap_plot</text>
</g>
<!-- 20&#45;&gt;23 -->
<g id="edge57" class="edge">
<title>20&#45;&gt;23</title>
<path fill="none" stroke="grey" stroke-width="2" d="M722.62,-215.7C717.51,-207.56 711.3,-197.69 705.66,-188.7"/>
<polygon fill="grey" stroke="grey" stroke-width="2" points="708.54,-186.71 700.25,-180.1 702.61,-190.43 708.54,-186.71"/>
</g>
<!-- 21&#45;&gt;0 -->
<g id="edge13" class="edge">
<title>21&#45;&gt;0</title>
<path fill="none" stroke="grey" stroke-width="2" d="M862.31,-143.72C862.29,-123.98 859.21,-91.86 841.5,-72 817.58,-45.18 779.35,-31.93 747.21,-25.39"/>
<polygon fill="grey" stroke="grey" stroke-width="2" points="747.48,-21.88 737.01,-23.49 746.2,-28.76 747.48,-21.88"/>
</g>
<!-- 21&#45;&gt;22 -->
<g id="edge56" class="edge">
<title>21&#45;&gt;22</title>
<path fill="none" stroke="grey" stroke-width="2" d="M840.49,-143.7C829.78,-134.88 816.61,-124.03 805,-114.47"/>
<polygon fill="grey" stroke="grey" stroke-width="2" points="807.21,-111.76 797.27,-108.1 802.76,-117.16 807.21,-111.76"/>
</g>
<!-- 22&#45;&gt;0 -->
<g id="edge14" class="edge">
<title>22&#45;&gt;0</title>
<path fill="none" stroke="grey" stroke-width="2" d="M754.99,-71.7C744.04,-62.88 730.55,-52.03 718.68,-42.47"/>
<polygon fill="grey" stroke="grey" stroke-width="2" points="720.74,-39.65 710.76,-36.1 716.36,-45.1 720.74,-39.65"/>
</g>
<!-- 23&#45;&gt;0 -->
<g id="edge15" class="edge">
<title>23&#45;&gt;0</title>
<path fill="none" stroke="grey" stroke-width="2" d="M689.5,-143.87C689.5,-119.67 689.5,-75.21 689.5,-46.39"/>
<polygon fill="grey" stroke="grey" stroke-width="2" points="693,-46.19 689.5,-36.19 686,-46.19 693,-46.19"/>
</g>
</g>
</svg>
