<?xml version="1.0" encoding="UTF-8" standalone="no"?>
<!DOCTYPE svg PUBLIC "-//W3C//DTD SVG 1.1//EN"
 "http://www.w3.org/Graphics/SVG/1.1/DTD/svg11.dtd">
<!-- Generated by graphviz version 2.50.0 (20211209.0339)
 -->
<!-- Title: snakemake_dag Pages: 1 -->
<svg width="1742pt" height="548pt"
 viewBox="0.00 0.00 1742.00 548.00" xmlns="http://www.w3.org/2000/svg" xmlns:xlink="http://www.w3.org/1999/xlink">
<g id="graph0" class="graph" transform="scale(1 1) rotate(0) translate(4 544)">
<title>snakemake_dag</title>
<polygon fill="white" stroke="transparent" points="-4,4 -4,-544 1738,-544 1738,4 -4,4"/>
<!-- 0 -->
<g id="node1" class="node">
<title>0</title>
<path fill="none" stroke="#56d89a" stroke-width="2" d="M732,-36C732,-36 661,-36 661,-36 655,-36 649,-30 649,-24 649,-24 649,-12 649,-12 649,-6 655,0 661,0 661,0 732,0 732,0 738,0 744,-6 744,-12 744,-12 744,-24 744,-24 744,-30 738,-36 732,-36"/>
<text text-anchor="middle" x="696.5" y="-15.5" font-family="sans" font-size="10.00">make_summary</text>
</g>
<!-- 1 -->
<g id="node2" class="node">
<title>1</title>
<path fill="none" stroke="#d87556" stroke-width="2" d="M153,-108C153,-108 110,-108 110,-108 104,-108 98,-102 98,-96 98,-96 98,-84 98,-84 98,-78 104,-72 110,-72 110,-72 153,-72 153,-72 159,-72 165,-78 165,-84 165,-84 165,-96 165,-96 165,-102 159,-108 153,-108"/>
<text text-anchor="middle" x="131.5" y="-87.5" font-family="sans" font-size="10.00">make_dag</text>
</g>
<!-- 1&#45;&gt;0 -->
<g id="edge1" class="edge">
<title>1&#45;&gt;0</title>
<path fill="none" stroke="grey" stroke-width="2" d="M165.02,-74.74C168.19,-73.7 171.38,-72.76 174.5,-72 339.74,-31.77 541.59,-22.03 638.78,-19.7"/>
<polygon fill="grey" stroke="grey" stroke-width="2" points="639.05,-23.2 648.97,-19.48 638.9,-16.2 639.05,-23.2"/>
</g>
<!-- 2 -->
<g id="node3" class="node">
<title>2</title>
<path fill="none" stroke="#d89556" stroke-width="2" d="M281.5,-108C281.5,-108 195.5,-108 195.5,-108 189.5,-108 183.5,-102 183.5,-96 183.5,-96 183.5,-84 183.5,-84 183.5,-78 189.5,-72 195.5,-72 195.5,-72 281.5,-72 281.5,-72 287.5,-72 293.5,-78 293.5,-84 293.5,-84 293.5,-96 293.5,-96 293.5,-102 287.5,-108 281.5,-108"/>
<text text-anchor="middle" x="238.5" y="-87.5" font-family="sans" font-size="10.00">get_mut_bind_expr</text>
</g>
<!-- 2&#45;&gt;0 -->
<g id="edge2" class="edge">
<title>2&#45;&gt;0</title>
<path fill="none" stroke="grey" stroke-width="2" d="M293.55,-73.9C296.57,-73.22 299.57,-72.58 302.5,-72 421.05,-48.38 561.8,-32.27 638.88,-24.45"/>
<polygon fill="grey" stroke="grey" stroke-width="2" points="639.27,-27.93 648.88,-23.45 638.58,-20.97 639.27,-27.93"/>
</g>
<!-- 3 -->
<g id="node4" class="node">
<title>3</title>
<path fill="none" stroke="#56d8d8" stroke-width="2" d="M437,-108C437,-108 324,-108 324,-108 318,-108 312,-102 312,-96 312,-96 312,-84 312,-84 312,-78 318,-72 324,-72 324,-72 437,-72 437,-72 443,-72 449,-78 449,-84 449,-84 449,-96 449,-96 449,-102 443,-108 437,-108"/>
<text text-anchor="middle" x="380.5" y="-87.5" font-family="sans" font-size="10.00">get_VOC_mut_bind_expr</text>
</g>
<!-- 3&#45;&gt;0 -->
<g id="edge3" class="edge">
<title>3&#45;&gt;0</title>
<path fill="none" stroke="grey" stroke-width="2" d="M449.07,-73.81C505.68,-61.27 585.14,-43.67 638.6,-31.83"/>
<polygon fill="grey" stroke="grey" stroke-width="2" points="639.6,-35.19 648.6,-29.61 638.08,-28.36 639.6,-35.19"/>
</g>
<!-- 4 -->
<g id="node5" class="node">
<title>4</title>
<path fill="none" stroke="#78d856" stroke-width="2" d="M895,-252C895,-252 774,-252 774,-252 768,-252 762,-246 762,-240 762,-240 762,-228 762,-228 762,-222 768,-216 774,-216 774,-216 895,-216 895,-216 901,-216 907,-222 907,-228 907,-228 907,-240 907,-240 907,-246 901,-252 895,-252"/>
<text text-anchor="middle" x="834.5" y="-231.5" font-family="sans" font-size="10.00">get_mut_antibody_escape</text>
</g>
<!-- 4&#45;&gt;0 -->
<g id="edge4" class="edge">
<title>4&#45;&gt;0</title>
<path fill="none" stroke="grey" stroke-width="2" d="M853.97,-215.92C863.32,-206.4 873.55,-193.72 878.5,-180 883.93,-164.95 883.42,-159.22 878.5,-144 866.36,-106.44 857.53,-96.39 826.5,-72 805.2,-55.25 777.88,-43.06 753.78,-34.61"/>
<polygon fill="grey" stroke="grey" stroke-width="2" points="754.63,-31.21 744.03,-31.34 752.4,-37.84 754.63,-31.21"/>
</g>
<!-- 20 -->
<g id="node21" class="node">
<title>20</title>
<path fill="none" stroke="#56d87b" stroke-width="2" d="M857.5,-180C857.5,-180 791.5,-180 791.5,-180 785.5,-180 779.5,-174 779.5,-168 779.5,-168 779.5,-156 779.5,-156 779.5,-150 785.5,-144 791.5,-144 791.5,-144 857.5,-144 857.5,-144 863.5,-144 869.5,-150 869.5,-156 869.5,-156 869.5,-168 869.5,-168 869.5,-174 863.5,-180 857.5,-180"/>
<text text-anchor="middle" x="824.5" y="-159.5" font-family="sans" font-size="10.00">epistatic_shifts</text>
</g>
<!-- 4&#45;&gt;20 -->
<g id="edge53" class="edge">
<title>4&#45;&gt;20</title>
<path fill="none" stroke="grey" stroke-width="2" d="M832.03,-215.7C830.93,-207.98 829.6,-198.71 828.37,-190.11"/>
<polygon fill="grey" stroke="grey" stroke-width="2" points="831.82,-189.51 826.94,-180.1 824.89,-190.5 831.82,-189.51"/>
</g>
<!-- 5 -->
<g id="node6" class="node">
<title>5</title>
<path fill="none" stroke="#56b9d8" stroke-width="2" d="M753.5,-468C753.5,-468 633.5,-468 633.5,-468 627.5,-468 621.5,-462 621.5,-456 621.5,-456 621.5,-444 621.5,-444 621.5,-438 627.5,-432 633.5,-432 633.5,-432 753.5,-432 753.5,-432 759.5,-432 765.5,-438 765.5,-444 765.5,-444 765.5,-456 765.5,-456 765.5,-462 759.5,-468 753.5,-468"/>
<text text-anchor="middle" x="693.5" y="-447.5" font-family="sans" font-size="10.00">process_ccs_Wuhan_Hu_1</text>
</g>
<!-- 5&#45;&gt;0 -->
<g id="edge5" class="edge">
<title>5&#45;&gt;0</title>
<path fill="none" stroke="grey" stroke-width="2" d="M621.27,-433.24C558.48,-414.78 477.5,-377.35 477.5,-307 477.5,-307 477.5,-307 477.5,-161 477.5,-83.85 574.37,-46.51 639.26,-30.15"/>
<polygon fill="grey" stroke="grey" stroke-width="2" points="640.09,-33.55 648.98,-27.8 638.44,-26.75 640.09,-33.55"/>
</g>
<!-- 16 -->
<g id="node17" class="node">
<title>16</title>
<path fill="none" stroke="#d85656" stroke-width="2" d="M851,-396C851,-396 786,-396 786,-396 780,-396 774,-390 774,-384 774,-384 774,-372 774,-372 774,-366 780,-360 786,-360 786,-360 851,-360 851,-360 857,-360 863,-366 863,-372 863,-372 863,-384 863,-384 863,-390 857,-396 851,-396"/>
<text text-anchor="middle" x="818.5" y="-375.5" font-family="sans" font-size="10.00">count_variants</text>
</g>
<!-- 5&#45;&gt;16 -->
<g id="edge39" class="edge">
<title>5&#45;&gt;16</title>
<path fill="none" stroke="grey" stroke-width="2" d="M724.08,-431.88C740.57,-422.64 761.12,-411.13 778.84,-401.21"/>
<polygon fill="grey" stroke="grey" stroke-width="2" points="780.79,-404.13 787.8,-396.19 777.37,-398.02 780.79,-404.13"/>
</g>
<!-- 17 -->
<g id="node18" class="node">
<title>17</title>
<path fill="none" stroke="#59d856" stroke-width="2" d="M727.5,-324C727.5,-324 675.5,-324 675.5,-324 669.5,-324 663.5,-318 663.5,-312 663.5,-312 663.5,-300 663.5,-300 663.5,-294 669.5,-288 675.5,-288 675.5,-288 727.5,-288 727.5,-288 733.5,-288 739.5,-294 739.5,-300 739.5,-300 739.5,-312 739.5,-312 739.5,-318 733.5,-324 727.5,-324"/>
<text text-anchor="middle" x="701.5" y="-303.5" font-family="sans" font-size="10.00">fit_titrations</text>
</g>
<!-- 5&#45;&gt;17 -->
<g id="edge42" class="edge">
<title>5&#45;&gt;17</title>
<path fill="none" stroke="grey" stroke-width="2" d="M692.74,-431.91C692.12,-413.97 691.63,-384.96 693.5,-360 694.14,-351.52 695.34,-342.34 696.62,-334.04"/>
<polygon fill="grey" stroke="grey" stroke-width="2" points="700.08,-334.55 698.25,-324.11 693.18,-333.41 700.08,-334.55"/>
</g>
<!-- 18 -->
<g id="node19" class="node">
<title>18</title>
<path fill="none" stroke="#97d856" stroke-width="2" d="M971,-324C971,-324 876,-324 876,-324 870,-324 864,-318 864,-312 864,-312 864,-300 864,-300 864,-294 870,-288 876,-288 876,-288 971,-288 971,-288 977,-288 983,-294 983,-300 983,-300 983,-312 983,-312 983,-318 977,-324 971,-324"/>
<text text-anchor="middle" x="923.5" y="-303.5" font-family="sans" font-size="10.00">calculate_expression</text>
</g>
<!-- 5&#45;&gt;18 -->
<g id="edge46" class="edge">
<title>5&#45;&gt;18</title>
<path fill="none" stroke="grey" stroke-width="2" d="M703.24,-431.79C715.37,-411.81 737.91,-379.16 765.5,-360 791.87,-341.69 825.06,-329.29 854.21,-321.12"/>
<polygon fill="grey" stroke="grey" stroke-width="2" points="855.17,-324.49 863.92,-318.51 853.35,-317.73 855.17,-324.49"/>
</g>
<!-- 6 -->
<g id="node7" class="node">
<title>6</title>
<path fill="none" stroke="#569ad8" stroke-width="2" d="M1240,-540C1240,-540 1041,-540 1041,-540 1035,-540 1029,-534 1029,-528 1029,-528 1029,-516 1029,-516 1029,-510 1035,-504 1041,-504 1041,-504 1240,-504 1240,-504 1246,-504 1252,-510 1252,-516 1252,-516 1252,-528 1252,-528 1252,-534 1246,-540 1240,-540"/>
<text text-anchor="middle" x="1140.5" y="-525" font-family="sans" font-size="10.00">get_ccs</text>
<text text-anchor="middle" x="1140.5" y="-514" font-family="sans" font-size="10.00">pacbioRun: pool1_Wuhan_Hu_1_210701_A</text>
</g>
<!-- 6&#45;&gt;5 -->
<g id="edge15" class="edge">
<title>6&#45;&gt;5</title>
<path fill="none" stroke="grey" stroke-width="2" d="M1028.58,-504.97C936.1,-491.7 814.86,-474.23 775.81,-468.06"/>
<polygon fill="grey" stroke="grey" stroke-width="2" points="776.32,-464.6 765.88,-466.43 775.18,-471.51 776.32,-464.6"/>
</g>
<!-- 14 -->
<g id="node15" class="node">
<title>14</title>
<path fill="none" stroke="#56d8b9" stroke-width="2" d="M871.5,-468C871.5,-468 795.5,-468 795.5,-468 789.5,-468 783.5,-462 783.5,-456 783.5,-456 783.5,-444 783.5,-444 783.5,-438 789.5,-432 795.5,-432 795.5,-432 871.5,-432 871.5,-432 877.5,-432 883.5,-438 883.5,-444 883.5,-444 883.5,-456 883.5,-456 883.5,-462 877.5,-468 871.5,-468"/>
<text text-anchor="middle" x="833.5" y="-447.5" font-family="sans" font-size="10.00">process_ccs_BA1</text>
</g>
<!-- 6&#45;&gt;14 -->
<g id="edge23" class="edge">
<title>6&#45;&gt;14</title>
<path fill="none" stroke="grey" stroke-width="2" d="M1053.5,-503.96C1008.3,-494.74 951.98,-482.68 893.44,-468.16"/>
<polygon fill="grey" stroke="grey" stroke-width="2" points="894.2,-464.74 883.65,-465.71 892.5,-471.53 894.2,-464.74"/>
</g>
<!-- 15 -->
<g id="node16" class="node">
<title>15</title>
<path fill="none" stroke="#567bd8" stroke-width="2" d="M989.5,-468C989.5,-468 913.5,-468 913.5,-468 907.5,-468 901.5,-462 901.5,-456 901.5,-456 901.5,-444 901.5,-444 901.5,-438 907.5,-432 913.5,-432 913.5,-432 989.5,-432 989.5,-432 995.5,-432 1001.5,-438 1001.5,-444 1001.5,-444 1001.5,-456 1001.5,-456 1001.5,-462 995.5,-468 989.5,-468"/>
<text text-anchor="middle" x="951.5" y="-447.5" font-family="sans" font-size="10.00">process_ccs_BA2</text>
</g>
<!-- 6&#45;&gt;15 -->
<g id="edge31" class="edge">
<title>6&#45;&gt;15</title>
<path fill="none" stroke="grey" stroke-width="2" d="M1094.27,-503.88C1067.97,-494.14 1034.86,-481.87 1007.14,-471.61"/>
<polygon fill="grey" stroke="grey" stroke-width="2" points="1008.18,-468.26 997.58,-468.07 1005.75,-474.82 1008.18,-468.26"/>
</g>
<!-- 7 -->
<g id="node8" class="node">
<title>7</title>
<path fill="none" stroke="#569ad8" stroke-width="2" d="M1481,-540C1481,-540 1282,-540 1282,-540 1276,-540 1270,-534 1270,-528 1270,-528 1270,-516 1270,-516 1270,-510 1276,-504 1282,-504 1282,-504 1481,-504 1481,-504 1487,-504 1493,-510 1493,-516 1493,-516 1493,-528 1493,-528 1493,-534 1487,-540 1481,-540"/>
<text text-anchor="middle" x="1381.5" y="-525" font-family="sans" font-size="10.00">get_ccs</text>
<text text-anchor="middle" x="1381.5" y="-514" font-family="sans" font-size="10.00">pacbioRun: pool2_Wuhan_Hu_1_210701_A</text>
</g>
<!-- 7&#45;&gt;5 -->
<g id="edge16" class="edge">
<title>7&#45;&gt;5</title>
<path fill="none" stroke="grey" stroke-width="2" d="M1269.75,-504.92C1266.97,-504.6 1264.22,-504.29 1261.5,-504 1048.98,-481.12 991.14,-497.83 775.88,-468.09"/>
<polygon fill="grey" stroke="grey" stroke-width="2" points="776.23,-464.6 765.84,-466.68 775.26,-471.53 776.23,-464.6"/>
</g>
<!-- 7&#45;&gt;14 -->
<g id="edge24" class="edge">
<title>7&#45;&gt;14</title>
<path fill="none" stroke="grey" stroke-width="2" d="M1269.74,-505C1266.97,-504.66 1264.22,-504.32 1261.5,-504 1101.08,-484.82 1056.09,-498.39 893.42,-467.97"/>
<polygon fill="grey" stroke="grey" stroke-width="2" points="894.04,-464.53 883.56,-466.1 892.73,-471.4 894.04,-464.53"/>
</g>
<!-- 7&#45;&gt;15 -->
<g id="edge32" class="edge">
<title>7&#45;&gt;15</title>
<path fill="none" stroke="grey" stroke-width="2" d="M1276.86,-503.97C1193.75,-490.44 1080.44,-471.99 1011.82,-460.82"/>
<polygon fill="grey" stroke="grey" stroke-width="2" points="1012.04,-457.31 1001.61,-459.16 1010.92,-464.22 1012.04,-457.31"/>
</g>
<!-- 8 -->
<g id="node9" class="node">
<title>8</title>
<path fill="none" stroke="#569ad8" stroke-width="2" d="M1722,-540C1722,-540 1523,-540 1523,-540 1517,-540 1511,-534 1511,-528 1511,-528 1511,-516 1511,-516 1511,-510 1517,-504 1523,-504 1523,-504 1722,-504 1722,-504 1728,-504 1734,-510 1734,-516 1734,-516 1734,-528 1734,-528 1734,-534 1728,-540 1722,-540"/>
<text text-anchor="middle" x="1622.5" y="-525" font-family="sans" font-size="10.00">get_ccs</text>
<text text-anchor="middle" x="1622.5" y="-514" font-family="sans" font-size="10.00">pacbioRun: pool1_Wuhan_Hu_1_211118_A</text>
</g>
<!-- 8&#45;&gt;5 -->
<g id="edge17" class="edge">
<title>8&#45;&gt;5</title>
<path fill="none" stroke="grey" stroke-width="2" d="M1510.76,-504.83C1507.98,-504.54 1505.22,-504.26 1502.5,-504 1183.32,-473.56 1097.55,-508.66 775.9,-468.06"/>
<polygon fill="grey" stroke="grey" stroke-width="2" points="776.19,-464.56 765.83,-466.77 775.3,-471.51 776.19,-464.56"/>
</g>
<!-- 8&#45;&gt;14 -->
<g id="edge25" class="edge">
<title>8&#45;&gt;14</title>
<path fill="none" stroke="grey" stroke-width="2" d="M1510.75,-504.86C1507.98,-504.56 1505.22,-504.27 1502.5,-504 1235.57,-477.26 1161.97,-512.99 893.58,-467.94"/>
<polygon fill="grey" stroke="grey" stroke-width="2" points="893.98,-464.46 883.54,-466.23 892.81,-471.36 893.98,-464.46"/>
</g>
<!-- 8&#45;&gt;15 -->
<g id="edge33" class="edge">
<title>8&#45;&gt;15</title>
<path fill="none" stroke="grey" stroke-width="2" d="M1510.74,-505C1507.97,-504.66 1505.22,-504.32 1502.5,-504 1324.44,-482.83 1113.22,-464.37 1011.78,-455.91"/>
<polygon fill="grey" stroke="grey" stroke-width="2" points="1011.98,-452.41 1001.72,-455.07 1011.4,-459.39 1011.98,-452.41"/>
</g>
<!-- 9 -->
<g id="node10" class="node">
<title>9</title>
<path fill="none" stroke="#569ad8" stroke-width="2" d="M211,-540C211,-540 12,-540 12,-540 6,-540 0,-534 0,-528 0,-528 0,-516 0,-516 0,-510 6,-504 12,-504 12,-504 211,-504 211,-504 217,-504 223,-510 223,-516 223,-516 223,-528 223,-528 223,-534 217,-540 211,-540"/>
<text text-anchor="middle" x="111.5" y="-525" font-family="sans" font-size="10.00">get_ccs</text>
<text text-anchor="middle" x="111.5" y="-514" font-family="sans" font-size="10.00">pacbioRun: pool1_Wuhan_Hu_1_211118_B</text>
</g>
<!-- 9&#45;&gt;5 -->
<g id="edge18" class="edge">
<title>9&#45;&gt;5</title>
<path fill="none" stroke="grey" stroke-width="2" d="M223.27,-505.07C226.04,-504.7 228.79,-504.35 231.5,-504 364.26,-486.98 518.82,-469.78 611.28,-459.77"/>
<polygon fill="grey" stroke="grey" stroke-width="2" points="611.84,-463.23 621.41,-458.67 611.09,-456.27 611.84,-463.23"/>
</g>
<!-- 9&#45;&gt;14 -->
<g id="edge26" class="edge">
<title>9&#45;&gt;14</title>
<path fill="none" stroke="grey" stroke-width="2" d="M223.25,-504.89C226.03,-504.58 228.78,-504.28 231.5,-504 468.78,-479.36 534.47,-508.89 773.42,-467.95"/>
<polygon fill="grey" stroke="grey" stroke-width="2" points="774.21,-471.37 783.46,-466.21 773.01,-464.47 774.21,-471.37"/>
</g>
<!-- 9&#45;&gt;15 -->
<g id="edge34" class="edge">
<title>9&#45;&gt;15</title>
<path fill="none" stroke="grey" stroke-width="2" d="M223.24,-504.85C226.02,-504.55 228.78,-504.27 231.5,-504 521.03,-475.66 600.62,-516.11 891.47,-467.93"/>
<polygon fill="grey" stroke="grey" stroke-width="2" points="892.18,-471.36 901.47,-466.25 891.02,-464.45 892.18,-471.36"/>
</g>
<!-- 10 -->
<g id="node11" class="node">
<title>10</title>
<path fill="none" stroke="#569ad8" stroke-width="2" d="M408,-540C408,-540 253,-540 253,-540 247,-540 241,-534 241,-528 241,-528 241,-516 241,-516 241,-510 247,-504 253,-504 253,-504 408,-504 408,-504 414,-504 420,-510 420,-516 420,-516 420,-528 420,-528 420,-534 414,-540 408,-540"/>
<text text-anchor="middle" x="330.5" y="-525" font-family="sans" font-size="10.00">get_ccs</text>
<text text-anchor="middle" x="330.5" y="-514" font-family="sans" font-size="10.00">pacbioRun: pool1_BA1_220524_A</text>
</g>
<!-- 10&#45;&gt;5 -->
<g id="edge19" class="edge">
<title>10&#45;&gt;5</title>
<path fill="none" stroke="grey" stroke-width="2" d="M418.84,-503.97C477.44,-492.67 553.81,-477.94 611.15,-466.88"/>
<polygon fill="grey" stroke="grey" stroke-width="2" points="612.1,-470.26 621.26,-464.93 610.78,-463.39 612.1,-470.26"/>
</g>
<!-- 10&#45;&gt;14 -->
<g id="edge27" class="edge">
<title>10&#45;&gt;14</title>
<path fill="none" stroke="grey" stroke-width="2" d="M420.18,-505.19C422.99,-504.78 425.76,-504.38 428.5,-504 578.35,-483.23 620.92,-496.9 773.24,-468.04"/>
<polygon fill="grey" stroke="grey" stroke-width="2" points="774.28,-471.41 783.43,-466.08 772.95,-464.53 774.28,-471.41"/>
</g>
<!-- 10&#45;&gt;15 -->
<g id="edge35" class="edge">
<title>10&#45;&gt;15</title>
<path fill="none" stroke="grey" stroke-width="2" d="M420.17,-505.1C422.98,-504.71 425.76,-504.34 428.5,-504 630.53,-478.7 687.2,-504.01 891.61,-467.93"/>
<polygon fill="grey" stroke="grey" stroke-width="2" points="892.23,-471.38 901.45,-466.17 890.99,-464.49 892.23,-471.38"/>
</g>
<!-- 11 -->
<g id="node12" class="node">
<title>11</title>
<path fill="none" stroke="#569ad8" stroke-width="2" d="M605,-540C605,-540 450,-540 450,-540 444,-540 438,-534 438,-528 438,-528 438,-516 438,-516 438,-510 444,-504 450,-504 450,-504 605,-504 605,-504 611,-504 617,-510 617,-516 617,-516 617,-528 617,-528 617,-534 611,-540 605,-540"/>
<text text-anchor="middle" x="527.5" y="-525" font-family="sans" font-size="10.00">get_ccs</text>
<text text-anchor="middle" x="527.5" y="-514" font-family="sans" font-size="10.00">pacbioRun: pool2_BA1_220524_A</text>
</g>
<!-- 11&#45;&gt;5 -->
<g id="edge20" class="edge">
<title>11&#45;&gt;5</title>
<path fill="none" stroke="grey" stroke-width="2" d="M568.11,-503.88C590.9,-494.26 619.53,-482.19 643.67,-472.01"/>
<polygon fill="grey" stroke="grey" stroke-width="2" points="645.17,-475.18 653.02,-468.07 642.45,-468.73 645.17,-475.18"/>
</g>
<!-- 11&#45;&gt;14 -->
<g id="edge28" class="edge">
<title>11&#45;&gt;14</title>
<path fill="none" stroke="grey" stroke-width="2" d="M613.86,-504C658.92,-494.76 715.14,-482.68 773.57,-468.15"/>
<polygon fill="grey" stroke="grey" stroke-width="2" points="774.5,-471.53 783.35,-465.71 772.8,-464.74 774.5,-471.53"/>
</g>
<!-- 11&#45;&gt;15 -->
<g id="edge36" class="edge">
<title>11&#45;&gt;15</title>
<path fill="none" stroke="grey" stroke-width="2" d="M617.2,-505.3C620,-504.86 622.77,-504.42 625.5,-504 740.61,-486.26 773.54,-492.29 891.28,-468.09"/>
<polygon fill="grey" stroke="grey" stroke-width="2" points="892.34,-471.44 901.41,-465.97 890.91,-464.59 892.34,-471.44"/>
</g>
<!-- 12 -->
<g id="node13" class="node">
<title>12</title>
<path fill="none" stroke="#569ad8" stroke-width="2" d="M802,-540C802,-540 647,-540 647,-540 641,-540 635,-534 635,-528 635,-528 635,-516 635,-516 635,-510 641,-504 647,-504 647,-504 802,-504 802,-504 808,-504 814,-510 814,-516 814,-516 814,-528 814,-528 814,-534 808,-540 802,-540"/>
<text text-anchor="middle" x="724.5" y="-525" font-family="sans" font-size="10.00">get_ccs</text>
<text text-anchor="middle" x="724.5" y="-514" font-family="sans" font-size="10.00">pacbioRun: pool1_BA2_220524_B</text>
</g>
<!-- 12&#45;&gt;5 -->
<g id="edge21" class="edge">
<title>12&#45;&gt;5</title>
<path fill="none" stroke="grey" stroke-width="2" d="M716.84,-503.7C713.31,-495.73 709.04,-486.1 705.13,-477.26"/>
<polygon fill="grey" stroke="grey" stroke-width="2" points="708.32,-475.83 701.07,-468.1 701.92,-478.67 708.32,-475.83"/>
</g>
<!-- 12&#45;&gt;14 -->
<g id="edge29" class="edge">
<title>12&#45;&gt;14</title>
<path fill="none" stroke="grey" stroke-width="2" d="M751.16,-503.88C765.28,-494.81 782.81,-483.55 798.06,-473.76"/>
<polygon fill="grey" stroke="grey" stroke-width="2" points="800.21,-476.54 806.73,-468.19 796.43,-470.65 800.21,-476.54"/>
</g>
<!-- 12&#45;&gt;15 -->
<g id="edge37" class="edge">
<title>12&#45;&gt;15</title>
<path fill="none" stroke="grey" stroke-width="2" d="M779.74,-503.97C813.54,-493.54 856.8,-480.2 891.45,-469.52"/>
<polygon fill="grey" stroke="grey" stroke-width="2" points="892.92,-472.73 901.45,-466.44 890.86,-466.04 892.92,-472.73"/>
</g>
<!-- 13 -->
<g id="node14" class="node">
<title>13</title>
<path fill="none" stroke="#569ad8" stroke-width="2" d="M999,-540C999,-540 844,-540 844,-540 838,-540 832,-534 832,-528 832,-528 832,-516 832,-516 832,-510 838,-504 844,-504 844,-504 999,-504 999,-504 1005,-504 1011,-510 1011,-516 1011,-516 1011,-528 1011,-528 1011,-534 1005,-540 999,-540"/>
<text text-anchor="middle" x="921.5" y="-525" font-family="sans" font-size="10.00">get_ccs</text>
<text text-anchor="middle" x="921.5" y="-514" font-family="sans" font-size="10.00">pacbioRun: pool2_BA2_220524_B</text>
</g>
<!-- 13&#45;&gt;5 -->
<g id="edge22" class="edge">
<title>13&#45;&gt;5</title>
<path fill="none" stroke="grey" stroke-width="2" d="M866.02,-503.97C833.74,-494.06 792.89,-481.51 759.04,-471.12"/>
<polygon fill="grey" stroke="grey" stroke-width="2" points="759.82,-467.7 749.23,-468.11 757.76,-474.39 759.82,-467.7"/>
</g>
<!-- 13&#45;&gt;14 -->
<g id="edge30" class="edge">
<title>13&#45;&gt;14</title>
<path fill="none" stroke="grey" stroke-width="2" d="M899.75,-503.7C888.66,-494.88 875.03,-484.03 863.01,-474.47"/>
<polygon fill="grey" stroke="grey" stroke-width="2" points="865.01,-471.59 855,-468.1 860.65,-477.07 865.01,-471.59"/>
</g>
<!-- 13&#45;&gt;15 -->
<g id="edge38" class="edge">
<title>13&#45;&gt;15</title>
<path fill="none" stroke="grey" stroke-width="2" d="M928.92,-503.7C932.29,-495.81 936.37,-486.3 940.12,-477.55"/>
<polygon fill="grey" stroke="grey" stroke-width="2" points="943.45,-478.67 944.17,-468.1 937.01,-475.92 943.45,-478.67"/>
</g>
<!-- 14&#45;&gt;0 -->
<g id="edge6" class="edge">
<title>14&#45;&gt;0</title>
<path fill="none" stroke="grey" stroke-width="2" d="M883.56,-433.2C936.2,-413.09 1011.5,-372.82 1011.5,-307 1011.5,-307 1011.5,-307 1011.5,-161 1011.5,-117.99 1006.99,-98.98 973.5,-72 940.47,-45.39 825.31,-30.53 754.29,-23.69"/>
<polygon fill="grey" stroke="grey" stroke-width="2" points="754.43,-20.19 744.14,-22.74 753.77,-27.16 754.43,-20.19"/>
</g>
<!-- 14&#45;&gt;16 -->
<g id="edge40" class="edge">
<title>14&#45;&gt;16</title>
<path fill="none" stroke="grey" stroke-width="2" d="M829.79,-431.7C828.14,-423.98 826.15,-414.71 824.31,-406.11"/>
<polygon fill="grey" stroke="grey" stroke-width="2" points="827.68,-405.15 822.17,-396.1 820.84,-406.62 827.68,-405.15"/>
</g>
<!-- 14&#45;&gt;17 -->
<g id="edge43" class="edge">
<title>14&#45;&gt;17</title>
<path fill="none" stroke="grey" stroke-width="2" d="M808.17,-431.93C794.72,-422.23 778.37,-409.38 765.5,-396 746.79,-376.55 729.17,-351.34 717.18,-332.72"/>
<polygon fill="grey" stroke="grey" stroke-width="2" points="720.06,-330.74 711.76,-324.16 714.15,-334.49 720.06,-330.74"/>
</g>
<!-- 14&#45;&gt;18 -->
<g id="edge47" class="edge">
<title>14&#45;&gt;18</title>
<path fill="none" stroke="grey" stroke-width="2" d="M847.01,-431.69C854.77,-421.5 864.52,-408.25 872.5,-396 885.87,-375.48 899.59,-351.32 909.43,-333.35"/>
<polygon fill="grey" stroke="grey" stroke-width="2" points="912.78,-334.53 914.47,-324.07 906.62,-331.19 912.78,-334.53"/>
</g>
<!-- 15&#45;&gt;0 -->
<g id="edge7" class="edge">
<title>15&#45;&gt;0</title>
<path fill="none" stroke="grey" stroke-width="2" d="M973.74,-431.92C1002.65,-407.6 1049.5,-360.02 1049.5,-307 1049.5,-307 1049.5,-307 1049.5,-161 1049.5,-116.27 1038.69,-98.29 1002.5,-72 963.78,-43.87 831.6,-29.27 754.21,-22.96"/>
<polygon fill="grey" stroke="grey" stroke-width="2" points="754.38,-19.46 744.13,-22.16 753.83,-26.44 754.38,-19.46"/>
</g>
<!-- 15&#45;&gt;16 -->
<g id="edge41" class="edge">
<title>15&#45;&gt;16</title>
<path fill="none" stroke="grey" stroke-width="2" d="M918.96,-431.88C901.25,-422.55 879.15,-410.92 860.18,-400.94"/>
<polygon fill="grey" stroke="grey" stroke-width="2" points="861.64,-397.75 851.16,-396.19 858.38,-403.94 861.64,-397.75"/>
</g>
<!-- 15&#45;&gt;17 -->
<g id="edge44" class="edge">
<title>15&#45;&gt;17</title>
<path fill="none" stroke="grey" stroke-width="2" d="M940.5,-431.71C926.87,-411.65 901.84,-378.92 872.5,-360 835.05,-335.86 785.93,-322.13 749.94,-314.73"/>
<polygon fill="grey" stroke="grey" stroke-width="2" points="750.18,-311.21 739.69,-312.72 748.83,-318.08 750.18,-311.21"/>
</g>
<!-- 15&#45;&gt;18 -->
<g id="edge48" class="edge">
<title>15&#45;&gt;18</title>
<path fill="none" stroke="grey" stroke-width="2" d="M951.33,-431.72C950.83,-413.63 949.11,-384.5 943.5,-360 941.5,-351.28 938.4,-342.06 935.22,-333.8"/>
<polygon fill="grey" stroke="grey" stroke-width="2" points="938.38,-332.26 931.39,-324.3 931.89,-334.88 938.38,-332.26"/>
</g>
<!-- 16&#45;&gt;0 -->
<g id="edge8" class="edge">
<title>16&#45;&gt;0</title>
<path fill="none" stroke="grey" stroke-width="2" d="M822.16,-359.85C827,-340.54 837.16,-309.09 855.5,-288 876.16,-264.25 900.89,-279.34 916.5,-252 940.83,-209.38 911.74,-189.56 893.5,-144 880.27,-110.97 885.31,-95.39 858.5,-72 829.5,-46.7 788.16,-33.43 754.5,-26.49"/>
<polygon fill="grey" stroke="grey" stroke-width="2" points="754.8,-22.99 744.32,-24.54 753.48,-29.86 754.8,-22.99"/>
</g>
<!-- 16&#45;&gt;17 -->
<g id="edge45" class="edge">
<title>16&#45;&gt;17</title>
<path fill="none" stroke="grey" stroke-width="2" d="M789.88,-359.88C774.58,-350.72 755.56,-339.34 739.08,-329.48"/>
<polygon fill="grey" stroke="grey" stroke-width="2" points="740.61,-326.32 730.23,-324.19 737.02,-332.33 740.61,-326.32"/>
</g>
<!-- 16&#45;&gt;18 -->
<g id="edge49" class="edge">
<title>16&#45;&gt;18</title>
<path fill="none" stroke="grey" stroke-width="2" d="M844.19,-359.88C857.79,-350.81 874.67,-339.55 889.36,-329.76"/>
<polygon fill="grey" stroke="grey" stroke-width="2" points="891.34,-332.65 897.72,-324.19 887.45,-326.82 891.34,-332.65"/>
</g>
<!-- 17&#45;&gt;0 -->
<g id="edge9" class="edge">
<title>17&#45;&gt;0</title>
<path fill="none" stroke="grey" stroke-width="2" d="M669.66,-287.91C635.32,-267.44 582.59,-229.61 560.5,-180 540.7,-135.55 547.27,-109.32 578.5,-72 594.07,-53.4 617.51,-41.06 639.4,-33.01"/>
<polygon fill="grey" stroke="grey" stroke-width="2" points="640.67,-36.27 648.99,-29.71 638.4,-29.65 640.67,-36.27"/>
</g>
<!-- 19 -->
<g id="node20" class="node">
<title>19</title>
<path fill="none" stroke="#d6d856" stroke-width="2" d="M731.5,-252C731.5,-252 661.5,-252 661.5,-252 655.5,-252 649.5,-246 649.5,-240 649.5,-240 649.5,-228 649.5,-228 649.5,-222 655.5,-216 661.5,-216 661.5,-216 731.5,-216 731.5,-216 737.5,-216 743.5,-222 743.5,-228 743.5,-228 743.5,-240 743.5,-240 743.5,-246 737.5,-252 731.5,-252"/>
<text text-anchor="middle" x="696.5" y="-231.5" font-family="sans" font-size="10.00">collapse_scores</text>
</g>
<!-- 17&#45;&gt;19 -->
<g id="edge50" class="edge">
<title>17&#45;&gt;19</title>
<path fill="none" stroke="grey" stroke-width="2" d="M700.26,-287.7C699.71,-279.98 699.05,-270.71 698.44,-262.11"/>
<polygon fill="grey" stroke="grey" stroke-width="2" points="701.93,-261.83 697.72,-252.1 694.94,-262.33 701.93,-261.83"/>
</g>
<!-- 18&#45;&gt;0 -->
<g id="edge10" class="edge">
<title>18&#45;&gt;0</title>
<path fill="none" stroke="grey" stroke-width="2" d="M934.55,-287.61C940.24,-277.62 946.58,-264.58 949.5,-252 967.59,-174.07 999.94,-134.1 949.5,-72 925.38,-42.3 821.17,-28.65 754.24,-22.85"/>
<polygon fill="grey" stroke="grey" stroke-width="2" points="754.5,-19.36 744.25,-22.02 753.92,-26.33 754.5,-19.36"/>
</g>
<!-- 18&#45;&gt;19 -->
<g id="edge51" class="edge">
<title>18&#45;&gt;19</title>
<path fill="none" stroke="grey" stroke-width="2" d="M868.26,-287.97C833.35,-277.2 788.36,-263.33 753.18,-252.48"/>
<polygon fill="grey" stroke="grey" stroke-width="2" points="754.12,-249.11 743.53,-249.5 752.06,-255.79 754.12,-249.11"/>
</g>
<!-- 19&#45;&gt;0 -->
<g id="edge11" class="edge">
<title>19&#45;&gt;0</title>
<path fill="none" stroke="grey" stroke-width="2" d="M649.39,-225.9C621.96,-219.08 589.52,-205.79 572.5,-180 538.38,-128.3 609.38,-71.79 657.37,-41.38"/>
<polygon fill="grey" stroke="grey" stroke-width="2" points="659.37,-44.26 666.03,-36.01 655.69,-38.31 659.37,-44.26"/>
</g>
<!-- 19&#45;&gt;20 -->
<g id="edge52" class="edge">
<title>19&#45;&gt;20</title>
<path fill="none" stroke="grey" stroke-width="2" d="M727.81,-215.88C744.7,-206.64 765.75,-195.13 783.88,-185.21"/>
<polygon fill="grey" stroke="grey" stroke-width="2" points="785.97,-188.06 793.07,-180.19 782.61,-181.92 785.97,-188.06"/>
</g>
<!-- 21 -->
<g id="node22" class="node">
<title>21</title>
<path fill="none" stroke="#d8b456" stroke-width="2" d="M784,-108C784,-108 695,-108 695,-108 689,-108 683,-102 683,-96 683,-96 683,-84 683,-84 683,-78 689,-72 695,-72 695,-72 784,-72 784,-72 790,-72 796,-78 796,-84 796,-84 796,-96 796,-96 796,-102 790,-108 784,-108"/>
<text text-anchor="middle" x="739.5" y="-87.5" font-family="sans" font-size="10.00">interactive_jsd_plot</text>
</g>
<!-- 19&#45;&gt;21 -->
<g id="edge54" class="edge">
<title>19&#45;&gt;21</title>
<path fill="none" stroke="grey" stroke-width="2" d="M711.7,-215.64C719.34,-205.86 727.93,-193.01 732.5,-180 739.46,-160.17 741.01,-136.37 740.93,-118.37"/>
<polygon fill="grey" stroke="grey" stroke-width="2" points="744.43,-118.19 740.71,-108.27 737.43,-118.34 744.43,-118.19"/>
</g>
<!-- 22 -->
<g id="node23" class="node">
<title>22</title>
<path fill="none" stroke="#b6d856" stroke-width="2" d="M711.5,-180C711.5,-180 593.5,-180 593.5,-180 587.5,-180 581.5,-174 581.5,-168 581.5,-168 581.5,-156 581.5,-156 581.5,-150 587.5,-144 593.5,-144 593.5,-144 711.5,-144 711.5,-144 717.5,-144 723.5,-150 723.5,-156 723.5,-156 723.5,-168 723.5,-168 723.5,-174 717.5,-180 711.5,-180"/>
<text text-anchor="middle" x="652.5" y="-159.5" font-family="sans" font-size="10.00">interactive_heatmap_plot</text>
</g>
<!-- 19&#45;&gt;22 -->
<g id="edge56" class="edge">
<title>19&#45;&gt;22</title>
<path fill="none" stroke="grey" stroke-width="2" d="M685.62,-215.7C680.51,-207.56 674.3,-197.69 668.66,-188.7"/>
<polygon fill="grey" stroke="grey" stroke-width="2" points="671.54,-186.71 663.25,-180.1 665.61,-190.43 671.54,-186.71"/>
</g>
<!-- 20&#45;&gt;0 -->
<g id="edge12" class="edge">
<title>20&#45;&gt;0</title>
<path fill="none" stroke="grey" stroke-width="2" d="M825.11,-143.74C824.9,-124.32 821.77,-92.77 805.5,-72 792.35,-55.2 772.51,-43.39 753.35,-35.26"/>
<polygon fill="grey" stroke="grey" stroke-width="2" points="754.62,-32 744.03,-31.56 752.03,-38.5 754.62,-32"/>
</g>
<!-- 20&#45;&gt;21 -->
<g id="edge55" class="edge">
<title>20&#45;&gt;21</title>
<path fill="none" stroke="grey" stroke-width="2" d="M803.49,-143.7C792.78,-134.88 779.61,-124.03 768,-114.47"/>
<polygon fill="grey" stroke="grey" stroke-width="2" points="770.21,-111.76 760.27,-108.1 765.76,-117.16 770.21,-111.76"/>
</g>
<!-- 21&#45;&gt;0 -->
<g id="edge13" class="edge">
<title>21&#45;&gt;0</title>
<path fill="none" stroke="grey" stroke-width="2" d="M728.87,-71.7C723.87,-63.56 717.81,-53.69 712.29,-44.7"/>
<polygon fill="grey" stroke="grey" stroke-width="2" points="715.22,-42.79 707.01,-36.1 709.26,-46.46 715.22,-42.79"/>
</g>
<!-- 22&#45;&gt;0 -->
<g id="edge14" class="edge">
<title>22&#45;&gt;0</title>
<path fill="none" stroke="grey" stroke-width="2" d="M655.64,-143.69C659.14,-125.57 665.4,-96.41 673.5,-72 676.41,-63.24 680.2,-53.93 683.86,-45.6"/>
<polygon fill="grey" stroke="grey" stroke-width="2" points="687.1,-46.92 688.03,-36.36 680.73,-44.03 687.1,-46.92"/>
</g>
</g>
</svg>
