<?xml version="1.0" encoding="UTF-8" standalone="no"?>
<!DOCTYPE svg PUBLIC "-//W3C//DTD SVG 1.1//EN"
 "http://www.w3.org/Graphics/SVG/1.1/DTD/svg11.dtd">
<!-- Generated by graphviz version 2.50.0 (20211209.0339)
 -->
<!-- Title: snakemake_dag Pages: 1 -->
<svg width="1742pt" height="548pt"
 viewBox="0.00 0.00 1742.00 548.00" xmlns="http://www.w3.org/2000/svg" xmlns:xlink="http://www.w3.org/1999/xlink">
<g id="graph0" class="graph" transform="scale(1 1) rotate(0) translate(4 544)">
<title>snakemake_dag</title>
<polygon fill="white" stroke="transparent" points="-4,4 -4,-544 1738,-544 1738,4 -4,4"/>
<!-- 0 -->
<g id="node1" class="node">
<title>0</title>
<path fill="none" stroke="#d8b456" stroke-width="2" d="M701,-36C701,-36 630,-36 630,-36 624,-36 618,-30 618,-24 618,-24 618,-12 618,-12 618,-6 624,0 630,0 630,0 701,0 701,0 707,0 713,-6 713,-12 713,-12 713,-24 713,-24 713,-30 707,-36 701,-36"/>
<text text-anchor="middle" x="665.5" y="-15.5" font-family="sans" font-size="10.00">make_summary</text>
</g>
<!-- 1 -->
<g id="node2" class="node">
<title>1</title>
<path fill="none" stroke="#9fd856" stroke-width="2" d="M128,-108C128,-108 85,-108 85,-108 79,-108 73,-102 73,-96 73,-96 73,-84 73,-84 73,-78 79,-72 85,-72 85,-72 128,-72 128,-72 134,-72 140,-78 140,-84 140,-84 140,-96 140,-96 140,-102 134,-108 128,-108"/>
<text text-anchor="middle" x="106.5" y="-87.5" font-family="sans" font-size="10.00">make_dag</text>
</g>
<!-- 1&#45;&gt;0 -->
<g id="edge1" class="edge">
<title>1&#45;&gt;0</title>
<path fill="none" stroke="grey" stroke-width="2" d="M140.02,-74.74C143.19,-73.7 146.38,-72.76 149.5,-72 312.41,-32.23 511.34,-22.28 607.69,-19.8"/>
<polygon fill="grey" stroke="grey" stroke-width="2" points="607.89,-23.3 617.81,-19.56 607.73,-16.3 607.89,-23.3"/>
</g>
<!-- 2 -->
<g id="node3" class="node">
<title>2</title>
<path fill="none" stroke="#56d863" stroke-width="2" d="M256.5,-108C256.5,-108 170.5,-108 170.5,-108 164.5,-108 158.5,-102 158.5,-96 158.5,-96 158.5,-84 158.5,-84 158.5,-78 164.5,-72 170.5,-72 170.5,-72 256.5,-72 256.5,-72 262.5,-72 268.5,-78 268.5,-84 268.5,-84 268.5,-96 268.5,-96 268.5,-102 262.5,-108 256.5,-108"/>
<text text-anchor="middle" x="213.5" y="-87.5" font-family="sans" font-size="10.00">get_mut_bind_expr</text>
</g>
<!-- 2&#45;&gt;0 -->
<g id="edge2" class="edge">
<title>2&#45;&gt;0</title>
<path fill="none" stroke="grey" stroke-width="2" d="M268.56,-73.91C271.57,-73.23 274.57,-72.59 277.5,-72 393.53,-48.76 531.15,-32.62 607.36,-24.67"/>
<polygon fill="grey" stroke="grey" stroke-width="2" points="608.11,-28.11 617.7,-23.6 607.39,-21.15 608.11,-28.11"/>
</g>
<!-- 3 -->
<g id="node4" class="node">
<title>3</title>
<path fill="none" stroke="#56d882" stroke-width="2" d="M412,-108C412,-108 299,-108 299,-108 293,-108 287,-102 287,-96 287,-96 287,-84 287,-84 287,-78 293,-72 299,-72 299,-72 412,-72 412,-72 418,-72 424,-78 424,-84 424,-84 424,-96 424,-96 424,-102 418,-108 412,-108"/>
<text text-anchor="middle" x="355.5" y="-87.5" font-family="sans" font-size="10.00">get_VOC_mut_bind_expr</text>
</g>
<!-- 3&#45;&gt;0 -->
<g id="edge3" class="edge">
<title>3&#45;&gt;0</title>
<path fill="none" stroke="grey" stroke-width="2" d="M424.3,-73.46C479.32,-61.04 555.58,-43.82 607.53,-32.09"/>
<polygon fill="grey" stroke="grey" stroke-width="2" points="608.59,-35.44 617.58,-29.82 607.05,-28.61 608.59,-35.44"/>
</g>
<!-- 4 -->
<g id="node5" class="node">
<title>4</title>
<path fill="none" stroke="#56d8c1" stroke-width="2" d="M802,-252C802,-252 681,-252 681,-252 675,-252 669,-246 669,-240 669,-240 669,-228 669,-228 669,-222 675,-216 681,-216 681,-216 802,-216 802,-216 808,-216 814,-222 814,-228 814,-228 814,-240 814,-240 814,-246 808,-252 802,-252"/>
<text text-anchor="middle" x="741.5" y="-231.5" font-family="sans" font-size="10.00">get_mut_antibody_escape</text>
</g>
<!-- 4&#45;&gt;0 -->
<g id="edge4" class="edge">
<title>4&#45;&gt;0</title>
<path fill="none" stroke="grey" stroke-width="2" d="M813.77,-215.94C847.25,-206.44 881.77,-193.76 891.5,-180 900.74,-166.94 896.35,-159.25 891.5,-144 879.61,-106.63 872.32,-94.92 840.5,-72 805.89,-47.07 759.4,-33.71 723.04,-26.64"/>
<polygon fill="grey" stroke="grey" stroke-width="2" points="723.54,-23.17 713.07,-24.81 722.27,-30.06 723.54,-23.17"/>
</g>
<!-- 21 -->
<g id="node22" class="node">
<title>21</title>
<path fill="none" stroke="#5692d8" stroke-width="2" d="M870.5,-180C870.5,-180 804.5,-180 804.5,-180 798.5,-180 792.5,-174 792.5,-168 792.5,-168 792.5,-156 792.5,-156 792.5,-150 798.5,-144 804.5,-144 804.5,-144 870.5,-144 870.5,-144 876.5,-144 882.5,-150 882.5,-156 882.5,-156 882.5,-168 882.5,-168 882.5,-174 876.5,-180 870.5,-180"/>
<text text-anchor="middle" x="837.5" y="-159.5" font-family="sans" font-size="10.00">epistatic_shifts</text>
</g>
<!-- 4&#45;&gt;21 -->
<g id="edge54" class="edge">
<title>4&#45;&gt;21</title>
<path fill="none" stroke="grey" stroke-width="2" d="M765.23,-215.7C777.44,-206.8 792.49,-195.82 805.68,-186.2"/>
<polygon fill="grey" stroke="grey" stroke-width="2" points="808.02,-188.82 814.04,-180.1 803.9,-183.17 808.02,-188.82"/>
</g>
<!-- 5 -->
<g id="node6" class="node">
<title>5</title>
<path fill="none" stroke="#d85656" stroke-width="2" d="M967,-252C967,-252 844,-252 844,-252 838,-252 832,-246 832,-240 832,-240 832,-228 832,-228 832,-222 838,-216 844,-216 844,-216 967,-216 967,-216 973,-216 979,-222 979,-228 979,-228 979,-240 979,-240 979,-246 973,-252 967,-252"/>
<text text-anchor="middle" x="905.5" y="-231.5" font-family="sans" font-size="10.00">get_mut_clade_occurrence</text>
</g>
<!-- 5&#45;&gt;0 -->
<g id="edge5" class="edge">
<title>5&#45;&gt;0</title>
<path fill="none" stroke="grey" stroke-width="2" d="M906.72,-215.82C907.39,-205.46 908.16,-191.98 908.5,-180 909.93,-129.42 911.88,-103.77 872.5,-72 830.18,-37.85 768.46,-25.44 723.43,-21.06"/>
<polygon fill="grey" stroke="grey" stroke-width="2" points="723.49,-17.55 713.22,-20.17 722.89,-24.52 723.49,-17.55"/>
</g>
<!-- 5&#45;&gt;21 -->
<g id="edge55" class="edge">
<title>5&#45;&gt;21</title>
<path fill="none" stroke="grey" stroke-width="2" d="M888.69,-215.7C880.37,-207.14 870.19,-196.66 861.11,-187.3"/>
<polygon fill="grey" stroke="grey" stroke-width="2" points="863.59,-184.84 854.12,-180.1 858.57,-189.72 863.59,-184.84"/>
</g>
<!-- 6 -->
<g id="node7" class="node">
<title>6</title>
<path fill="none" stroke="#56d0d8" stroke-width="2" d="M797.5,-468C797.5,-468 677.5,-468 677.5,-468 671.5,-468 665.5,-462 665.5,-456 665.5,-456 665.5,-444 665.5,-444 665.5,-438 671.5,-432 677.5,-432 677.5,-432 797.5,-432 797.5,-432 803.5,-432 809.5,-438 809.5,-444 809.5,-444 809.5,-456 809.5,-456 809.5,-462 803.5,-468 797.5,-468"/>
<text text-anchor="middle" x="737.5" y="-447.5" font-family="sans" font-size="10.00">process_ccs_Wuhan_Hu_1</text>
</g>
<!-- 6&#45;&gt;0 -->
<g id="edge6" class="edge">
<title>6&#45;&gt;0</title>
<path fill="none" stroke="grey" stroke-width="2" d="M665.34,-442.81C597.79,-435.56 503.34,-421.2 476.5,-396 446.63,-367.96 452.5,-347.97 452.5,-307 452.5,-307 452.5,-307 452.5,-161 452.5,-120.03 447.68,-101.11 476.5,-72 510.83,-37.32 565.89,-24.86 607.75,-20.6"/>
<polygon fill="grey" stroke="grey" stroke-width="2" points="608.16,-24.08 617.81,-19.71 607.54,-17.11 608.16,-24.08"/>
</g>
<!-- 17 -->
<g id="node18" class="node">
<title>17</title>
<path fill="none" stroke="#d87556" stroke-width="2" d="M915,-396C915,-396 850,-396 850,-396 844,-396 838,-390 838,-384 838,-384 838,-372 838,-372 838,-366 844,-360 850,-360 850,-360 915,-360 915,-360 921,-360 927,-366 927,-372 927,-372 927,-384 927,-384 927,-390 921,-396 915,-396"/>
<text text-anchor="middle" x="882.5" y="-375.5" font-family="sans" font-size="10.00">count_variants</text>
</g>
<!-- 6&#45;&gt;17 -->
<g id="edge40" class="edge">
<title>6&#45;&gt;17</title>
<path fill="none" stroke="grey" stroke-width="2" d="M772.97,-431.88C792.62,-422.39 817.22,-410.51 838.13,-400.42"/>
<polygon fill="grey" stroke="grey" stroke-width="2" points="839.66,-403.57 847.14,-396.07 836.62,-397.26 839.66,-403.57"/>
</g>
<!-- 18 -->
<g id="node19" class="node">
<title>18</title>
<path fill="none" stroke="#d8d356" stroke-width="2" d="M1043.5,-324C1043.5,-324 991.5,-324 991.5,-324 985.5,-324 979.5,-318 979.5,-312 979.5,-312 979.5,-300 979.5,-300 979.5,-294 985.5,-288 991.5,-288 991.5,-288 1043.5,-288 1043.5,-288 1049.5,-288 1055.5,-294 1055.5,-300 1055.5,-300 1055.5,-312 1055.5,-312 1055.5,-318 1049.5,-324 1043.5,-324"/>
<text text-anchor="middle" x="1017.5" y="-303.5" font-family="sans" font-size="10.00">fit_titrations</text>
</g>
<!-- 6&#45;&gt;18 -->
<g id="edge43" class="edge">
<title>6&#45;&gt;18</title>
<path fill="none" stroke="grey" stroke-width="2" d="M750.4,-431.98C766.52,-411.87 795.97,-378.79 828.5,-360 872.61,-334.52 929.65,-320.72 969.48,-313.66"/>
<polygon fill="grey" stroke="grey" stroke-width="2" points="970.2,-317.08 979.47,-311.96 969.03,-310.18 970.2,-317.08"/>
</g>
<!-- 19 -->
<g id="node20" class="node">
<title>19</title>
<path fill="none" stroke="#bed856" stroke-width="2" d="M819,-324C819,-324 724,-324 724,-324 718,-324 712,-318 712,-312 712,-312 712,-300 712,-300 712,-294 718,-288 724,-288 724,-288 819,-288 819,-288 825,-288 831,-294 831,-300 831,-300 831,-312 831,-312 831,-318 825,-324 819,-324"/>
<text text-anchor="middle" x="771.5" y="-303.5" font-family="sans" font-size="10.00">calculate_expression</text>
</g>
<!-- 6&#45;&gt;19 -->
<g id="edge47" class="edge">
<title>6&#45;&gt;19</title>
<path fill="none" stroke="grey" stroke-width="2" d="M741.15,-431.89C745.02,-413.94 751.41,-384.92 757.5,-360 759.56,-351.55 761.94,-342.38 764.14,-334.07"/>
<polygon fill="grey" stroke="grey" stroke-width="2" points="767.59,-334.71 766.8,-324.14 760.83,-332.9 767.59,-334.71"/>
</g>
<!-- 7 -->
<g id="node8" class="node">
<title>7</title>
<path fill="none" stroke="#88d856" stroke-width="2" d="M605,-540C605,-540 406,-540 406,-540 400,-540 394,-534 394,-528 394,-528 394,-516 394,-516 394,-510 400,-504 406,-504 406,-504 605,-504 605,-504 611,-504 617,-510 617,-516 617,-516 617,-528 617,-528 617,-534 611,-540 605,-540"/>
<text text-anchor="middle" x="505.5" y="-525" font-family="sans" font-size="10.00">get_ccs</text>
<text text-anchor="middle" x="505.5" y="-514" font-family="sans" font-size="10.00">pacbioRun: pool1_Wuhan_Hu_1_210701_A</text>
</g>
<!-- 7&#45;&gt;6 -->
<g id="edge16" class="edge">
<title>7&#45;&gt;6</title>
<path fill="none" stroke="grey" stroke-width="2" d="M561.96,-503.97C594.8,-494.06 636.37,-481.51 670.81,-471.12"/>
<polygon fill="grey" stroke="grey" stroke-width="2" points="672.23,-474.35 680.79,-468.11 670.21,-467.65 672.23,-474.35"/>
</g>
<!-- 15 -->
<g id="node16" class="node">
<title>15</title>
<path fill="none" stroke="#56d8a2" stroke-width="2" d="M915.5,-468C915.5,-468 839.5,-468 839.5,-468 833.5,-468 827.5,-462 827.5,-456 827.5,-456 827.5,-444 827.5,-444 827.5,-438 833.5,-432 839.5,-432 839.5,-432 915.5,-432 915.5,-432 921.5,-432 927.5,-438 927.5,-444 927.5,-444 927.5,-456 927.5,-456 927.5,-462 921.5,-468 915.5,-468"/>
<text text-anchor="middle" x="877.5" y="-447.5" font-family="sans" font-size="10.00">process_ccs_BA1</text>
</g>
<!-- 7&#45;&gt;15 -->
<g id="edge24" class="edge">
<title>7&#45;&gt;15</title>
<path fill="none" stroke="grey" stroke-width="2" d="M617.28,-505.21C674.57,-496.36 745.56,-484.24 817.27,-468.15"/>
<polygon fill="grey" stroke="grey" stroke-width="2" points="818.41,-471.48 827.39,-465.86 816.86,-464.66 818.41,-471.48"/>
</g>
<!-- 16 -->
<g id="node17" class="node">
<title>16</title>
<path fill="none" stroke="#68d856" stroke-width="2" d="M1033.5,-468C1033.5,-468 957.5,-468 957.5,-468 951.5,-468 945.5,-462 945.5,-456 945.5,-456 945.5,-444 945.5,-444 945.5,-438 951.5,-432 957.5,-432 957.5,-432 1033.5,-432 1033.5,-432 1039.5,-432 1045.5,-438 1045.5,-444 1045.5,-444 1045.5,-456 1045.5,-456 1045.5,-462 1039.5,-468 1033.5,-468"/>
<text text-anchor="middle" x="995.5" y="-447.5" font-family="sans" font-size="10.00">process_ccs_BA2</text>
</g>
<!-- 7&#45;&gt;16 -->
<g id="edge32" class="edge">
<title>7&#45;&gt;16</title>
<path fill="none" stroke="grey" stroke-width="2" d="M617.27,-505.07C620.04,-504.71 622.79,-504.35 625.5,-504 760.27,-486.66 798.3,-494.94 935.38,-468.04"/>
<polygon fill="grey" stroke="grey" stroke-width="2" points="936.3,-471.42 945.43,-466.04 934.94,-464.56 936.3,-471.42"/>
</g>
<!-- 8 -->
<g id="node9" class="node">
<title>8</title>
<path fill="none" stroke="#88d856" stroke-width="2" d="M846,-540C846,-540 647,-540 647,-540 641,-540 635,-534 635,-528 635,-528 635,-516 635,-516 635,-510 641,-504 647,-504 647,-504 846,-504 846,-504 852,-504 858,-510 858,-516 858,-516 858,-528 858,-528 858,-534 852,-540 846,-540"/>
<text text-anchor="middle" x="746.5" y="-525" font-family="sans" font-size="10.00">get_ccs</text>
<text text-anchor="middle" x="746.5" y="-514" font-family="sans" font-size="10.00">pacbioRun: pool2_Wuhan_Hu_1_210701_A</text>
</g>
<!-- 8&#45;&gt;6 -->
<g id="edge17" class="edge">
<title>8&#45;&gt;6</title>
<path fill="none" stroke="grey" stroke-width="2" d="M744.28,-503.7C743.28,-495.98 742.09,-486.71 740.99,-478.11"/>
<polygon fill="grey" stroke="grey" stroke-width="2" points="744.45,-477.58 739.7,-468.1 737.5,-478.47 744.45,-477.58"/>
</g>
<!-- 8&#45;&gt;15 -->
<g id="edge25" class="edge">
<title>8&#45;&gt;15</title>
<path fill="none" stroke="grey" stroke-width="2" d="M778.55,-503.88C795.99,-494.55 817.77,-482.92 836.44,-472.94"/>
<polygon fill="grey" stroke="grey" stroke-width="2" points="838.16,-475.99 845.33,-468.19 834.86,-469.82 838.16,-475.99"/>
</g>
<!-- 8&#45;&gt;16 -->
<g id="edge33" class="edge">
<title>8&#45;&gt;16</title>
<path fill="none" stroke="grey" stroke-width="2" d="M808.15,-503.95C843.02,-494.27 887.67,-481.82 935.66,-468.23"/>
<polygon fill="grey" stroke="grey" stroke-width="2" points="936.63,-471.59 945.3,-465.5 934.72,-464.86 936.63,-471.59"/>
</g>
<!-- 9 -->
<g id="node10" class="node">
<title>9</title>
<path fill="none" stroke="#88d856" stroke-width="2" d="M1087,-540C1087,-540 888,-540 888,-540 882,-540 876,-534 876,-528 876,-528 876,-516 876,-516 876,-510 882,-504 888,-504 888,-504 1087,-504 1087,-504 1093,-504 1099,-510 1099,-516 1099,-516 1099,-528 1099,-528 1099,-534 1093,-540 1087,-540"/>
<text text-anchor="middle" x="987.5" y="-525" font-family="sans" font-size="10.00">get_ccs</text>
<text text-anchor="middle" x="987.5" y="-514" font-family="sans" font-size="10.00">pacbioRun: pool1_Wuhan_Hu_1_211118_A</text>
</g>
<!-- 9&#45;&gt;6 -->
<g id="edge18" class="edge">
<title>9&#45;&gt;6</title>
<path fill="none" stroke="grey" stroke-width="2" d="M926.66,-503.97C890.97,-493.97 845.71,-481.3 808.41,-470.85"/>
<polygon fill="grey" stroke="grey" stroke-width="2" points="809.18,-467.44 798.61,-468.11 807.3,-474.18 809.18,-467.44"/>
</g>
<!-- 9&#45;&gt;15 -->
<g id="edge26" class="edge">
<title>9&#45;&gt;15</title>
<path fill="none" stroke="grey" stroke-width="2" d="M960.59,-503.88C946.34,-494.81 928.65,-483.55 913.26,-473.76"/>
<polygon fill="grey" stroke="grey" stroke-width="2" points="914.83,-470.61 904.51,-468.19 911.07,-476.51 914.83,-470.61"/>
</g>
<!-- 9&#45;&gt;16 -->
<g id="edge34" class="edge">
<title>9&#45;&gt;16</title>
<path fill="none" stroke="grey" stroke-width="2" d="M989.48,-503.7C990.36,-495.98 991.42,-486.71 992.4,-478.11"/>
<polygon fill="grey" stroke="grey" stroke-width="2" points="995.89,-478.44 993.55,-468.1 988.93,-477.64 995.89,-478.44"/>
</g>
<!-- 10 -->
<g id="node11" class="node">
<title>10</title>
<path fill="none" stroke="#88d856" stroke-width="2" d="M1328,-540C1328,-540 1129,-540 1129,-540 1123,-540 1117,-534 1117,-528 1117,-528 1117,-516 1117,-516 1117,-510 1123,-504 1129,-504 1129,-504 1328,-504 1328,-504 1334,-504 1340,-510 1340,-516 1340,-516 1340,-528 1340,-528 1340,-534 1334,-540 1328,-540"/>
<text text-anchor="middle" x="1228.5" y="-525" font-family="sans" font-size="10.00">get_ccs</text>
<text text-anchor="middle" x="1228.5" y="-514" font-family="sans" font-size="10.00">pacbioRun: pool1_Wuhan_Hu_1_211118_B</text>
</g>
<!-- 10&#45;&gt;6 -->
<g id="edge19" class="edge">
<title>10&#45;&gt;6</title>
<path fill="none" stroke="grey" stroke-width="2" d="M1116.76,-505.24C1113.64,-504.82 1110.55,-504.4 1107.5,-504 982.44,-487.43 947.91,-489.21 820.05,-468.19"/>
<polygon fill="grey" stroke="grey" stroke-width="2" points="820.31,-464.68 809.87,-466.5 819.16,-471.59 820.31,-464.68"/>
</g>
<!-- 10&#45;&gt;15 -->
<g id="edge27" class="edge">
<title>10&#45;&gt;15</title>
<path fill="none" stroke="grey" stroke-width="2" d="M1119.8,-503.96C1067.32,-495.08 1003.3,-483.31 937.73,-468.17"/>
<polygon fill="grey" stroke="grey" stroke-width="2" points="938.16,-464.68 927.62,-465.81 936.56,-471.5 938.16,-464.68"/>
</g>
<!-- 10&#45;&gt;16 -->
<g id="edge35" class="edge">
<title>10&#45;&gt;16</title>
<path fill="none" stroke="grey" stroke-width="2" d="M1171.8,-503.97C1136.59,-493.39 1091.37,-479.8 1055.55,-469.04"/>
<polygon fill="grey" stroke="grey" stroke-width="2" points="1056.29,-465.61 1045.71,-466.08 1054.28,-472.31 1056.29,-465.61"/>
</g>
<!-- 11 -->
<g id="node12" class="node">
<title>11</title>
<path fill="none" stroke="#88d856" stroke-width="2" d="M1525,-540C1525,-540 1370,-540 1370,-540 1364,-540 1358,-534 1358,-528 1358,-528 1358,-516 1358,-516 1358,-510 1364,-504 1370,-504 1370,-504 1525,-504 1525,-504 1531,-504 1537,-510 1537,-516 1537,-516 1537,-528 1537,-528 1537,-534 1531,-540 1525,-540"/>
<text text-anchor="middle" x="1447.5" y="-525" font-family="sans" font-size="10.00">get_ccs</text>
<text text-anchor="middle" x="1447.5" y="-514" font-family="sans" font-size="10.00">pacbioRun: pool1_BA1_220524_A</text>
</g>
<!-- 11&#45;&gt;6 -->
<g id="edge20" class="edge">
<title>11&#45;&gt;6</title>
<path fill="none" stroke="grey" stroke-width="2" d="M1357.98,-505.21C1354.78,-504.78 1351.62,-504.37 1348.5,-504 1117.39,-476.38 1054.16,-499.65 820.03,-468.1"/>
<polygon fill="grey" stroke="grey" stroke-width="2" points="820.22,-464.59 809.84,-466.7 819.27,-471.52 820.22,-464.59"/>
</g>
<!-- 11&#45;&gt;15 -->
<g id="edge28" class="edge">
<title>11&#45;&gt;15</title>
<path fill="none" stroke="grey" stroke-width="2" d="M1357.97,-505.28C1354.78,-504.83 1351.61,-504.4 1348.5,-504 1169.41,-480.84 1118.97,-500.87 937.43,-467.95"/>
<polygon fill="grey" stroke="grey" stroke-width="2" points="938.02,-464.51 927.55,-466.14 936.75,-471.39 938.02,-464.51"/>
</g>
<!-- 11&#45;&gt;16 -->
<g id="edge36" class="edge">
<title>11&#45;&gt;16</title>
<path fill="none" stroke="grey" stroke-width="2" d="M1357.94,-505.53C1354.75,-505.01 1351.6,-504.5 1348.5,-504 1245.72,-487.46 1125.82,-469.81 1055.54,-459.62"/>
<polygon fill="grey" stroke="grey" stroke-width="2" points="1055.93,-456.14 1045.53,-458.17 1054.93,-463.07 1055.93,-456.14"/>
</g>
<!-- 12 -->
<g id="node13" class="node">
<title>12</title>
<path fill="none" stroke="#88d856" stroke-width="2" d="M1722,-540C1722,-540 1567,-540 1567,-540 1561,-540 1555,-534 1555,-528 1555,-528 1555,-516 1555,-516 1555,-510 1561,-504 1567,-504 1567,-504 1722,-504 1722,-504 1728,-504 1734,-510 1734,-516 1734,-516 1734,-528 1734,-528 1734,-534 1728,-540 1722,-540"/>
<text text-anchor="middle" x="1644.5" y="-525" font-family="sans" font-size="10.00">get_ccs</text>
<text text-anchor="middle" x="1644.5" y="-514" font-family="sans" font-size="10.00">pacbioRun: pool2_BA1_220524_A</text>
</g>
<!-- 12&#45;&gt;6 -->
<g id="edge21" class="edge">
<title>12&#45;&gt;6</title>
<path fill="none" stroke="grey" stroke-width="2" d="M1554.84,-504.99C1552.03,-504.64 1549.25,-504.3 1546.5,-504 1227.83,-468.62 1141.56,-508.56 819.9,-468.05"/>
<polygon fill="grey" stroke="grey" stroke-width="2" points="820.19,-464.56 809.83,-466.77 819.3,-471.51 820.19,-464.56"/>
</g>
<!-- 12&#45;&gt;15 -->
<g id="edge29" class="edge">
<title>12&#45;&gt;15</title>
<path fill="none" stroke="grey" stroke-width="2" d="M1554.84,-505.03C1552.03,-504.66 1549.24,-504.32 1546.5,-504 1280.02,-473.12 1205.98,-512.88 937.58,-467.94"/>
<polygon fill="grey" stroke="grey" stroke-width="2" points="937.98,-464.46 927.54,-466.23 936.81,-471.36 937.98,-464.46"/>
</g>
<!-- 12&#45;&gt;16 -->
<g id="edge37" class="edge">
<title>12&#45;&gt;16</title>
<path fill="none" stroke="grey" stroke-width="2" d="M1554.82,-505.16C1552.02,-504.76 1549.24,-504.37 1546.5,-504 1368.79,-480.07 1157.41,-462.87 1055.86,-455.3"/>
<polygon fill="grey" stroke="grey" stroke-width="2" points="1056.02,-451.8 1045.79,-454.55 1055.5,-458.78 1056.02,-451.8"/>
</g>
<!-- 13 -->
<g id="node14" class="node">
<title>13</title>
<path fill="none" stroke="#88d856" stroke-width="2" d="M167,-540C167,-540 12,-540 12,-540 6,-540 0,-534 0,-528 0,-528 0,-516 0,-516 0,-510 6,-504 12,-504 12,-504 167,-504 167,-504 173,-504 179,-510 179,-516 179,-516 179,-528 179,-528 179,-534 173,-540 167,-540"/>
<text text-anchor="middle" x="89.5" y="-525" font-family="sans" font-size="10.00">get_ccs</text>
<text text-anchor="middle" x="89.5" y="-514" font-family="sans" font-size="10.00">pacbioRun: pool1_BA2_220524_B</text>
</g>
<!-- 13&#45;&gt;6 -->
<g id="edge22" class="edge">
<title>13&#45;&gt;6</title>
<path fill="none" stroke="grey" stroke-width="2" d="M179.18,-505.16C181.98,-504.76 184.76,-504.37 187.5,-504 352.82,-481.73 547.31,-465.26 655.07,-456.99"/>
<polygon fill="grey" stroke="grey" stroke-width="2" points="655.52,-460.46 665.23,-456.21 654.99,-453.48 655.52,-460.46"/>
</g>
<!-- 13&#45;&gt;15 -->
<g id="edge30" class="edge">
<title>13&#45;&gt;15</title>
<path fill="none" stroke="grey" stroke-width="2" d="M179.16,-505.02C181.97,-504.66 184.76,-504.32 187.5,-504 463.29,-472.32 539.8,-514.18 817.5,-467.92"/>
<polygon fill="grey" stroke="grey" stroke-width="2" points="818.19,-471.36 827.46,-466.24 817.02,-464.46 818.19,-471.36"/>
</g>
<!-- 13&#45;&gt;16 -->
<g id="edge38" class="edge">
<title>13&#45;&gt;16</title>
<path fill="none" stroke="grey" stroke-width="2" d="M179.16,-504.99C181.97,-504.63 184.75,-504.3 187.5,-504 515.37,-467.82 605.86,-521.39 935.16,-467.97"/>
<polygon fill="grey" stroke="grey" stroke-width="2" points="936.17,-471.35 945.47,-466.27 935.03,-464.44 936.17,-471.35"/>
</g>
<!-- 14 -->
<g id="node15" class="node">
<title>14</title>
<path fill="none" stroke="#88d856" stroke-width="2" d="M364,-540C364,-540 209,-540 209,-540 203,-540 197,-534 197,-528 197,-528 197,-516 197,-516 197,-510 203,-504 209,-504 209,-504 364,-504 364,-504 370,-504 376,-510 376,-516 376,-516 376,-528 376,-528 376,-534 370,-540 364,-540"/>
<text text-anchor="middle" x="286.5" y="-525" font-family="sans" font-size="10.00">get_ccs</text>
<text text-anchor="middle" x="286.5" y="-514" font-family="sans" font-size="10.00">pacbioRun: pool2_BA2_220524_B</text>
</g>
<!-- 14&#45;&gt;6 -->
<g id="edge23" class="edge">
<title>14&#45;&gt;6</title>
<path fill="none" stroke="grey" stroke-width="2" d="M376.21,-505.35C379,-504.89 381.77,-504.44 384.5,-504 477.06,-489.02 583.53,-473.24 655.12,-462.83"/>
<polygon fill="grey" stroke="grey" stroke-width="2" points="656.03,-466.23 665.42,-461.33 655.02,-459.31 656.03,-466.23"/>
</g>
<!-- 14&#45;&gt;15 -->
<g id="edge31" class="edge">
<title>14&#45;&gt;15</title>
<path fill="none" stroke="grey" stroke-width="2" d="M376.17,-505.12C378.98,-504.72 381.76,-504.35 384.5,-504 573.21,-479.85 626.33,-502.18 817.36,-467.99"/>
<polygon fill="grey" stroke="grey" stroke-width="2" points="818.24,-471.38 827.45,-466.15 816.98,-464.5 818.24,-471.38"/>
</g>
<!-- 14&#45;&gt;16 -->
<g id="edge39" class="edge">
<title>14&#45;&gt;16</title>
<path fill="none" stroke="grey" stroke-width="2" d="M376.17,-505.05C378.97,-504.68 381.76,-504.33 384.5,-504 625.29,-475.35 692.48,-509.33 935.26,-467.98"/>
<polygon fill="grey" stroke="grey" stroke-width="2" points="936.2,-471.37 945.46,-466.21 935.01,-464.47 936.2,-471.37"/>
</g>
<!-- 15&#45;&gt;0 -->
<g id="edge7" class="edge">
<title>15&#45;&gt;0</title>
<path fill="none" stroke="grey" stroke-width="2" d="M827.3,-433.29C722.59,-400.16 490.5,-324.74 490.5,-307 490.5,-307 490.5,-307 490.5,-161 490.5,-99.12 557.29,-59.5 608.35,-38.26"/>
<polygon fill="grey" stroke="grey" stroke-width="2" points="609.71,-41.48 617.68,-34.5 607.1,-34.99 609.71,-41.48"/>
</g>
<!-- 15&#45;&gt;17 -->
<g id="edge41" class="edge">
<title>15&#45;&gt;17</title>
<path fill="none" stroke="grey" stroke-width="2" d="M878.74,-431.7C879.29,-423.98 879.95,-414.71 880.56,-406.11"/>
<polygon fill="grey" stroke="grey" stroke-width="2" points="884.06,-406.33 881.28,-396.1 877.07,-405.83 884.06,-406.33"/>
</g>
<!-- 15&#45;&gt;18 -->
<g id="edge44" class="edge">
<title>15&#45;&gt;18</title>
<path fill="none" stroke="grey" stroke-width="2" d="M896.95,-431.98C908.4,-421.78 923.03,-408.42 935.5,-396 956.54,-375.04 979.35,-350.1 995.55,-331.95"/>
<polygon fill="grey" stroke="grey" stroke-width="2" points="998.48,-333.93 1002.5,-324.14 993.24,-329.28 998.48,-333.93"/>
</g>
<!-- 15&#45;&gt;19 -->
<g id="edge48" class="edge">
<title>15&#45;&gt;19</title>
<path fill="none" stroke="grey" stroke-width="2" d="M859.89,-431.54C850.18,-421.53 838.15,-408.49 828.5,-396 812.93,-375.85 797.48,-351.38 786.61,-333.21"/>
<polygon fill="grey" stroke="grey" stroke-width="2" points="789.46,-331.16 781.36,-324.33 783.44,-334.72 789.46,-331.16"/>
</g>
<!-- 16&#45;&gt;0 -->
<g id="edge8" class="edge">
<title>16&#45;&gt;0</title>
<path fill="none" stroke="grey" stroke-width="2" d="M1015.03,-431.86C1040.96,-407.11 1083.5,-358.63 1083.5,-307 1083.5,-307 1083.5,-307 1083.5,-161 1083.5,-118.16 1080.41,-98.18 1046.5,-72 997.14,-33.89 817.05,-23.18 723.22,-20.17"/>
<polygon fill="grey" stroke="grey" stroke-width="2" points="723.15,-16.67 713.04,-19.86 722.93,-23.66 723.15,-16.67"/>
</g>
<!-- 16&#45;&gt;17 -->
<g id="edge42" class="edge">
<title>16&#45;&gt;17</title>
<path fill="none" stroke="grey" stroke-width="2" d="M967.86,-431.88C953.08,-422.72 934.71,-411.34 918.8,-401.48"/>
<polygon fill="grey" stroke="grey" stroke-width="2" points="920.59,-398.48 910.25,-396.19 916.91,-404.43 920.59,-398.48"/>
</g>
<!-- 16&#45;&gt;18 -->
<g id="edge45" class="edge">
<title>16&#45;&gt;18</title>
<path fill="none" stroke="grey" stroke-width="2" d="M999.88,-431.91C1002.4,-421.57 1005.46,-408.09 1007.5,-396 1010.97,-375.43 1013.55,-351.98 1015.22,-334.31"/>
<polygon fill="grey" stroke="grey" stroke-width="2" points="1018.73,-334.42 1016.14,-324.14 1011.75,-333.78 1018.73,-334.42"/>
</g>
<!-- 16&#45;&gt;19 -->
<g id="edge49" class="edge">
<title>16&#45;&gt;19</title>
<path fill="none" stroke="grey" stroke-width="2" d="M988.14,-431.71C978.75,-411.66 960.66,-378.94 935.5,-360 908.1,-339.38 872.37,-326.6 841.25,-318.78"/>
<polygon fill="grey" stroke="grey" stroke-width="2" points="841.87,-315.32 831.33,-316.4 840.24,-322.13 841.87,-315.32"/>
</g>
<!-- 17&#45;&gt;0 -->
<g id="edge9" class="edge">
<title>17&#45;&gt;0</title>
<path fill="none" stroke="grey" stroke-width="2" d="M904.05,-359.87C929.64,-338.01 970.91,-297.54 987.5,-252 1015.6,-174.86 909.54,-77.82 901.5,-72 849.31,-34.22 774.91,-22.68 723.67,-19.51"/>
<polygon fill="grey" stroke="grey" stroke-width="2" points="723.59,-16 713.42,-18.97 723.22,-22.99 723.59,-16"/>
</g>
<!-- 17&#45;&gt;18 -->
<g id="edge46" class="edge">
<title>17&#45;&gt;18</title>
<path fill="none" stroke="grey" stroke-width="2" d="M915.52,-359.88C933.58,-350.51 956.15,-338.81 975.45,-328.8"/>
<polygon fill="grey" stroke="grey" stroke-width="2" points="977.08,-331.9 984.35,-324.19 973.86,-325.69 977.08,-331.9"/>
</g>
<!-- 17&#45;&gt;19 -->
<g id="edge50" class="edge">
<title>17&#45;&gt;19</title>
<path fill="none" stroke="grey" stroke-width="2" d="M855.35,-359.88C840.97,-350.81 823.12,-339.55 807.59,-329.76"/>
<polygon fill="grey" stroke="grey" stroke-width="2" points="809.08,-326.56 798.76,-324.19 805.35,-332.48 809.08,-326.56"/>
</g>
<!-- 18&#45;&gt;0 -->
<g id="edge10" class="edge">
<title>18&#45;&gt;0</title>
<path fill="none" stroke="grey" stroke-width="2" d="M1024.6,-287.8C1040.85,-245.35 1075.39,-134.51 1021.5,-72 983.69,-28.14 814,-20.01 723.23,-18.86"/>
<polygon fill="grey" stroke="grey" stroke-width="2" points="723.13,-15.36 713.1,-18.76 723.06,-22.36 723.13,-15.36"/>
</g>
<!-- 20 -->
<g id="node21" class="node">
<title>20</title>
<path fill="none" stroke="#56b1d8" stroke-width="2" d="M638.5,-252C638.5,-252 568.5,-252 568.5,-252 562.5,-252 556.5,-246 556.5,-240 556.5,-240 556.5,-228 556.5,-228 556.5,-222 562.5,-216 568.5,-216 568.5,-216 638.5,-216 638.5,-216 644.5,-216 650.5,-222 650.5,-228 650.5,-228 650.5,-240 650.5,-240 650.5,-246 644.5,-252 638.5,-252"/>
<text text-anchor="middle" x="603.5" y="-231.5" font-family="sans" font-size="10.00">collapse_scores</text>
</g>
<!-- 18&#45;&gt;20 -->
<g id="edge51" class="edge">
<title>18&#45;&gt;20</title>
<path fill="none" stroke="grey" stroke-width="2" d="M979.27,-301.22C915.17,-294.47 781.87,-278.7 660.55,-252.06"/>
<polygon fill="grey" stroke="grey" stroke-width="2" points="661.25,-248.63 650.73,-249.87 659.73,-255.46 661.25,-248.63"/>
</g>
<!-- 19&#45;&gt;0 -->
<g id="edge11" class="edge">
<title>19&#45;&gt;0</title>
<path fill="none" stroke="grey" stroke-width="2" d="M711.75,-299.15C652.47,-291.96 567.64,-277.47 547.5,-252 513.47,-208.97 525.31,-172.81 597.5,-72 605.69,-60.56 617.04,-50.37 628.12,-42.06"/>
<polygon fill="grey" stroke="grey" stroke-width="2" points="630.39,-44.74 636.49,-36.08 626.32,-39.05 630.39,-44.74"/>
</g>
<!-- 19&#45;&gt;20 -->
<g id="edge52" class="edge">
<title>19&#45;&gt;20</title>
<path fill="none" stroke="grey" stroke-width="2" d="M730.4,-287.88C707.33,-278.26 678.36,-266.19 653.93,-256.01"/>
<polygon fill="grey" stroke="grey" stroke-width="2" points="655.04,-252.68 644.46,-252.07 652.35,-259.15 655.04,-252.68"/>
</g>
<!-- 20&#45;&gt;0 -->
<g id="edge12" class="edge">
<title>20&#45;&gt;0</title>
<path fill="none" stroke="grey" stroke-width="2" d="M595.1,-215.73C587.44,-197.64 578.33,-168.51 585.5,-144 596.76,-105.51 623.9,-67.62 643.45,-43.82"/>
<polygon fill="grey" stroke="grey" stroke-width="2" points="646.26,-45.92 650.01,-36.02 640.9,-41.42 646.26,-45.92"/>
</g>
<!-- 20&#45;&gt;21 -->
<g id="edge53" class="edge">
<title>20&#45;&gt;21</title>
<path fill="none" stroke="grey" stroke-width="2" d="M650.55,-218.7C653.58,-217.78 656.58,-216.88 659.5,-216 700.85,-203.57 747.64,-189.64 782.87,-179.18"/>
<polygon fill="grey" stroke="grey" stroke-width="2" points="783.9,-182.53 792.49,-176.33 781.91,-175.82 783.9,-182.53"/>
</g>
<!-- 22 -->
<g id="node23" class="node">
<title>22</title>
<path fill="none" stroke="#d89556" stroke-width="2" d="M797,-108C797,-108 708,-108 708,-108 702,-108 696,-102 696,-96 696,-96 696,-84 696,-84 696,-78 702,-72 708,-72 708,-72 797,-72 797,-72 803,-72 809,-78 809,-84 809,-84 809,-96 809,-96 809,-102 803,-108 797,-108"/>
<text text-anchor="middle" x="752.5" y="-87.5" font-family="sans" font-size="10.00">interactive_jsd_plot</text>
</g>
<!-- 20&#45;&gt;22 -->
<g id="edge56" class="edge">
<title>20&#45;&gt;22</title>
<path fill="none" stroke="grey" stroke-width="2" d="M650.64,-218.19C689.58,-205.51 739.42,-188.06 745.5,-180 758.65,-162.56 759.44,-137.36 757.5,-118.22"/>
<polygon fill="grey" stroke="grey" stroke-width="2" points="760.97,-117.76 756.2,-108.3 754.03,-118.67 760.97,-117.76"/>
</g>
<!-- 23 -->
<g id="node24" class="node">
<title>23</title>
<path fill="none" stroke="#5673d8" stroke-width="2" d="M724.5,-180C724.5,-180 606.5,-180 606.5,-180 600.5,-180 594.5,-174 594.5,-168 594.5,-168 594.5,-156 594.5,-156 594.5,-150 600.5,-144 606.5,-144 606.5,-144 724.5,-144 724.5,-144 730.5,-144 736.5,-150 736.5,-156 736.5,-156 736.5,-168 736.5,-168 736.5,-174 730.5,-180 724.5,-180"/>
<text text-anchor="middle" x="665.5" y="-159.5" font-family="sans" font-size="10.00">interactive_heatmap_plot</text>
</g>
<!-- 20&#45;&gt;23 -->
<g id="edge58" class="edge">
<title>20&#45;&gt;23</title>
<path fill="none" stroke="grey" stroke-width="2" d="M618.83,-215.7C626.26,-207.3 635.32,-197.07 643.48,-187.86"/>
<polygon fill="grey" stroke="grey" stroke-width="2" points="646.34,-189.91 650.35,-180.1 641.1,-185.27 646.34,-189.91"/>
</g>
<!-- 21&#45;&gt;0 -->
<g id="edge13" class="edge">
<title>21&#45;&gt;0</title>
<path fill="none" stroke="grey" stroke-width="2" d="M838.31,-143.72C838.29,-123.98 835.21,-91.86 817.5,-72 793.58,-45.18 755.35,-31.93 723.21,-25.39"/>
<polygon fill="grey" stroke="grey" stroke-width="2" points="723.48,-21.88 713.01,-23.49 722.2,-28.76 723.48,-21.88"/>
</g>
<!-- 21&#45;&gt;22 -->
<g id="edge57" class="edge">
<title>21&#45;&gt;22</title>
<path fill="none" stroke="grey" stroke-width="2" d="M816.49,-143.7C805.78,-134.88 792.61,-124.03 781,-114.47"/>
<polygon fill="grey" stroke="grey" stroke-width="2" points="783.21,-111.76 773.27,-108.1 778.76,-117.16 783.21,-111.76"/>
</g>
<!-- 22&#45;&gt;0 -->
<g id="edge14" class="edge">
<title>22&#45;&gt;0</title>
<path fill="none" stroke="grey" stroke-width="2" d="M730.99,-71.7C720.04,-62.88 706.55,-52.03 694.68,-42.47"/>
<polygon fill="grey" stroke="grey" stroke-width="2" points="696.74,-39.65 686.76,-36.1 692.36,-45.1 696.74,-39.65"/>
</g>
<!-- 23&#45;&gt;0 -->
<g id="edge15" class="edge">
<title>23&#45;&gt;0</title>
<path fill="none" stroke="grey" stroke-width="2" d="M665.5,-143.87C665.5,-119.67 665.5,-75.21 665.5,-46.39"/>
<polygon fill="grey" stroke="grey" stroke-width="2" points="669,-46.19 665.5,-36.19 662,-46.19 669,-46.19"/>
</g>
</g>
</svg>
