<?xml version="1.0" encoding="UTF-8" standalone="no"?>
<!DOCTYPE svg PUBLIC "-//W3C//DTD SVG 1.1//EN"
 "http://www.w3.org/Graphics/SVG/1.1/DTD/svg11.dtd">
<!-- Generated by graphviz version 2.50.0 (20211209.0339)
 -->
<!-- Title: snakemake_dag Pages: 1 -->
<svg width="1742pt" height="548pt"
 viewBox="0.00 0.00 1742.00 548.00" xmlns="http://www.w3.org/2000/svg" xmlns:xlink="http://www.w3.org/1999/xlink">
<g id="graph0" class="graph" transform="scale(1 1) rotate(0) translate(4 544)">
<title>snakemake_dag</title>
<polygon fill="white" stroke="transparent" points="-4,4 -4,-544 1738,-544 1738,4 -4,4"/>
<!-- 0 -->
<g id="node1" class="node">
<title>0</title>
<path fill="none" stroke="#78d856" stroke-width="2" d="M725,-36C725,-36 654,-36 654,-36 648,-36 642,-30 642,-24 642,-24 642,-12 642,-12 642,-6 648,0 654,0 654,0 725,0 725,0 731,0 737,-6 737,-12 737,-12 737,-24 737,-24 737,-30 731,-36 725,-36"/>
<text text-anchor="middle" x="689.5" y="-15.5" font-family="sans" font-size="10.00">make_summary</text>
</g>
<!-- 1 -->
<g id="node2" class="node">
<title>1</title>
<path fill="none" stroke="#d6d856" stroke-width="2" d="M230,-108C230,-108 187,-108 187,-108 181,-108 175,-102 175,-96 175,-96 175,-84 175,-84 175,-78 181,-72 187,-72 187,-72 230,-72 230,-72 236,-72 242,-78 242,-84 242,-84 242,-96 242,-96 242,-102 236,-108 230,-108"/>
<text text-anchor="middle" x="208.5" y="-87.5" font-family="sans" font-size="10.00">make_dag</text>
</g>
<!-- 1&#45;&gt;0 -->
<g id="edge1" class="edge">
<title>1&#45;&gt;0</title>
<path fill="none" stroke="grey" stroke-width="2" d="M242.03,-74.8C245.2,-73.75 248.39,-72.79 251.5,-72 384.96,-38.14 546.94,-25.7 631.6,-21.29"/>
<polygon fill="grey" stroke="grey" stroke-width="2" points="631.97,-24.78 641.78,-20.78 631.62,-17.79 631.97,-24.78"/>
</g>
<!-- 2 -->
<g id="node3" class="node">
<title>2</title>
<path fill="none" stroke="#59d856" stroke-width="2" d="M358.5,-108C358.5,-108 272.5,-108 272.5,-108 266.5,-108 260.5,-102 260.5,-96 260.5,-96 260.5,-84 260.5,-84 260.5,-78 266.5,-72 272.5,-72 272.5,-72 358.5,-72 358.5,-72 364.5,-72 370.5,-78 370.5,-84 370.5,-84 370.5,-96 370.5,-96 370.5,-102 364.5,-108 358.5,-108"/>
<text text-anchor="middle" x="315.5" y="-87.5" font-family="sans" font-size="10.00">get_mut_bind_expr</text>
</g>
<!-- 2&#45;&gt;0 -->
<g id="edge2" class="edge">
<title>2&#45;&gt;0</title>
<path fill="none" stroke="grey" stroke-width="2" d="M370.78,-75.02C375.41,-73.96 380.03,-72.94 384.5,-72 470.2,-54.02 570.36,-37.46 631.86,-27.79"/>
<polygon fill="grey" stroke="grey" stroke-width="2" points="632.42,-31.25 641.76,-26.24 631.34,-24.33 632.42,-31.25"/>
</g>
<!-- 3 -->
<g id="node4" class="node">
<title>3</title>
<path fill="none" stroke="#56d87b" stroke-width="2" d="M862,-252C862,-252 741,-252 741,-252 735,-252 729,-246 729,-240 729,-240 729,-228 729,-228 729,-222 735,-216 741,-216 741,-216 862,-216 862,-216 868,-216 874,-222 874,-228 874,-228 874,-240 874,-240 874,-246 868,-252 862,-252"/>
<text text-anchor="middle" x="801.5" y="-231.5" font-family="sans" font-size="10.00">get_mut_antibody_escape</text>
</g>
<!-- 3&#45;&gt;0 -->
<g id="edge3" class="edge">
<title>3&#45;&gt;0</title>
<path fill="none" stroke="grey" stroke-width="2" d="M817.11,-215.77C824.87,-206.03 833.45,-193.18 837.5,-180 851.71,-133.79 855.19,-109.36 824.5,-72 805.28,-48.61 774.34,-35.5 746.92,-28.17"/>
<polygon fill="grey" stroke="grey" stroke-width="2" points="747.56,-24.72 737.01,-25.72 745.88,-31.52 747.56,-24.72"/>
</g>
<!-- 19 -->
<g id="node20" class="node">
<title>19</title>
<path fill="none" stroke="#56d8b9" stroke-width="2" d="M816.5,-180C816.5,-180 750.5,-180 750.5,-180 744.5,-180 738.5,-174 738.5,-168 738.5,-168 738.5,-156 738.5,-156 738.5,-150 744.5,-144 750.5,-144 750.5,-144 816.5,-144 816.5,-144 822.5,-144 828.5,-150 828.5,-156 828.5,-156 828.5,-168 828.5,-168 828.5,-174 822.5,-180 816.5,-180"/>
<text text-anchor="middle" x="783.5" y="-159.5" font-family="sans" font-size="10.00">epistatic_shifts</text>
</g>
<!-- 3&#45;&gt;19 -->
<g id="edge53" class="edge">
<title>3&#45;&gt;19</title>
<path fill="none" stroke="grey" stroke-width="2" d="M797.05,-215.7C795.05,-207.9 792.63,-198.51 790.4,-189.83"/>
<polygon fill="grey" stroke="grey" stroke-width="2" points="793.78,-188.92 787.9,-180.1 787,-190.66 793.78,-188.92"/>
</g>
<!-- 4 -->
<g id="node5" class="node">
<title>4</title>
<path fill="none" stroke="#d87556" stroke-width="2" d="M720.5,-468C720.5,-468 600.5,-468 600.5,-468 594.5,-468 588.5,-462 588.5,-456 588.5,-456 588.5,-444 588.5,-444 588.5,-438 594.5,-432 600.5,-432 600.5,-432 720.5,-432 720.5,-432 726.5,-432 732.5,-438 732.5,-444 732.5,-444 732.5,-456 732.5,-456 732.5,-462 726.5,-468 720.5,-468"/>
<text text-anchor="middle" x="660.5" y="-447.5" font-family="sans" font-size="10.00">process_ccs_Wuhan_Hu_1</text>
</g>
<!-- 4&#45;&gt;0 -->
<g id="edge4" class="edge">
<title>4&#45;&gt;0</title>
<path fill="none" stroke="grey" stroke-width="2" d="M588.21,-440.89C510.66,-427.71 398.5,-393.66 398.5,-307 398.5,-307 398.5,-307 398.5,-161 398.5,-58.23 546.91,-29.82 631.76,-21.98"/>
<polygon fill="grey" stroke="grey" stroke-width="2" points="632.11,-25.47 641.77,-21.12 631.51,-18.49 632.11,-25.47"/>
</g>
<!-- 15 -->
<g id="node16" class="node">
<title>15</title>
<path fill="none" stroke="#d85656" stroke-width="2" d="M818,-396C818,-396 753,-396 753,-396 747,-396 741,-390 741,-384 741,-384 741,-372 741,-372 741,-366 747,-360 753,-360 753,-360 818,-360 818,-360 824,-360 830,-366 830,-372 830,-372 830,-384 830,-384 830,-390 824,-396 818,-396"/>
<text text-anchor="middle" x="785.5" y="-375.5" font-family="sans" font-size="10.00">count_variants</text>
</g>
<!-- 4&#45;&gt;15 -->
<g id="edge39" class="edge">
<title>4&#45;&gt;15</title>
<path fill="none" stroke="grey" stroke-width="2" d="M691.08,-431.88C707.57,-422.64 728.12,-411.13 745.84,-401.21"/>
<polygon fill="grey" stroke="grey" stroke-width="2" points="747.79,-404.13 754.8,-396.19 744.37,-398.02 747.79,-404.13"/>
</g>
<!-- 16 -->
<g id="node17" class="node">
<title>16</title>
<path fill="none" stroke="#56d8d8" stroke-width="2" d="M694.5,-324C694.5,-324 642.5,-324 642.5,-324 636.5,-324 630.5,-318 630.5,-312 630.5,-312 630.5,-300 630.5,-300 630.5,-294 636.5,-288 642.5,-288 642.5,-288 694.5,-288 694.5,-288 700.5,-288 706.5,-294 706.5,-300 706.5,-300 706.5,-312 706.5,-312 706.5,-318 700.5,-324 694.5,-324"/>
<text text-anchor="middle" x="668.5" y="-303.5" font-family="sans" font-size="10.00">fit_titrations</text>
</g>
<!-- 4&#45;&gt;16 -->
<g id="edge42" class="edge">
<title>4&#45;&gt;16</title>
<path fill="none" stroke="grey" stroke-width="2" d="M659.74,-431.91C659.12,-413.97 658.63,-384.96 660.5,-360 661.14,-351.52 662.34,-342.34 663.62,-334.04"/>
<polygon fill="grey" stroke="grey" stroke-width="2" points="667.08,-334.55 665.25,-324.11 660.18,-333.41 667.08,-334.55"/>
</g>
<!-- 17 -->
<g id="node18" class="node">
<title>17</title>
<path fill="none" stroke="#d8b456" stroke-width="2" d="M938,-324C938,-324 843,-324 843,-324 837,-324 831,-318 831,-312 831,-312 831,-300 831,-300 831,-294 837,-288 843,-288 843,-288 938,-288 938,-288 944,-288 950,-294 950,-300 950,-300 950,-312 950,-312 950,-318 944,-324 938,-324"/>
<text text-anchor="middle" x="890.5" y="-303.5" font-family="sans" font-size="10.00">calculate_expression</text>
</g>
<!-- 4&#45;&gt;17 -->
<g id="edge46" class="edge">
<title>4&#45;&gt;17</title>
<path fill="none" stroke="grey" stroke-width="2" d="M670.24,-431.79C682.37,-411.81 704.91,-379.16 732.5,-360 758.87,-341.69 792.06,-329.29 821.21,-321.12"/>
<polygon fill="grey" stroke="grey" stroke-width="2" points="822.17,-324.49 830.92,-318.51 820.35,-317.73 822.17,-324.49"/>
</g>
<!-- 5 -->
<g id="node6" class="node">
<title>5</title>
<path fill="none" stroke="#569ad8" stroke-width="2" d="M999,-540C999,-540 800,-540 800,-540 794,-540 788,-534 788,-528 788,-528 788,-516 788,-516 788,-510 794,-504 800,-504 800,-504 999,-504 999,-504 1005,-504 1011,-510 1011,-516 1011,-516 1011,-528 1011,-528 1011,-534 1005,-540 999,-540"/>
<text text-anchor="middle" x="899.5" y="-525" font-family="sans" font-size="10.00">get_ccs</text>
<text text-anchor="middle" x="899.5" y="-514" font-family="sans" font-size="10.00">pacbioRun: pool1_Wuhan_Hu_1_210701_A</text>
</g>
<!-- 5&#45;&gt;4 -->
<g id="edge15" class="edge">
<title>5&#45;&gt;4</title>
<path fill="none" stroke="grey" stroke-width="2" d="M841.34,-503.97C807.37,-494.01 764.32,-481.41 728.74,-470.99"/>
<polygon fill="grey" stroke="grey" stroke-width="2" points="729.5,-467.56 718.92,-468.11 727.53,-474.28 729.5,-467.56"/>
</g>
<!-- 13 -->
<g id="node14" class="node">
<title>13</title>
<path fill="none" stroke="#97d856" stroke-width="2" d="M838.5,-468C838.5,-468 762.5,-468 762.5,-468 756.5,-468 750.5,-462 750.5,-456 750.5,-456 750.5,-444 750.5,-444 750.5,-438 756.5,-432 762.5,-432 762.5,-432 838.5,-432 838.5,-432 844.5,-432 850.5,-438 850.5,-444 850.5,-444 850.5,-456 850.5,-456 850.5,-462 844.5,-468 838.5,-468"/>
<text text-anchor="middle" x="800.5" y="-447.5" font-family="sans" font-size="10.00">process_ccs_BA1</text>
</g>
<!-- 5&#45;&gt;13 -->
<g id="edge23" class="edge">
<title>5&#45;&gt;13</title>
<path fill="none" stroke="grey" stroke-width="2" d="M875.28,-503.88C862.58,-494.89 846.84,-483.76 833.08,-474.03"/>
<polygon fill="grey" stroke="grey" stroke-width="2" points="835,-471.11 824.81,-468.19 830.96,-476.82 835,-471.11"/>
</g>
<!-- 14 -->
<g id="node15" class="node">
<title>14</title>
<path fill="none" stroke="#567bd8" stroke-width="2" d="M956.5,-468C956.5,-468 880.5,-468 880.5,-468 874.5,-468 868.5,-462 868.5,-456 868.5,-456 868.5,-444 868.5,-444 868.5,-438 874.5,-432 880.5,-432 880.5,-432 956.5,-432 956.5,-432 962.5,-432 968.5,-438 968.5,-444 968.5,-444 968.5,-456 968.5,-456 968.5,-462 962.5,-468 956.5,-468"/>
<text text-anchor="middle" x="918.5" y="-447.5" font-family="sans" font-size="10.00">process_ccs_BA2</text>
</g>
<!-- 5&#45;&gt;14 -->
<g id="edge31" class="edge">
<title>5&#45;&gt;14</title>
<path fill="none" stroke="grey" stroke-width="2" d="M904.2,-503.7C906.31,-495.9 908.86,-486.51 911.22,-477.83"/>
<polygon fill="grey" stroke="grey" stroke-width="2" points="914.62,-478.67 913.86,-468.1 907.86,-476.84 914.62,-478.67"/>
</g>
<!-- 6 -->
<g id="node7" class="node">
<title>6</title>
<path fill="none" stroke="#569ad8" stroke-width="2" d="M1240,-540C1240,-540 1041,-540 1041,-540 1035,-540 1029,-534 1029,-528 1029,-528 1029,-516 1029,-516 1029,-510 1035,-504 1041,-504 1041,-504 1240,-504 1240,-504 1246,-504 1252,-510 1252,-516 1252,-516 1252,-528 1252,-528 1252,-534 1246,-540 1240,-540"/>
<text text-anchor="middle" x="1140.5" y="-525" font-family="sans" font-size="10.00">get_ccs</text>
<text text-anchor="middle" x="1140.5" y="-514" font-family="sans" font-size="10.00">pacbioRun: pool2_Wuhan_Hu_1_210701_A</text>
</g>
<!-- 6&#45;&gt;4 -->
<g id="edge16" class="edge">
<title>6&#45;&gt;4</title>
<path fill="none" stroke="grey" stroke-width="2" d="M1028.72,-505.12C1025.96,-504.74 1023.21,-504.37 1020.5,-504 899.87,-487.67 866.52,-488.78 743.1,-468.2"/>
<polygon fill="grey" stroke="grey" stroke-width="2" points="743.31,-464.69 732.87,-466.48 742.15,-471.59 743.31,-464.69"/>
</g>
<!-- 6&#45;&gt;13 -->
<g id="edge24" class="edge">
<title>6&#45;&gt;13</title>
<path fill="none" stroke="grey" stroke-width="2" d="M1037.57,-503.98C986.79,-495.01 924.49,-483.15 860.49,-468.13"/>
<polygon fill="grey" stroke="grey" stroke-width="2" points="861.16,-464.69 850.63,-465.79 859.55,-471.5 861.16,-464.69"/>
</g>
<!-- 6&#45;&gt;14 -->
<g id="edge32" class="edge">
<title>6&#45;&gt;14</title>
<path fill="none" stroke="grey" stroke-width="2" d="M1086.48,-503.97C1053.77,-493.65 1012.01,-480.48 978.3,-469.86"/>
<polygon fill="grey" stroke="grey" stroke-width="2" points="979.17,-466.46 968.58,-466.79 977.06,-473.14 979.17,-466.46"/>
</g>
<!-- 7 -->
<g id="node8" class="node">
<title>7</title>
<path fill="none" stroke="#569ad8" stroke-width="2" d="M1481,-540C1481,-540 1282,-540 1282,-540 1276,-540 1270,-534 1270,-528 1270,-528 1270,-516 1270,-516 1270,-510 1276,-504 1282,-504 1282,-504 1481,-504 1481,-504 1487,-504 1493,-510 1493,-516 1493,-516 1493,-528 1493,-528 1493,-534 1487,-540 1481,-540"/>
<text text-anchor="middle" x="1381.5" y="-525" font-family="sans" font-size="10.00">get_ccs</text>
<text text-anchor="middle" x="1381.5" y="-514" font-family="sans" font-size="10.00">pacbioRun: pool1_Wuhan_Hu_1_211118_A</text>
</g>
<!-- 7&#45;&gt;4 -->
<g id="edge17" class="edge">
<title>7&#45;&gt;4</title>
<path fill="none" stroke="grey" stroke-width="2" d="M1269.75,-504.9C1266.97,-504.59 1264.22,-504.29 1261.5,-504 1034.37,-480.08 972.7,-499.31 742.85,-468.07"/>
<polygon fill="grey" stroke="grey" stroke-width="2" points="743.22,-464.59 732.84,-466.7 742.27,-471.53 743.22,-464.59"/>
</g>
<!-- 7&#45;&gt;13 -->
<g id="edge25" class="edge">
<title>7&#45;&gt;13</title>
<path fill="none" stroke="grey" stroke-width="2" d="M1269.74,-504.98C1266.97,-504.64 1264.22,-504.31 1261.5,-504 1086.52,-483.78 1037.58,-500.36 860.46,-467.97"/>
<polygon fill="grey" stroke="grey" stroke-width="2" points="861.03,-464.51 850.56,-466.13 859.75,-471.39 861.03,-464.51"/>
</g>
<!-- 7&#45;&gt;14 -->
<g id="edge33" class="edge">
<title>7&#45;&gt;14</title>
<path fill="none" stroke="grey" stroke-width="2" d="M1269.72,-504.1C1178.22,-490.27 1052.29,-471.23 978.73,-460.11"/>
<polygon fill="grey" stroke="grey" stroke-width="2" points="979.12,-456.62 968.71,-458.59 978.07,-463.55 979.12,-456.62"/>
</g>
<!-- 8 -->
<g id="node9" class="node">
<title>8</title>
<path fill="none" stroke="#569ad8" stroke-width="2" d="M1722,-540C1722,-540 1523,-540 1523,-540 1517,-540 1511,-534 1511,-528 1511,-528 1511,-516 1511,-516 1511,-510 1517,-504 1523,-504 1523,-504 1722,-504 1722,-504 1728,-504 1734,-510 1734,-516 1734,-516 1734,-528 1734,-528 1734,-534 1728,-540 1722,-540"/>
<text text-anchor="middle" x="1622.5" y="-525" font-family="sans" font-size="10.00">get_ccs</text>
<text text-anchor="middle" x="1622.5" y="-514" font-family="sans" font-size="10.00">pacbioRun: pool1_Wuhan_Hu_1_211118_B</text>
</g>
<!-- 8&#45;&gt;4 -->
<g id="edge18" class="edge">
<title>8&#45;&gt;4</title>
<path fill="none" stroke="grey" stroke-width="2" d="M1510.76,-504.82C1507.98,-504.53 1505.22,-504.26 1502.5,-504 1168.69,-472.53 1079.11,-510.16 742.85,-468.05"/>
<polygon fill="grey" stroke="grey" stroke-width="2" points="743.19,-464.56 732.83,-466.78 742.31,-471.51 743.19,-464.56"/>
</g>
<!-- 8&#45;&gt;13 -->
<g id="edge26" class="edge">
<title>8&#45;&gt;13</title>
<path fill="none" stroke="grey" stroke-width="2" d="M1510.76,-504.85C1507.98,-504.55 1505.22,-504.27 1502.5,-504 1221,-476.23 1143.49,-515 860.68,-467.95"/>
<polygon fill="grey" stroke="grey" stroke-width="2" points="860.98,-464.46 850.53,-466.25 859.81,-471.36 860.98,-464.46"/>
</g>
<!-- 8&#45;&gt;14 -->
<g id="edge34" class="edge">
<title>8&#45;&gt;14</title>
<path fill="none" stroke="grey" stroke-width="2" d="M1510.74,-504.98C1507.97,-504.64 1505.22,-504.32 1502.5,-504 1311.66,-481.84 1084.83,-463.55 978.77,-455.47"/>
<polygon fill="grey" stroke="grey" stroke-width="2" points="978.82,-451.96 968.58,-454.69 978.29,-458.94 978.82,-451.96"/>
</g>
<!-- 9 -->
<g id="node10" class="node">
<title>9</title>
<path fill="none" stroke="#569ad8" stroke-width="2" d="M167,-540C167,-540 12,-540 12,-540 6,-540 0,-534 0,-528 0,-528 0,-516 0,-516 0,-510 6,-504 12,-504 12,-504 167,-504 167,-504 173,-504 179,-510 179,-516 179,-516 179,-528 179,-528 179,-534 173,-540 167,-540"/>
<text text-anchor="middle" x="89.5" y="-525" font-family="sans" font-size="10.00">get_ccs</text>
<text text-anchor="middle" x="89.5" y="-514" font-family="sans" font-size="10.00">pacbioRun: pool1_BA1_220524_A</text>
</g>
<!-- 9&#45;&gt;4 -->
<g id="edge19" class="edge">
<title>9&#45;&gt;4</title>
<path fill="none" stroke="grey" stroke-width="2" d="M179.19,-505.22C181.99,-504.8 184.76,-504.39 187.5,-504 324.05,-484.52 483.62,-467.91 578.14,-458.71"/>
<polygon fill="grey" stroke="grey" stroke-width="2" points="578.59,-462.18 588.21,-457.74 577.92,-455.22 578.59,-462.18"/>
</g>
<!-- 9&#45;&gt;13 -->
<g id="edge27" class="edge">
<title>9&#45;&gt;13</title>
<path fill="none" stroke="grey" stroke-width="2" d="M179.17,-505.05C181.97,-504.68 184.76,-504.33 187.5,-504 429.29,-475.26 496.66,-509.48 740.59,-467.92"/>
<polygon fill="grey" stroke="grey" stroke-width="2" points="741.2,-471.37 750.46,-466.21 740.01,-464.47 741.2,-471.37"/>
</g>
<!-- 9&#45;&gt;14 -->
<g id="edge35" class="edge">
<title>9&#45;&gt;14</title>
<path fill="none" stroke="grey" stroke-width="2" d="M179.16,-505.01C181.97,-504.65 184.75,-504.31 187.5,-504 481.36,-470.76 562.75,-516.67 858.31,-467.95"/>
<polygon fill="grey" stroke="grey" stroke-width="2" points="859.18,-471.35 868.47,-466.25 858.03,-464.45 859.18,-471.35"/>
</g>
<!-- 10 -->
<g id="node11" class="node">
<title>10</title>
<path fill="none" stroke="#569ad8" stroke-width="2" d="M364,-540C364,-540 209,-540 209,-540 203,-540 197,-534 197,-528 197,-528 197,-516 197,-516 197,-510 203,-504 209,-504 209,-504 364,-504 364,-504 370,-504 376,-510 376,-516 376,-516 376,-528 376,-528 376,-534 370,-540 364,-540"/>
<text text-anchor="middle" x="286.5" y="-525" font-family="sans" font-size="10.00">get_ccs</text>
<text text-anchor="middle" x="286.5" y="-514" font-family="sans" font-size="10.00">pacbioRun: pool2_BA1_220524_A</text>
</g>
<!-- 10&#45;&gt;4 -->
<g id="edge20" class="edge">
<title>10&#45;&gt;4</title>
<path fill="none" stroke="grey" stroke-width="2" d="M376.08,-504.23C437.47,-492.74 518.29,-477.62 578.08,-466.43"/>
<polygon fill="grey" stroke="grey" stroke-width="2" points="579.06,-469.8 588.24,-464.52 577.77,-462.92 579.06,-469.8"/>
</g>
<!-- 10&#45;&gt;13 -->
<g id="edge28" class="edge">
<title>10&#45;&gt;13</title>
<path fill="none" stroke="grey" stroke-width="2" d="M376.18,-505.18C378.98,-504.77 381.76,-504.37 384.5,-504 539.26,-482.8 583.13,-497.56 740.41,-468.01"/>
<polygon fill="grey" stroke="grey" stroke-width="2" points="741.27,-471.4 750.44,-466.09 739.96,-464.53 741.27,-471.4"/>
</g>
<!-- 10&#45;&gt;14 -->
<g id="edge36" class="edge">
<title>10&#45;&gt;14</title>
<path fill="none" stroke="grey" stroke-width="2" d="M376.17,-505.09C378.98,-504.71 381.76,-504.34 384.5,-504 591.32,-478.29 649.33,-504.66 858.38,-467.97"/>
<polygon fill="grey" stroke="grey" stroke-width="2" points="859.22,-471.38 868.45,-466.18 857.99,-464.49 859.22,-471.38"/>
</g>
<!-- 11 -->
<g id="node12" class="node">
<title>11</title>
<path fill="none" stroke="#569ad8" stroke-width="2" d="M561,-540C561,-540 406,-540 406,-540 400,-540 394,-534 394,-528 394,-528 394,-516 394,-516 394,-510 400,-504 406,-504 406,-504 561,-504 561,-504 567,-504 573,-510 573,-516 573,-516 573,-528 573,-528 573,-534 567,-540 561,-540"/>
<text text-anchor="middle" x="483.5" y="-525" font-family="sans" font-size="10.00">get_ccs</text>
<text text-anchor="middle" x="483.5" y="-514" font-family="sans" font-size="10.00">pacbioRun: pool1_BA2_220524_B</text>
</g>
<!-- 11&#45;&gt;4 -->
<g id="edge21" class="edge">
<title>11&#45;&gt;4</title>
<path fill="none" stroke="grey" stroke-width="2" d="M526.8,-503.88C551.21,-494.22 581.9,-482.09 607.71,-471.88"/>
<polygon fill="grey" stroke="grey" stroke-width="2" points="609.33,-475 617.34,-468.07 606.76,-468.49 609.33,-475"/>
</g>
<!-- 11&#45;&gt;13 -->
<g id="edge29" class="edge">
<title>11&#45;&gt;13</title>
<path fill="none" stroke="grey" stroke-width="2" d="M573.14,-504.37C620.41,-495.17 679.53,-483.01 740.55,-468.14"/>
<polygon fill="grey" stroke="grey" stroke-width="2" points="741.48,-471.52 750.36,-465.74 739.81,-464.72 741.48,-471.52"/>
</g>
<!-- 11&#45;&gt;14 -->
<g id="edge37" class="edge">
<title>11&#45;&gt;14</title>
<path fill="none" stroke="grey" stroke-width="2" d="M573.05,-505.45C576.24,-504.95 579.4,-504.47 582.5,-504 702.02,-485.98 736.16,-492.87 858.3,-468.07"/>
<polygon fill="grey" stroke="grey" stroke-width="2" points="859.33,-471.44 868.42,-465.99 857.92,-464.58 859.33,-471.44"/>
</g>
<!-- 12 -->
<g id="node13" class="node">
<title>12</title>
<path fill="none" stroke="#569ad8" stroke-width="2" d="M758,-540C758,-540 603,-540 603,-540 597,-540 591,-534 591,-528 591,-528 591,-516 591,-516 591,-510 597,-504 603,-504 603,-504 758,-504 758,-504 764,-504 770,-510 770,-516 770,-516 770,-528 770,-528 770,-534 764,-540 758,-540"/>
<text text-anchor="middle" x="680.5" y="-525" font-family="sans" font-size="10.00">get_ccs</text>
<text text-anchor="middle" x="680.5" y="-514" font-family="sans" font-size="10.00">pacbioRun: pool2_BA2_220524_B</text>
</g>
<!-- 12&#45;&gt;4 -->
<g id="edge22" class="edge">
<title>12&#45;&gt;4</title>
<path fill="none" stroke="grey" stroke-width="2" d="M675.56,-503.7C673.33,-495.9 670.65,-486.51 668.17,-477.83"/>
<polygon fill="grey" stroke="grey" stroke-width="2" points="671.5,-476.76 665.39,-468.1 664.77,-478.68 671.5,-476.76"/>
</g>
<!-- 12&#45;&gt;13 -->
<g id="edge30" class="edge">
<title>12&#45;&gt;13</title>
<path fill="none" stroke="grey" stroke-width="2" d="M709.86,-503.88C725.55,-494.72 745.06,-483.34 761.95,-473.48"/>
<polygon fill="grey" stroke="grey" stroke-width="2" points="764.16,-476.25 771.03,-468.19 760.63,-470.21 764.16,-476.25"/>
</g>
<!-- 12&#45;&gt;14 -->
<g id="edge38" class="edge">
<title>12&#45;&gt;14</title>
<path fill="none" stroke="grey" stroke-width="2" d="M738.42,-503.97C774.92,-493.23 821.94,-479.4 858.78,-468.56"/>
<polygon fill="grey" stroke="grey" stroke-width="2" points="859.8,-471.91 868.4,-465.73 857.82,-465.2 859.8,-471.91"/>
</g>
<!-- 13&#45;&gt;0 -->
<g id="edge5" class="edge">
<title>13&#45;&gt;0</title>
<path fill="none" stroke="grey" stroke-width="2" d="M850.56,-433.2C903.2,-413.09 978.5,-372.82 978.5,-307 978.5,-307 978.5,-307 978.5,-161 978.5,-117.99 973.73,-99.3 940.5,-72 911.51,-48.18 811.95,-32.76 747.28,-25"/>
<polygon fill="grey" stroke="grey" stroke-width="2" points="747.55,-21.51 737.21,-23.82 746.74,-28.46 747.55,-21.51"/>
</g>
<!-- 13&#45;&gt;15 -->
<g id="edge40" class="edge">
<title>13&#45;&gt;15</title>
<path fill="none" stroke="grey" stroke-width="2" d="M796.79,-431.7C795.14,-423.98 793.15,-414.71 791.31,-406.11"/>
<polygon fill="grey" stroke="grey" stroke-width="2" points="794.68,-405.15 789.17,-396.1 787.84,-406.62 794.68,-405.15"/>
</g>
<!-- 13&#45;&gt;16 -->
<g id="edge43" class="edge">
<title>13&#45;&gt;16</title>
<path fill="none" stroke="grey" stroke-width="2" d="M775.17,-431.93C761.72,-422.23 745.37,-409.38 732.5,-396 713.79,-376.55 696.17,-351.34 684.18,-332.72"/>
<polygon fill="grey" stroke="grey" stroke-width="2" points="687.06,-330.74 678.76,-324.16 681.15,-334.49 687.06,-330.74"/>
</g>
<!-- 13&#45;&gt;17 -->
<g id="edge47" class="edge">
<title>13&#45;&gt;17</title>
<path fill="none" stroke="grey" stroke-width="2" d="M814.01,-431.69C821.77,-421.5 831.52,-408.25 839.5,-396 852.87,-375.48 866.59,-351.32 876.43,-333.35"/>
<polygon fill="grey" stroke="grey" stroke-width="2" points="879.78,-334.53 881.47,-324.07 873.62,-331.19 879.78,-334.53"/>
</g>
<!-- 14&#45;&gt;0 -->
<g id="edge6" class="edge">
<title>14&#45;&gt;0</title>
<path fill="none" stroke="grey" stroke-width="2" d="M940.74,-431.92C969.65,-407.6 1016.5,-360.02 1016.5,-307 1016.5,-307 1016.5,-307 1016.5,-161 1016.5,-116.27 1005.49,-98.57 969.5,-72 934.98,-46.51 818.68,-31.23 747.28,-24.03"/>
<polygon fill="grey" stroke="grey" stroke-width="2" points="747.38,-20.52 737.08,-23.02 746.69,-27.49 747.38,-20.52"/>
</g>
<!-- 14&#45;&gt;15 -->
<g id="edge41" class="edge">
<title>14&#45;&gt;15</title>
<path fill="none" stroke="grey" stroke-width="2" d="M885.96,-431.88C868.25,-422.55 846.15,-410.92 827.18,-400.94"/>
<polygon fill="grey" stroke="grey" stroke-width="2" points="828.64,-397.75 818.16,-396.19 825.38,-403.94 828.64,-397.75"/>
</g>
<!-- 14&#45;&gt;16 -->
<g id="edge44" class="edge">
<title>14&#45;&gt;16</title>
<path fill="none" stroke="grey" stroke-width="2" d="M907.5,-431.71C893.87,-411.65 868.84,-378.92 839.5,-360 802.05,-335.86 752.93,-322.13 716.94,-314.73"/>
<polygon fill="grey" stroke="grey" stroke-width="2" points="717.18,-311.21 706.69,-312.72 715.83,-318.08 717.18,-311.21"/>
</g>
<!-- 14&#45;&gt;17 -->
<g id="edge48" class="edge">
<title>14&#45;&gt;17</title>
<path fill="none" stroke="grey" stroke-width="2" d="M918.33,-431.72C917.83,-413.63 916.11,-384.5 910.5,-360 908.5,-351.28 905.4,-342.06 902.22,-333.8"/>
<polygon fill="grey" stroke="grey" stroke-width="2" points="905.38,-332.26 898.39,-324.3 898.89,-334.88 905.38,-332.26"/>
</g>
<!-- 15&#45;&gt;0 -->
<g id="edge7" class="edge">
<title>15&#45;&gt;0</title>
<path fill="none" stroke="grey" stroke-width="2" d="M789.16,-359.85C794,-340.54 804.16,-309.09 822.5,-288 843.16,-264.25 867.89,-279.34 883.5,-252 910.55,-204.63 909.39,-138.18 848.5,-72 822.61,-43.86 781.41,-30.64 747.43,-24.45"/>
<polygon fill="grey" stroke="grey" stroke-width="2" points="747.58,-20.92 737.14,-22.74 746.44,-27.83 747.58,-20.92"/>
</g>
<!-- 15&#45;&gt;16 -->
<g id="edge45" class="edge">
<title>15&#45;&gt;16</title>
<path fill="none" stroke="grey" stroke-width="2" d="M756.88,-359.88C741.58,-350.72 722.56,-339.34 706.08,-329.48"/>
<polygon fill="grey" stroke="grey" stroke-width="2" points="707.61,-326.32 697.23,-324.19 704.02,-332.33 707.61,-326.32"/>
</g>
<!-- 15&#45;&gt;17 -->
<g id="edge49" class="edge">
<title>15&#45;&gt;17</title>
<path fill="none" stroke="grey" stroke-width="2" d="M811.19,-359.88C824.79,-350.81 841.67,-339.55 856.36,-329.76"/>
<polygon fill="grey" stroke="grey" stroke-width="2" points="858.34,-332.65 864.72,-324.19 854.45,-326.82 858.34,-332.65"/>
</g>
<!-- 16&#45;&gt;0 -->
<g id="edge8" class="edge">
<title>16&#45;&gt;0</title>
<path fill="none" stroke="grey" stroke-width="2" d="M630.49,-295.79C561.24,-276.79 424.36,-227.87 455.5,-144 470.2,-104.41 482.16,-95.12 517.5,-72 552.01,-49.42 596.65,-36.04 631.8,-28.37"/>
<polygon fill="grey" stroke="grey" stroke-width="2" points="632.84,-31.73 641.92,-26.26 631.41,-24.87 632.84,-31.73"/>
</g>
<!-- 18 -->
<g id="node19" class="node">
<title>18</title>
<path fill="none" stroke="#d89556" stroke-width="2" d="M698.5,-252C698.5,-252 628.5,-252 628.5,-252 622.5,-252 616.5,-246 616.5,-240 616.5,-240 616.5,-228 616.5,-228 616.5,-222 622.5,-216 628.5,-216 628.5,-216 698.5,-216 698.5,-216 704.5,-216 710.5,-222 710.5,-228 710.5,-228 710.5,-240 710.5,-240 710.5,-246 704.5,-252 698.5,-252"/>
<text text-anchor="middle" x="663.5" y="-231.5" font-family="sans" font-size="10.00">collapse_scores</text>
</g>
<!-- 16&#45;&gt;18 -->
<g id="edge50" class="edge">
<title>16&#45;&gt;18</title>
<path fill="none" stroke="grey" stroke-width="2" d="M667.26,-287.7C666.71,-279.98 666.05,-270.71 665.44,-262.11"/>
<polygon fill="grey" stroke="grey" stroke-width="2" points="668.93,-261.83 664.72,-252.1 661.94,-262.33 668.93,-261.83"/>
</g>
<!-- 17&#45;&gt;0 -->
<g id="edge9" class="edge">
<title>17&#45;&gt;0</title>
<path fill="none" stroke="grey" stroke-width="2" d="M901.55,-287.61C907.24,-277.62 913.58,-264.58 916.5,-252 934.59,-174.07 966.22,-134.67 916.5,-72 895.75,-45.85 807.49,-31.4 747.34,-24.42"/>
<polygon fill="grey" stroke="grey" stroke-width="2" points="747.53,-20.92 737.2,-23.28 746.75,-27.88 747.53,-20.92"/>
</g>
<!-- 17&#45;&gt;18 -->
<g id="edge51" class="edge">
<title>17&#45;&gt;18</title>
<path fill="none" stroke="grey" stroke-width="2" d="M835.26,-287.97C800.35,-277.2 755.36,-263.33 720.18,-252.48"/>
<polygon fill="grey" stroke="grey" stroke-width="2" points="721.12,-249.11 710.53,-249.5 719.06,-255.79 721.12,-249.11"/>
</g>
<!-- 18&#45;&gt;0 -->
<g id="edge10" class="edge">
<title>18&#45;&gt;0</title>
<path fill="none" stroke="grey" stroke-width="2" d="M657.08,-215.79C649.35,-196.69 634.93,-165.72 615.5,-144 596.76,-123.05 576.55,-132.9 563.5,-108 556.07,-93.83 554.65,-85.33 563.5,-72 578.86,-48.88 606.49,-35.82 631.97,-28.46"/>
<polygon fill="grey" stroke="grey" stroke-width="2" points="633.19,-31.75 641.97,-25.82 631.41,-24.99 633.19,-31.75"/>
</g>
<!-- 18&#45;&gt;19 -->
<g id="edge52" class="edge">
<title>18&#45;&gt;19</title>
<path fill="none" stroke="grey" stroke-width="2" d="M692.86,-215.88C708.55,-206.72 728.06,-195.34 744.95,-185.48"/>
<polygon fill="grey" stroke="grey" stroke-width="2" points="747.16,-188.25 754.03,-180.19 743.63,-182.21 747.16,-188.25"/>
</g>
<!-- 20 -->
<g id="node21" class="node">
<title>20</title>
<path fill="none" stroke="#56b9d8" stroke-width="2" d="M786,-108C786,-108 715,-108 715,-108 709,-108 703,-102 703,-96 703,-96 703,-84 703,-84 703,-78 709,-72 715,-72 715,-72 786,-72 786,-72 792,-72 798,-78 798,-84 798,-84 798,-96 798,-96 798,-102 792,-108 786,-108"/>
<text text-anchor="middle" x="750.5" y="-87.5" font-family="sans" font-size="10.00">structural_shifts</text>
</g>
<!-- 18&#45;&gt;20 -->
<g id="edge54" class="edge">
<title>18&#45;&gt;20</title>
<path fill="none" stroke="grey" stroke-width="2" d="M673.99,-215.87C689.08,-191.24 717.02,-145.64 734.64,-116.88"/>
<polygon fill="grey" stroke="grey" stroke-width="2" points="737.73,-118.54 739.97,-108.19 731.76,-114.89 737.73,-118.54"/>
</g>
<!-- 21 -->
<g id="node22" class="node">
<title>21</title>
<path fill="none" stroke="#56d89a" stroke-width="2" d="M673,-108C673,-108 584,-108 584,-108 578,-108 572,-102 572,-96 572,-96 572,-84 572,-84 572,-78 578,-72 584,-72 584,-72 673,-72 673,-72 679,-72 685,-78 685,-84 685,-84 685,-96 685,-96 685,-102 679,-108 673,-108"/>
<text text-anchor="middle" x="628.5" y="-87.5" font-family="sans" font-size="10.00">interactive_jsd_plot</text>
</g>
<!-- 18&#45;&gt;21 -->
<g id="edge56" class="edge">
<title>18&#45;&gt;21</title>
<path fill="none" stroke="grey" stroke-width="2" d="M661.6,-215.73C659.37,-197.64 655.12,-168.51 648.5,-144 646.17,-135.36 642.96,-126.17 639.81,-117.9"/>
<polygon fill="grey" stroke="grey" stroke-width="2" points="642.97,-116.39 636.04,-108.39 636.46,-118.97 642.97,-116.39"/>
</g>
<!-- 22 -->
<g id="node23" class="node">
<title>22</title>
<path fill="none" stroke="#b6d856" stroke-width="2" d="M594.5,-180C594.5,-180 476.5,-180 476.5,-180 470.5,-180 464.5,-174 464.5,-168 464.5,-168 464.5,-156 464.5,-156 464.5,-150 470.5,-144 476.5,-144 476.5,-144 594.5,-144 594.5,-144 600.5,-144 606.5,-150 606.5,-156 606.5,-156 606.5,-168 606.5,-168 606.5,-174 600.5,-180 594.5,-180"/>
<text text-anchor="middle" x="535.5" y="-159.5" font-family="sans" font-size="10.00">interactive_heatmap_plot</text>
</g>
<!-- 18&#45;&gt;22 -->
<g id="edge58" class="edge">
<title>18&#45;&gt;22</title>
<path fill="none" stroke="grey" stroke-width="2" d="M632.19,-215.88C615.3,-206.64 594.25,-195.13 576.12,-185.21"/>
<polygon fill="grey" stroke="grey" stroke-width="2" points="577.39,-181.92 566.93,-180.19 574.03,-188.06 577.39,-181.92"/>
</g>
<!-- 19&#45;&gt;0 -->
<g id="edge11" class="edge">
<title>19&#45;&gt;0</title>
<path fill="none" stroke="grey" stroke-width="2" d="M795.88,-143.66C807.73,-124.73 821.85,-94.17 807.5,-72 793.89,-50.97 769.73,-38.2 746.8,-30.49"/>
<polygon fill="grey" stroke="grey" stroke-width="2" points="747.68,-27.09 737.09,-27.48 745.61,-33.78 747.68,-27.09"/>
</g>
<!-- 19&#45;&gt;20 -->
<g id="edge55" class="edge">
<title>19&#45;&gt;20</title>
<path fill="none" stroke="grey" stroke-width="2" d="M775.34,-143.7C771.59,-135.73 767.05,-126.1 762.88,-117.26"/>
<polygon fill="grey" stroke="grey" stroke-width="2" points="765.99,-115.66 758.56,-108.1 759.66,-118.64 765.99,-115.66"/>
</g>
<!-- 19&#45;&gt;21 -->
<g id="edge57" class="edge">
<title>19&#45;&gt;21</title>
<path fill="none" stroke="grey" stroke-width="2" d="M745.58,-143.88C724.49,-134.35 698.04,-122.41 675.63,-112.28"/>
<polygon fill="grey" stroke="grey" stroke-width="2" points="676.85,-108.99 666.29,-108.07 673.97,-115.37 676.85,-108.99"/>
</g>
<!-- 20&#45;&gt;0 -->
<g id="edge12" class="edge">
<title>20&#45;&gt;0</title>
<path fill="none" stroke="grey" stroke-width="2" d="M735.42,-71.7C728.11,-63.3 719.19,-53.07 711.16,-43.86"/>
<polygon fill="grey" stroke="grey" stroke-width="2" points="713.61,-41.34 704.41,-36.1 708.34,-45.94 713.61,-41.34"/>
</g>
<!-- 21&#45;&gt;0 -->
<g id="edge13" class="edge">
<title>21&#45;&gt;0</title>
<path fill="none" stroke="grey" stroke-width="2" d="M643.58,-71.7C650.89,-63.3 659.81,-53.07 667.84,-43.86"/>
<polygon fill="grey" stroke="grey" stroke-width="2" points="670.66,-45.94 674.59,-36.1 665.39,-41.34 670.66,-45.94"/>
</g>
<!-- 22&#45;&gt;0 -->
<g id="edge14" class="edge">
<title>22&#45;&gt;0</title>
<path fill="none" stroke="grey" stroke-width="2" d="M528.34,-143.81C521.53,-124.45 514.36,-92.97 529.5,-72 552.58,-40.04 595.67,-27.04 631.32,-21.9"/>
<polygon fill="grey" stroke="grey" stroke-width="2" points="632.15,-25.32 641.64,-20.59 631.28,-18.38 632.15,-25.32"/>
</g>
</g>
</svg>
